<?xml version="1.0" encoding="UTF-8" standalone="no"?>
<svg
   width="100pt"
   height="100pt"
   version="1.1"
   viewBox="0 0 100 100"
   id="svg8"
   sodipodi:docname="noun-beer-tap-5159160.svg"
   inkscape:version="1.2.1 (9c6d41e, 2022-07-14)"
   xmlns:inkscape="http://www.inkscape.org/namespaces/inkscape"
   xmlns:sodipodi="http://sodipodi.sourceforge.net/DTD/sodipodi-0.dtd"
   xmlns="http://www.w3.org/2000/svg"
   xmlns:svg="http://www.w3.org/2000/svg">
  <defs
     id="defs12" />
  <sodipodi:namedview
     id="namedview10"
     pagecolor="#ffffff"
     bordercolor="#000000"
     borderopacity="0.25"
     inkscape:showpageshadow="2"
     inkscape:pageopacity="0.0"
     inkscape:pagecheckerboard="0"
     inkscape:deskcolor="#d1d1d1"
     inkscape:document-units="pt"
     showgrid="false"
     inkscape:zoom="1.77"
     inkscape:cx="-23.163842"
     inkscape:cy="66.666667"
     inkscape:window-width="1309"
     inkscape:window-height="456"
     inkscape:window-x="0"
     inkscape:window-y="525"
     inkscape:window-maximized="0"
     inkscape:current-layer="g6" />
  <g
     id="g6">
    <path
       d="m5 0h90c2.7617 0 5 2.7617 5 5v90c0 2.7617-2.2383 5-5 5h-90c-2.7617 0-5-2.7617-5-5v-90c0-2.7617 2.2383-5 5-5z"
       fill="#ffd65b"
       id="path2"
       style="fill:#ffdb5f;fill-opacity:1" />
    <path
       d="m 57.008991,79.580658 h 0.58031 l 1.167131,16.49626 c 0.0652,0.860667 0.775905,1.525739 1.636589,1.525739 h 7.315721 c 0.867194,0 1.577901,-0.665072 1.63659,-1.525739 l 1.16713,-16.49626 h 0.58031 c 0.90632,0 1.643117,-0.736797 1.643117,-1.643116 v -5.718308 h 4.016402 c 4.459906,0 8.085217,-3.625311 8.085217,-8.07854 0,-4.459906 -3.625311,-8.085217 -8.085217,-8.085217 h -4.016402 v -5.711798 c 0,-0.906319 -0.736797,-1.643116 -1.643117,-1.643116 h -5.405334 v -8.339435 h 3.436192 c 0.847631,0 1.558338,-0.645508 1.63659,-1.499666 l 2.36691,-26.596856 c 0.221685,-2.5363323 -0.632473,-5.0793416 -2.3604,-6.963689 -3.442702,-3.7621848 -10.015134,-3.7621848 -13.457836,0 -1.721267,1.8843474 -2.575558,4.4206799 -2.35389,6.963689 l 2.36691,26.596856 c 0.07824,0.847631 0.782432,1.499666 1.63659,1.499666 h 3.436192 v 8.339435 h -5.405335 c -0.906319,0 -1.643116,0.736797 -1.643116,1.643116 v 5.711798 h -8.80881 v -1.075843 c 0,-0.906319 -0.736797,-1.643116 -1.643116,-1.643116 h -8.313396 v -6.865875 c 0,-0.906319 -0.736796,-1.643116 -1.643116,-1.643116 H 16.805408 c -0.906319,0 -1.643116,0.736797 -1.643116,1.643116 v 35.340068 c 0,0.906319 0.736797,1.643116 1.643116,1.643116 h 18.159106 c 0.90632,0 1.6431,-0.736797 1.6431,-1.643116 v -6.872385 h 8.313395 c 0.906319,0 1.643116,-0.736796 1.643116,-1.643116 v -1.075842 h 8.808811 v 5.718307 c -0.0065,0.90632 0.73027,1.643116 1.636589,1.643116 z m -32.771186,0.58682 H 18.447723 V 48.114043 h 5.790082 z m 9.082725,0 H 27.523938 V 48.114043 h 5.796592 z m 9.949868,-8.509024 h -6.670246 v -15.02921 h 6.670246 z m 22.912956,22.65757 H 61.932097 L 60.888854,79.580257 h 6.337743 z M 69.456467,76.293791 H 58.652308 V 72.218633 H 69.456467 Z M 60.478066,37.074529 58.241687,11.971597 c -0.149966,-1.649626 0.384698,-3.2275439 1.506176,-4.4533962 2.243056,-2.4450279 6.370293,-2.4450279 8.606672,0 1.121494,1.2192924 1.656152,2.8037362 1.506176,4.4533962 l -2.23638,25.102932 z m -1.825758,14.911866 h 10.804159 v 4.068648 H 58.652308 Z M 46.557198,68.932 v -9.597836 h 30.195627 c 2.647167,0 4.798918,2.151752 4.798918,4.798918 0,2.647167 -2.151751,4.798918 -4.798918,4.798918 z"
       id="path4"
       style="stroke-width:1.66919" />
  </g>
</svg>
