<svg width="100pt" height="100pt" viewBox="0 0 100 100" xmlns="http://www.w3.org/2000/svg"><g transform="matrix(1.0938 0 0 1.0938 -5.6045 -5.7883)" fill-rule="evenodd"><path d="m70.226 33.623v54.068c-14.432 11.343-34.904 9.1828-44.247 0.33863-0.8929-19.412-1.4674-53.39-1.4674-53.39z" style="fill:#ffa500;stroke-width:.68568;stroke:#000"/><path d="m24.06 35.429-7.1112-5.8696c0.06332-6.1908 4.356-10.63 8.9172-12.642l-0.79013-1.2416c4.4317-7.6206 11.673-8.8411 19.415-8.0142l-1.9189 1.806c7.8673-5.2145 14.007-3.5832 20.656 2.1446l-2.8219 1.1288 3.7249-1.1288 5.7567 1.5803c0.48298 1.9236 1.5629 2.6656 3.0477 3.8378l-4.0635 2.3704 2.9348-0.79013 3.612 1.5803c0.91222 3.3131-1.697 6.9523-3.2734 8.9172-0.13436 2.0696-0.95569 3.0396-2.2575 4.515-3.2544 1.4504-2.5183 5.9645-2.2575 8.3528l-1.5803 7.2241c-1.6695 0.82276-1.681 0.69694-2.5962-0.79013 0.63318-3.8074 4.3294-7.9618-0.79013-8.24 0.53009-1.8658 1.3403-2.4589-0.4515-3.2734-1.5737 0.80008-3.1354 1.1524-4.8537 1.3545-1.5234 2.6498-1.442 3.0039-4.0635 1.6931-2.9731 3.1656-1.6313 8.6174-1.4674 12.078-1.1494 2.9347-2.8445 1.3083-3.612-0.33863 1.2727-4.1785 1.1288-7.4458 1.1288-11.513-0.8968-1.0232-1.2317-0.99873-2.4833-0.79013-1.8315 2.0311-2.5521 4.0254-3.8378 0.90301-1.3731 0.97352-2.2091 1.906-3.8378 1.5803l-1.4674 4.0635-0.67726 4.515 0.22575 5.4181 0.11288 4.9666c-0.50945 3.5272-2.5325 2.1277-3.7249 0.33863l0.33863-6.6597 1.0159-6.6597c-0.83591-2.7791 1.4801-8.1326-1.3545-9.7074-1.3926 1.6109-1.98 2.8693-4.0635 2.709-0.28315-1.1107 0.3753-2.2575-0.90301-2.8219-2.8846 4.39-3.0782 8.2958-3.4992 13.207-0.92719 1.1782-0.88794 1.0374-1.6931-0.11288 0.3775-2.637 0.32689-5.1733 0-7.7885 0.9439-2.7589 0.97696-5.1165 0.56438-7.9013z" style="fill:#fffafa;stroke-width:.68568;stroke:#000"/><path d="m70.339 35.203s19.99-8.5591 20.882 10.159c1.4954 31.389-20.431 33.976-20.431 33.976" style="fill:none;stroke-width:.68568;stroke:#000"/><path d="m70.339 40.734s12.676-4.9269 14.335 7.1112c2.51 18.211-14.222 24.381-14.222 24.381" style="fill:none;stroke-width:.68568;stroke:#000"/><path d="m73.64 34.075c-0.60071 1.2176-1.5305 1.8194-2.0318 2.8219" style="fill:none;stroke-width:.68568;stroke:#000"/><path d="m78.155 33.624c-1.175 0.89305-1.982 2.3207-2.9348 3.2734" style="fill:none;stroke-width:.68568;stroke:#000"/><path d="m81.767 33.85c-1.2474 1.5949-2.8038 2.5781-3.9507 3.7249" style="fill:none;stroke-width:.68568;stroke:#000"/><path d="m85.379 34.527c-1.6833 0.54813-2.4858 2.1472-3.4992 3.1605" style="fill:none;stroke-width:.68568;stroke:#000"/><path d="m87.749 36.333c-1.3224 1.0538-3.2699 1.9142-4.2893 3.2734" style="fill:none;stroke-width:.68568;stroke:#000"/><path d="m89.555 38.59c-2.3736 0.31185-3.4253 1.8451-4.8537 3.2734" style="fill:none;stroke-width:.68568;stroke:#000"/><path d="m90.12 42.88c-1.475 0.32626-3.4709 1.0534-4.2893 2.1446" style="fill:none;stroke-width:.68568;stroke:#000"/><path d="m91.136 45.927c-2.0868 0.11959-3.5151 0.77714-4.8537 1.5803" style="fill:none;stroke-width:.68568;stroke:#000"/><path d="m91.136 50.33c-1.525 0.17412-3.4163 0.4176-4.5151 1.2416" style="fill:none;stroke-width:.68568;stroke:#000"/><path d="m90.684 54.957c-1.4188 0.07182-2.871 0.5487-3.8378 1.1288" style="fill:none;stroke-width:.68568;stroke:#000"/><path d="m89.894 58.344c-1.6525 0.44242-3.4484 0.01243-5.0794 0.33863" style="fill:none;stroke-width:.68568;stroke:#000"/><path d="m89.555 61.166c-1.5419 0.25592-2.6431 1.1438-3.612 1.9189" style="fill:none;stroke-width:.68568;stroke:#000"/><path d="m87.975 64.778c-1.389-0.01033-1.7268 0.38346-2.3704 1.2416" style="fill:none;stroke-width:.68568;stroke:#000"/><path d="m85.83 68.954c-1.1036 0.30272-2.0148 1.0031-2.9348 1.6931" style="fill:none;stroke-width:.68568;stroke:#000"/></g></svg>
