<svg width="100pt" height="100pt" viewBox="0 0 100 100" xmlns="http://www.w3.org/2000/svg"><g transform="matrix(1.0938 0 0 1.0938 -5.6045 -5.7883)" fill-rule="evenodd"><path d="m83.066 69.148c-0.23828 0.66406-0.15625 0.84375-0.89844 0.35547zm0.15234-1.3711-0.85156-0.51172 2.5547-1.0625-0.82422 1.6289zm-1.7578-4.8828c0.46484-1.8203 2.0312-2.5859 3.9648-1.9531-0.53516 0.80469-2.9688 1.6641-3.9648 1.9531zm1.3906-2.6797c0.39063-1.0898 0.44141-1.2891 1.5508-1.7383 1.0312-0.42187 1.5312-0.73437 2.2617-0.03516-0.61719 0.77344-2.7734 1.7188-3.8086 1.7734zm-13.594-18.906c4.0703-1.1992 8.7656-2.6094 11.695 1.3828 2.9531 4.0234 2.3086 7.3633 1.6992 12.234-0.36328 2.9258-0.21484 3.5273-1.6094 6.2227-0.83984 1.6367-1.7344 3.2539-3.0273 4.543-2.0195 2.0156-6.0859 5.6445-8.832 6.2969-0.26172-2.1914-0.08594-5.4766 0.13672-7.6602l-0.16797-15.238c-0.18359-2.5664 0.12891-5.2656 0.10156-7.7812zm-6.4219 7.9297c0.16406-0.6875-0.1875-0.13281 0.66016-0.73047 0.40625-0.28906 0.35938-0.28125 0.85156-0.50781-0.05859 1.0117-0.39453 1.8828-1.5117 1.2383zm-37.922-6.1367c0.74219 1.375-0.01953 7.9414 0.0039 10 0.01953 2.1758 0.33594 3.168 0.04297 5.3906-0.22266 1.6953 0.31641 3.7852 0.23047 5.25-0.07813 1.3125 0.0078 17.527 0.33984 19.25 0.1875 0.98828-0.04297 1.7148 0.68359 2.2266 0.65625-0.45703 0.37109 0.04297 0.14453-2.4414-0.08594-0.96875-0.29688-2.0273-0.33203-2.9883-0.13281-3.7891 0.05859-7.2578-0.16797-11.324-0.10938-1.957-0.19141-4.5117-0.13281-6.4531 0.12109-4.2188-0.32812-8.6328 0.20313-12.758 0.35937-2.7969-1.5117-8.9492 1.6211-10.879 0.34766 0.60938 0.02344 1.5508 0.02734 2.4883 3.0898 2.3555 2.4453-1.9922 4.875-2.3047 0.51562 0.95703 0.33594 5.0391 0.48047 6.5273 0.29688 3.043 0.13672 3.707-0.32812 6.6406-0.48438 3.0469-2.0859 9.957 0.54297 12.246 4.3711 0.89062 2.8477-7.7773 2.7695-10.195-0.125-3.9531-0.19531-7.9023 1.5781-11.598 1.1133 0.35547 0.20312 0.33984 1.1953 0.64062 1.4609-0.89453 1.4141-1.9258 2.7305-2.2148 0.19141 0.81641 0.17188 1.3477 0.33984 2.0547 2.9219 1.1445 2.043-2.8711 4.9492-3.1016 1.0312 0.95312 1.0156 2.0312 0.72656 3.3477-0.26953 1.2383 0.48828 1.6367 0.10547 4.1523-0.30859 2.0234-2.3828 4.5703 0.28125 7.418 3.7891 0.05859 2.8008-3.7383 2.6523-6.4883-0.10547-1.9219-1.0352-7.4375 1.8008-7.6328 0.78516 0.64844 0.21484 0.74609 1.3359 1.3086 1.8242-0.54687 1.1836-1.6445 2.4531-2.9961 1.4453-0.32031 1.1602 0.47266 2.6211-0.30859 0.94531-0.50781 1.5859-1.3945 2.5547-0.67578 0.53906 1.2461-0.94531 1.6875 0.08203 2.8086 1.0391 0.57422 0.92969-0.25781 2.1289 0.57422 0.55078 1.3867-1.6641 5.2539-1.8125 6.9609-0.11328 1.3008 0.90625 2.5742 2.3047 2.0938 1.8008-0.61719 0.625-2.1953 1.6836-3.0234l0.02734 2.8906c-1.9141 1.6914-10.246 5.7812-12.871 6.7188 2.1055 0.92188 10.234-5.2305 12.887-5.8633 0.26953 4.8008 0.16797 4.5078-1.832 5.5781-1.7305 0.92969-3.4141 2.0078-5.1602 2.8555-1.8945 0.91797-3.4297 1.6641-5.4023 2.3906-1.3516 0.5-5.8438 1.3555-6.3672 1.6797 2.9219 1.9375 17.43-6.8359 18.68-7.1055 0.20312 1.6289 0.32031 3.7539 0.44922 5.4297 0.09766 1.2734-0.375 3.6953-0.42187 5.2383-2.3633 1.3359-6.5547 4.5469-9.1328 5.1172-1.3945 0.30859-0.73828 0.40625-2.0117 0.86719-1.5625 0.57031-3.6328 0.45312-4.8555 0.875 0.94141 0.66016 3.2383-0.50391 5.4961-0.51562 0.71094-0.0039 0.18359 0.03516 0.77344-0.08203 0.50781-0.09766-0.12891-0.41406 0.66406-0.0625 0.30469 1.2461-0.60938 0.38281-1.4062 0.92188 0.21484 0.90625 0.91016 1.2148 1.625 0.5 0.8125-0.81641 0.42578-1.3398 0.48438-2.1641 3.332-1.1133 2.8125-2.0859 6.1328-2.7852 1.7109-0.35938 1.0938-0.61328 0.98047-1.2422l1.2656-0.63281 0.125 5.543c-0.96484 0.15625-5.4688 2.3672-6.8047 3.0117-1.6289 0.79297-0.86719 0.57812-2.4922 0.39453-0.43359 1.6562-3.3125 1.6328-4.5117 2.8164 2.2891-0.42188 4.9688-1.6836 7.125-2.6445 1.7891-0.79688 4.9297-2.5547 6.7773-2.8672 0.05859 6.7773-0.46094 6.0117-5.7852 9.1836-0.85547-0.28516-0.81641-0.49219-2.1797-0.79297 0.24609 0.65625 0.85938 0.61719 1.4609 1.0391-0.57031 0.54688-1.2344 0.89062-2.043 1.0781 0.66406 0.44531 0.29687 0.53516 2.2734-0.45703l5.7422-3.4336c0.04688 0.99219-0.59375 1.4609 0.05078 2.5586 1.1406-0.28125 0.84375-2.4688 0.93359-3.5273 0.79297-0.57422 0.73828-0.30078 1.0547-1.3047-0.65234 0.32031-0.30859 0.39453-1.25 0.44141 0.11719-1.2148 0.47656-2.0273 0.44531-3.3633-0.03516-1.3672 0.01562-6.1445-0.28516-7.3203-0.38672-1.5234 0.94922-1.0898 1.1406-2.4805-0.75391-0.32031-0.09766-0.05078-0.50391-0.03906-1.2891 0.03516 0.375 0.31641-0.375 0.03906 0.17578-2.5664 0.03516-5.4062 0.01953-8.0195-0.0039-0.73047 0.04687-1.2656 0.09375-1.918 0.05078-0.71875-0.92969-4.2148 0.37109-5.875-0.71094-0.84375-0.83984-1.8359-0.46484-3.0898 0.34766-1.1719 1.668-0.87109 1.0898-1.9414-0.79297 0.42578-0.30469 0.64062-1.3516 1.0078l0.27734-1.7734c-0.74219 0.15625-0.47266-0.16016-0.85547 0.61328-0.09766-1.9414 1.3984-1.4023 2.332-2.6172l-1.7539 0.41797 0.15625-1.5273c0.58203-0.28125 1.375-0.46875 1.7891-1.082-0.70703-0.49609-0.83984 0.26953-1.8242 0.68359-0.58203-1.5156-0.26172-3.8086 0.41797-5.3086 0.44531-0.98047 0.55078-0.79688 1.4609-0.66406 0.60156 1.2734 0.32813 16.102 0.48438 19.066 0.12891 2.3477-0.25391 25.852-0.62891 28.824-0.49609 3.918 0.28125 5.0586-3.1719 7.043-2.1641 1.2422-4.3203 2.6289-6.7656 3.2891-2.2461 0.60547-6.0664 1.8906-8.1328 2.0938-1.6211 0.16016-2.8125 0.57031-4.4922 0.5-2.8086-0.11719-10.344-1.3867-12.883-2.3438-1.7148-0.64453-4.7305-2.6562-6.2734-3.7656-1.3516-0.97266-1.8867-1.5117-1.7188-3.2422 0.16797-1.7539-0.49219-12.219-0.65625-14.18-0.25391-3.082-0.28516-6.8516-0.29688-9.9727l-0.07813-9.6797c0.57031-2.9453 0.46094-6.3516 1.2305-9.0039zm44.258-6.4922c-0.07422-1.4922 1.1133-1.4336 2.5703-1.9102-0.54688 1.1797-1.3633 1.5391-2.5703 1.9102zm14.043 31.176c-0.24609 1.3945-1.9766 0.84375-2.8125 2.2734l1.9023 0.21094c-0.75 0.97266-2.5898 0.67188-3.0938 1.543 1.2031 0.74219 0.79297-0.14844 2.1523-0.14062-1.0859 0.79688-0.80469 1.375-2.793 1.4414-1.2617 0.04297-2.3359-0.01563-3.2305 0.92188 0.42188 0.19141 1.1406-0.26953 1.7031-0.33984 0.73828-0.09375 1.707-0.12109 2.4688-0.16797-0.85938 2.0117-3.8555 3.7852-5.8516 4.8594-0.17969-0.27734-0.35938 0.08594 0.22266-0.54297-2.0547-0.12891-0.52734-0.15625-1.5781-0.64453l-0.54688 0.46094 0.39063 1.3477-3.2578 0.19922 0.22266-6.1602c2.8711-1.3672 5.7188-2.2188 8.4062-5.8359 0.21094-0.28516 3.3945-3.5391 3.5469-3.6055 0.46875-0.20312 0.99219-0.16016 1.457-0.28516l3.3906-1.9805c-0.39062-0.85547-0.43359-0.44141-0.97656-1.1836 1.1328-0.43359 2.457-1.0234 2.6133-2.3125l-1.9414-0.125 2.6445-2.3125c-0.95312-0.55469-0.98438 0.18359-2.1094 1.0547-0.71875 0.55859-1.3945 1.2109-2.3203 1.5352 0.04687-0.42578 0.09375-0.83203 0.17969-1.2539 0.30859-1.5156 0.34375-0.87109 3.0195-2.3008 0.97266-0.51953 2.3164-0.85547 1.4844-1.9102-0.55078 0.34766 0.04688 0.26172-0.88672 0.93359-0.35938 0.26172-0.91406 0.51562-1.3164 0.70703-0.86328 0.41016-1.7031 0.81641-2.5352 1.2617-0.02734 0.89062-0.08594 1.2891-0.55859 1.9414-0.10938-0.75781 0.15625-2.0703 0.26562-2.9453 0.25781-2.0508 0.49219-0.70703 0.97266-0.87109l-0.15625-0.87891c-1.3125-0.25391 0.37109-2.4648-0.84375-6.7227-0.50781-1.7734-1.3359-3.4102-2.8047-4.5234-5.0703-3.8281-8.2695-1.3477-11.367-1.1055-0.29297-4.4688-0.26562-2.3125 1.6836-3.9375 2.6211-2.1914 3.0977-2.4609 6.1602-2.957-0.94141 1.5898-3.25 2.2539-4.5156 3.4141 1.6094 0.80859 5.2383-4.2188 6.8047-3.1133-0.21875 1.332-2.9062 1.8438-3.1836 2.9727 1.6172 0.01953 3.3945-2.8359 4.9023-2.4688 0.625 0.14844 1.2305 0.67969 1.457 1.1523-0.31641 0.12891-3.1641 1.4492-3.1719 1.4531 0.50781 0.40234 0.21484 0.42969 1.2266 0.125 1.3438-0.40234 2.1914-1.4727 2.8203-1.7539 0.29297 0.5 0.23828 0.25781-0.38281 0.71875 1.4727 0.04297 1.0703-0.0625 1.5508 0.31641-1.1953 0.58203-3.4492 1.5664-3.9492 2.7227 1.7578-0.19531 3.0703-1.918 4.7734-2.4609 0.84766 0.52344 1.2461 1.3789 1.7031 2.332-0.60938 0.35156 0.02344-0.28516-0.78906 0.25391 0.85937 0.375 0.41797 0.08594 0.59375 0.60156l-2.793 1.5938c1.1172 0.54297 2.793-1.2109 3.7227-1.5898 0.62109 2.0195-1.6016 2.2812-3.0781 2.9414 0.16406 0.16016-0.35938 0.49609 1.0039 0.19141l2.7617-1.4727c0.27734 3.0547-1.3672 1.7344-3.0781 3.2852 0.30469 0.23437-0.13672 0.10156 0.44922 0.16797 0.36719 0.04297 0.10547 0.05078 0.52344-0.03516l2.582-1.3477c0.09375 1.3711 0.0039 0.83594-0.22656 1.332l-0.13281 0.64844c-0.92578 0.38281-3.6992 1.2188-4.2383 1.8242 1.3203 0.96094 3.3359-1.1992 4.7891-1.6719 1.2539 2.5391 0.20312 7.918-0.35156 10.758-0.69922 3.5898-1.6914 5.8242-3.4219 8.9688l-2.043-0.14062c0.77734-0.99219 1.7539-0.69141 2.3242-1.8594l-1.1875-0.15234-0.17188 0.51562c-0.28125 0.37891-0.05078 0.12109-0.45312 0.38672-0.30859 0.19922-0.80859 0.43359-1.1797 0.60938-0.71875 0.33594-1.9414 0.52734-2.3828 1.1367 0.62109 0.40625 1.3242-0.19141 3.875-0.28516-0.98047 1.2461-3.5195 0.99219-3.6523 2.4453l2.6055-0.17188zm6.7148-13.316c0.83594-5.2852 0.57812-5.168-0.05078-10.281-0.80469-6.5391-5.5742-11.004-11.527-11.602-1.6602-0.16797-7.8359 1.2109-9.043 2.1758-0.14844-1.9062 0.60938-1.1914 1.1016-2.75 0.36719-1.1719 0.0625-2.2266 0.60156-3.1484 0.25391-0.43359 1.3047-1.5156 1.8047-2.2188 0.76172-1.0742 0.78516-1.3125 1.1602-2.625 0.79297-2.7617 1.1328-3.5781-1.5859-5.0547-1.3828-0.75-4.9258-1.0352-5.3086 0.86328 1.2227 0.38672 2.0586-1.8672 4.8711-0.4375 2.0742 1.0547 1.9883 1.9219 1.4336 4.0469-0.45312 1.7383-0.86719 2.7812-2.0625 4.1641-2.3789 2.7656-0.70312 1.6875-1.7266 4.2852-0.79297 1.9961-2.3164 1.043-3.3633 2.8555-0.65234 1.125-0.89453 3.7148-0.64062 5.082 0.36719 1.9648-0.38281 3.2422-0.60156 5.2578-0.10547 0.97656-0.07031 1.7109-0.80078 2.3477-0.41016 0.35547-1.293 1.0938-1.707 1.3086-0.0039-3.9141 4.6172-9.2461-0.6875-8.7617l0.48828-2.5039c-2.8008-2.1875-2.7539 0.53516-4.7969 0.39453-3.2227-0.22266-2.1797 1.7773-3.6758 2.9141-0.92188-0.65625-1.793-2.2734-3.1328-0.18359-1.6484 2.5703-0.8125 5.2539-0.78906 7.1641 0.03906 3.2812 0.69141 5.8398-1.6289 5.9961-2.2773-2.1406 0.17578-5.3125 0.05078-7.832-0.17969-3.5898 0.73828-7.8164-2.3398-6.9297-2.4141 0.69141-1.8047 2.6992-3.2305 3.1641-0.55469-0.6875-0.17578-2.4922-1.7812-2.3281-0.98828 0.10156-1.3867 1.3711-2.0859 2.0664-0.64453-0.39453-0.55469-0.45313-1.3047-0.53906-1.7422 1.4414-2.4844 8.2266-2.3867 10.629 0.09766 2.4531 1.1992 10.273-1.1758 11.375-2.7773-0.96094-0.90234-9.9609-0.53906-12.32 0.47656-3.0703 0.47656-3.5469 0.125-6.6328-0.23438-2.0625 0.44922-5.0469-0.73828-6.5938-2.9414-0.28125-2.1562 2.8125-4.1758 2.9805-0.76563-1.5898 0.83203-2.543-1.1289-3.3008-1.5664 0.44531-3.1484 4.6172-3.4258 6.1367-0.57422 3.125-0.21875 6.8789-1.4727 8.0352-0.84766-1.0664-0.21875-2.8438-0.03906-4.1445 0.53516-3.8555-0.14453-2.6484-0.15234-4.4805-0.0039-0.86719 0.39062-1.168 0.53125-2.0156l0.46484-4.457c0.05078-0.75391-0.18359-1.2109-0.21875-2.0898-1.4102-0.1875-0.19922 0.55078-1.4922-0.30859-0.72266-0.48047-0.64453-0.60938-1.3906-0.22656 0.55078 0.82031 1.918 0.90625 2.2031 2.082 0.43359 1.7695-0.92578 6.2188-0.88672 7.2734 0.0625 1.5938 0.5 1.4297 0.28906 3.3086-0.13281 1.1836-0.51172 2.5312-0.59375 3.6445-0.19141 2.5352 1.1211 1.7539 1.5742 3.4336 0.30078 1.1211 0.20312 5.6758 0.21484 6.9922 0.07031 8.1836 0.67188 14.574 0.60156 23.145-0.0039 0.60156 0.01953 3.5742 0.11719 3.9375 0.17578 0.66797 1.5195 1.5117 2.0977 1.875 5.8945 3.6914 4.4219 3.2266 11.246 5.25 4.8711 1.4414 9.5234 1.793 14.504 0.42188 3.7969-1.0469 8.9375-2.1523 12.23-4.2578 4.9844-3.1836 5.0703-1.2305 4.957-11.301 11.09 0.42578 19.477-15.562 21.016-25.289z"/><path d="m23.359 16.355c0.15234-0.12891 2.1016-3.3477 2.7734-4.1016 1.9023-2.1367 6.4922-4.207 9.4297-4.3906 1.5664-0.097656 5.4141-0.40234 6.7188 0.00391-0.53516 0.71875-1.5586 1.1211-1.9414 2.1562 0.96875 0.44922 0.98438-0.41797 1.8359-1.1055 0.54297-0.4375 1.7031-1.0898 2.3555-1.4336 1.8867-0.98828 4.082-1.4375 6.2812-1.043 2.5703 0.46094 3.5117-0.28516 6.0547 1.3125 0.62109 0.38672 3.5859 3.2969 3.9023 3.7812-1.0977 0.21875-2.7305 0.51562-2.8203 1.8125 2.5469 0.41016-0.0625-0.94531 3.8516-1.3516 2.6953-0.27734 2.1172 0.09766 4.3164 0.74609 2.9258 0.86719 3.1602 4.2109 5.7422 4.9492-0.29297-1.2891-1.3633-1.4961-2.1094-2.3359-0.60938-0.68359-0.89062-1.9141-1.8828-2.5625-0.24219-0.16016-2.8672-1.0898-3.2852-1.1836-1.832-0.41797-2.5195 0.45312-3.8008-0.875-1.5039-1.5586-2.9219-3.2852-5.0117-4.1094-2.1445-0.84375-8.1719-1.3672-11.379 0.27344-2.1484 1.1016-1.4062 0.16016-3.4609 0.14844-5.5-0.035156-9.8359 0.66016-14.266 3.9531-1.0781 0.80078-3.9414 4.1055-3.3008 5.3516z"/><path d="m53.879 88.898c3.2734-0.18359 5.4375-2.0312 8.082-2.7539-0.44922 0.94531 0.24609 0.14453-0.76172 0.84375-1.0664 0.74219-3.9492 1.6836-5.2383 2.0703-1.4141 0.42578-1.1016 0.49609-2.0859 1.043-1.7734 0.98047-8.6758 1.1172-10.957 1.0742 1.0078 1.5352 4.5625 0.34766 6.1367 0.16016 2.2148-0.26172 0.44922 0.87891 5.9141-1.0391 3.0391-1.0664 4.6836-2.2227 7.5391-3.5938 1.1719-0.5625 0.41406-0.5625 1.3359-1.3516 0.14062-0.12109 0.22656-0.03516 0.58203-0.40625-1.1992-0.65234-3.9648 1.2383-5.2148 1.8164-1.7383 0.80469-3.7734 1.3594-5.3359 2.1406z"/><path d="m21.223 33.051c-1.3477-0.97266-5.6445-1.9258-4.7461-4.2305l-0.94922-0.14844c0.37109-2.6523 1.5625-5.6289 3.332-7.4297 0.89062-0.90625 1.6523-1.7734 2.7031-2.6484 1.082-0.90625 2.9766-1.0391 3.2305-1.9609-2.9805 0.01172-7.5742 4.9531-8.6953 7.625-0.35156 0.83984-0.5625 2.1406-0.86719 3.1562-0.42578 1.418-0.29297 2.2266 0.74219 3.1875 1.0352 0.95703 4.0508 3.0742 5.2539 2.4492z"/><path d="m43.145 24.145c0.96484-0.39844 0.10938-0.76562 2.082-3.043 1.5391-1.7734 4.2422-2.9922 6.4844-3.7773 2.0117-0.69922 2.2461-0.71484 4.1289 0.10156l0.14062-0.86719c1.1289 0.02344 1.3984 0.41797 2.5117-0.21094-0.82813-1.0273-1.2891-0.27344-2.2617-0.39062-0.83594-0.10156 0.10547-0.30078-1.0703 0.14453-0.70312 0.26563-0.64844 0.35547-1.332 0.02344l0.90234-1.0273c-1.6172-0.58203-0.8125 0.94141-3.1016 1.7344-2.8281 0.97656-9.3242 4.4141-8.4883 7.3125z"/><path d="m54.516 29.484c0.0039-0.33594 0.52734-0.59766 0.36719-0.05469-0.15625 0.54687-0.36719 0.05469-0.36719 0.05469zm-4.3945-0.59766c-0.07813 1.1133 1.3477 1.3789 3.0547 1.8984l-0.40625-0.96484c0.82031-0.07812 1.8984 0.35156 3.2422 0.25781-0.06641-0.96484-0.19922-0.43359-0.55078-1.1797 2.3828-1.3047 0.65625-0.45313 2.625-0.32031l-0.33594-1.0938 0.94531 0.22266-0.04687-1.168 1.0703 0.18359-0.3125-1.7773c-0.82031 0.53516-0.89453 1.2031-1.5625 1.8633-0.98047 0.96484-3.3594 2.0625-4.7539 2.3828-1.6836 0.39062-1.9844-0.27344-2.9688-0.30469z"/><path d="m65.629 21.012-0.39453 0.54688c-0.86719-0.3125-0.34766 0.10547-0.76953-0.63672zm0 0-0.22656-0.58203c-1.4805-0.03906-0.99609-0.125-1.9922 0.58203-0.55469 0.39062-1.3555 0.41016-2.1094 0.57812-0.47656 0.10547-3.8516 1.2188-2.7305 2.1172 0.58594 0.21094 0.70703-0.5625 1.5742-1.0625 0.78516-0.45703 1.6445-0.66406 2.543-0.80469 2.8398-0.44141 2.7266 0.83594 4.082 2.043 0.62891-1.0781 1.3672-0.55859 0.89062-1.9102-0.82422-0.31641-0.78516-0.0078-1.7852-0.05469 0.75781-0.48828 0.73828 0.08594 0.78125-0.78516l-1.0195-0.12109z"/><path d="m50.711 68.461c0.51172 0.15625 3.4727-0.52734 4.332-0.80859 2.0547-0.67578 10.016-4.4961 10.367-6.2852-0.97656 0.01953-2.2695 1.4648-3.2383 2.0586-1.168 0.70703-2.3477 1.3867-3.5352 2.0469-4.1602 2.3086-5.8555 2.0938-7.9219 2.9883z"/><path d="m30.625 30.078c0.01563-1.2109-2.2266-4.4766 1.3711-6.3984 1.125-0.60156 1.8477-1.0898 3.0938-1.5703 1.2383-0.47656 3.2812-0.27344 3.7891-0.86328-1.7031-0.89453-5.8281 1.1406-7.3867 2.1562-3.6953 2.418-1.8516 6.1562-0.86719 6.6758z"/><path d="m40.734 80.707c1.3047 0.17969 2.8945-0.46484 4.5039-0.35156 1.5234 0.10938 3.1016 0.50391 4.6484 0.43359-0.63281 1.2148-0.64062 0.08984-0.91797 1.2578 0.89844 0.39844 1.2734-0.21094 1.3672-1.0742 1.2578 0.17578 1.2344 0.65234 1.2891-0.48438-0.59375-0.46875-3.6992-0.33984-5.4414-0.58594-1.2969-0.18359-4.5938-0.19531-5.4453 0.80859z"/><path d="m33.414 18.109c1.0977-0.39844 0.61328-0.73828 1.5312-1.2695 1.6602-0.96094 0.39453-0.19531 1.3633-1.543 0.79297 0.12109 0.0039 0.04687 0.74219 0.26172 0.55469-0.48438 2.2031-1.6016 2.0859-2.1211-0.14453-0.63672-0.03516 0.32031-0.07422-0.25391 1.082-0.64844 1.7969-0.57422 2.9727-0.80859-2.4531-1.8242-7.9258 4.043-8.6211 5.7305z"/><path d="m35.988 31.246 1.3711-0.82031c-1.1797-0.79297-1.5977 0.47656-2.9023 0.71094-0.76953 0.14062-0.47266-0.23438-1.1445 0.35156 2 1.082 9.3242-0.39062 10.145-2.7383-2.2422 1.2305-4.7148 2.5312-7.4648 2.4961z"/><path d="m32.242 89.617c0.58203 0.79687 7.3867 1.7969 8.3984 1.3359-0.61328-0.44141-3.2422-0.67188-4.207-0.82031-1.4648-0.22656-2.9844-1.2109-4.1914-0.51562z"/><path d="m28.684 85.379c1.1289-0.02344 2.6992-1.5938 3.8477-2.1484 0.99219-0.47656 3.832-1.5117 4.3711-1.8516-1.1289-0.78516-7.9727 2.8203-8.2148 4z"/><path d="m20.762 24.836c-1.0039 2.3672-1.1797 5.2812 0.88281 5.2227-2.6133-3.5234 0.36719-4.8242 0.75391-5.6719z"/><path d="m31.641 72.691c-0.0039-0.09766 0.15234-0.38281 0.25781 0.03125 0.11328 0.42578-0.25391 0.23438-0.25781-0.03125zm-1.3945 1.5352c1-0.21484 0.24219-0.23828 0.98438-0.5 0.52344-0.18359 2.2617 0.17188 1.3555-1.8398l-1.3125-0.16406c-0.42578 0.76953-0.80078 1.6367-1.0312 2.5039z"/><path d="m24.391 20.832c0.60156-0.47266 1.2656-1.8438 1.9258-2.6016 1.0586-1.2109 1.6719-1.0781 2.6289-1.8828-0.01562-0.01172-0.33594-0.78125-1.6133 0.22656-1.1445 0.89844-2.8906 2.6367-2.9375 4.2578z"/><path d="m54.691 53.066c2.5156-1.1562 2.0234 0.67578 1.3711 0.94141-1.6641 0.02734-0.04687-0.79687-1.3828-0.28516-0.40625 1.543 2.7148 1.2109 2.4688-1.0781-0.91797-0.85156-2.293-1.1406-2.4531 0.41797z"/><path d="m40.945 63.559c-0.15234-0.95703 0.12891-1.5078 1.1172-1.168 0.39844 1.0273-0.13281 1.3125-1.1172 1.168zm-0.85547-0.21875 0.32031 0.69141 1.3906 0.20312c0.80859-0.74219 1.2734-1.0703 0.87891-2.1875-1.3398-0.69141-2.1328 0.07813-2.5898 1.293z"/><path d="m88.824 47.66-4.2188 2.2773c1.1328 0.53125 4.1523-1.3242 4.9102-2.1875-0.53906-0.61328-0.65234-0.59375-1.5586-0.66406z"/><path d="m53.633 65.789c0.24609 1.9062 3.0977 0.97266 1.918-0.81641-1.1758-0.12891-0.10938-0.11719-0.92969 0.29297-0.64062 0.32031-0.40234 0.01563-0.98828 0.52344z"/><path d="m52.949 48.16 6.7461-2.8125c-0.29297-0.17969 0.27734-0.54688-1.7305 0.29688-0.58594 0.24219-1.1719 0.47266-1.7461 0.72656-1.0625 0.46484-2.918 0.82422-3.2695 1.793z"/><path d="m84.309 52.664c1.4336-0.09375 3.6094-0.97656 4.3398-2.2422-0.25391-0.6875-0.07031-0.58594-0.80859-0.8125l0.02344 0.96875z"/><path d="m47.281 86.934c0.86719 0.42578 0.59375 0.50781 1.5312 0.33203 0.46875-0.72266 0.39453-0.52344 0.35547-1.418-0.76172-0.46875-0.42188-0.43359-1.3398-0.40234l-0.54297 1.4883z"/><path d="m41.16 77.141c1.2344 0.125 1.5234-0.25781 1.4688-1.4922-0.625-0.46484-0.40625-0.42188-1.1914-0.39453-0.61328 0.69141-0.62109 1.0352-0.27734 1.8867z"/><path d="m31.227 89.508c-0.50781-0.51172-1.3047-0.98437-1.875-1.4688-0.76953-0.65234-1.0859-1.4297-1.8867-1.7773 0.18359 1.457 2.5586 3.4531 3.7617 3.2422z"/><path d="m60.535 80.434c0.16797 1.3164 0.15234 0.61328-0.08594 1.8867 1.4961-0.17578 1.0117-1.6875 1.4492-3.1758-1.1836 0.58594-0.10156 0.74219-1.3672 1.2891z"/><path d="m28.305 78.809 0.96484-0.34766-0.09375-1.5469c-1.5781-0.09766-1.9023 1.0352-0.87109 1.8906z"/><path d="m41.727 55.391 0.96094 0.28125c0.65234-0.59375 0.82422-0.72656 0.51953-1.5312l-1.2227-0.21875c-0.34375 0.83984-0.46094 0.58984-0.25781 1.4688z"/><path d="m33.793 86.992c0.59766 0.13281 0.71875-0.375 0.91797-0.9375 0.53125-1.5078 0.66797-0.3125 0.88672-1.4961-1.6016 0.31641-1.1406-0.14453-1.7539 1.5859-0.31641 0.89062-0.32812 0.36328-0.05078 0.84766z"/><path d="m44.801 35.723c0.29297 0.67578 3.2227 1.4453 3.8906 1.1133-0.5-0.48438-3.3086-1.4414-3.8906-1.1133z"/><path d="m82.219 39.508c0.77344 0.72266 3.5547-0.45312 4.0117-1.3984-0.99219 0.35547-0.81641 0.49219-2.0625 0.75391-0.64062 0.13281-1.4727 0.28516-1.9492 0.64453z"/><path d="m30.176 50.168c-1.1562 0.76562-0.22656-0.33984-1.4883 0.25391 0.54688 1.5273 2.3242 0.50781 1.9062-1.0195l-1.082-0.17578c0.38672 1.043 0.0625 0.11719 0.66406 0.94141z"/><path d="m37.688 30.699c0.53906-0.11719 0.77734-0.54297 1.2969-0.92188 1.0469-0.76172 1.1445-0.125 1.4297-0.95703-0.84766-0.5625-0.60547-0.04687-1.668 0.51172-0.67188 0.35547-1.1406 0.5625-1.0586 1.3711z"/><path d="m27.613 64.145c0.96094-0.125 1.4922-0.67969 1.4648-1.6797l-0.83984-0.24219c-0.31641 0.70312 0.09375 0.33984-0.19922 0.95703-0.375 0.80078-0.46875-0.31641-0.42578 0.96484z"/><path d="m73.891 76.477c0.84375 0.40625 2.0742-0.02344 2.7578-0.44531l-0.90625-0.15625c-1.9375 0.08203-1.7031-0.48047-1.8477 0.60156z"/><path d="m55.062 43.434c0.82812 0.06641 0.69141-0.1875 1.4766-0.35156 0.95703-0.19531 1.0859 0.13281 1.7539-0.49219-1.418-0.14844-2.3828-0.28125-3.2305 0.84375z"/><path d="m36.02 72.93c0.94922-0.54688 0.09766-0.58203 1.5547-1.0859-0.37891-0.63672 0.04297-0.27344-0.88281-0.60156-0.70312 0.55469-1.1484 0.86328-0.66797 1.6875z"/><path d="m35.641 67.688c0.97656-0.05078 1.3164-0.73828 0.83984-1.5117-0.99609-0.21484-1.0742 0.69531-0.83984 1.5117z"/><path d="m58.738 62.43c0.6875-0.30078 1.2539-1.207 0.89062-1.9688-0.91406 0.15234-1.1602 1.2266-0.89062 1.9688z"/><path d="m54.992 82.051c-0.20313-1.1367-1.2969-0.79688-2.5547-0.97266 0.50781 0.76172 1.6328 0.87109 2.5547 0.97266z"/><path d="m50.805 59.301-0.0625 1.0586c1.0703 0.08984 1.2891-0.33594 1.3477-1.2695z"/><path d="m58.59 80.727c0.14453 0.49609-0.0625 0.12109 0.23438 0.58203 0.48828 0.76172-0.10156 0.19141 0.68359 0.65234l0.16016-1.6641z"/><path d="m40.941 29.043c1 0.57422 1.1484 0.14453 1.4453-0.74219-0.85547 0.01563-1.2812-0.17969-1.4453 0.74219z"/><path d="m44.668 69.352c0.61328 0.25781 0.86328 0.15234 1.5781-0.01172-0.37891-0.8125-1.2852-1.0078-1.5781 0.01172z"/><path d="m42.16 46.266 1.6016 0.21875c-0.30078-0.64453-1.8203-1.6367-1.6016-0.21875z"/><path d="m42.266 48.418c0.66016 0.43359 0.85938 0.41016 1.5703 0-0.38672-0.64844-1.2148-0.76953-1.5703 0z"/><path d="m27.887 47.531c0.77344 0.25781 0.91406 0.15625 1.4844-0.23438l-1.3086-0.66016z"/><path d="m36.453 77.398-0.37891-1.4102-0.67969 0.08594c0.02734 0.65625 0.39453 1.1836 1.0625 1.3242z"/><path d="m43.379 68.016c-0.39844-0.63281-0.65625-0.77734-1.418-0.96094 0.20312 0.85547 0.53906 1.3711 1.418 0.96094z"/><path d="m52.191 88.152c0.81641 0.23047 0.86719 0.08984 1.2188-0.53906-0.68359-0.50781-1.1289-0.44922-1.2188 0.53906z"/><path d="m41.832 85.816c0.75781-0.10156 1.1875-0.42578 1.2461-1.2266-0.84766 0.26562-1.1289 0.33984-1.2461 1.2266z"/><path d="m55.797 47.969c0.4375 0.69141 0.44922 0.53125 1.375 0.46875-0.29297-0.86719-0.63672-0.96484-1.375-0.46875z"/><path d="m27.426 68.109c-0.0078-0.6875-0.44141-1.0859-1.1133-1.1133-0.01563 0.66016 0.4375 1.0977 1.1133 1.1133z"/><path d="m28.32 54.73c0.0625 0.74609 0.14453 0.79688 0.75781 1.0039l0.06641-1.2461-0.82422 0.24609z"/><path d="m28.848 71.355c0.44922 0.76953 0.82812 0.67188 1.4297 0.22266-0.73047-0.46484-0.73047-0.61719-1.4297-0.22266z"/><path d="m51.266 69.574c0.29688 0.76953 0.85547 0.64844 1.2344 0-0.57031-0.32031-0.67188-0.39453-1.2344 0z"/><path d="m56.066 29.535c0.72656 0.21875 0.44141 0.28125 1.1133-0.05078-0.32031-0.70312-0.91406-1.0039-1.1133 0.05078z"/><path d="m55.293 51.008c0.01953-0.73828-0.03125-0.625-0.82422-0.82031 0.08594 0.78516-0.05078 0.86719 0.82422 0.82031z"/><path d="m47.523 75.141c0.375 0.71094 0.52344 0.84766 1.0039 0-0.86719-0.52344-0.46484-0.32422-1.0039 0z"/><path d="m43.66 84.051c0.57812 0.23438 0.99219-0.10938 1.2578-0.62891-0.69531 0.03906-0.94531-0.0039-1.2578 0.62891z"/><path d="m40.473 59.277c0.4375-0.65234 0.36328-0.51172-0.22266-0.89453-0.35547 0.66797-0.53906 0.625 0.22266 0.89453z"/><path d="m66.852 38.113c0.76953-0.19141 0.73828-0.20312 1.0625-0.87109-0.67578 0.19531-0.83594 0.14062-1.0625 0.87109z"/><path d="m48.047 61c0.55078-0.67578 0.26562-0.36328 0.01563-0.83594-0.4375 0.30469-0.77734 0.31641-0.01563 0.83594z"/><path d="m33.278 62.665c-0.88999-1.4635-0.88566-3.9571 0.01692-9.7566 0.61237-3.9348 0.64738-4.813 0.40422-10.141-0.19447-4.2612-0.33823-4.8512-1.2064-4.9507-0.88719-0.10172-1.4875 0.29826-2.243 1.4945-0.76066 1.2044-1.3081 1.6597-1.5415 1.2819-0.07418-0.12002-0.11661-0.71295-0.09428-1.3176 0.03702-1.0026-0.0011-1.1322-0.43365-1.4724-0.61856-0.48656-0.66337-0.47936-1.4521 0.23319-1.339 1.2097-2.5861 4.385-2.8919 7.3634-0.42842 4.1717-0.52407 4.8371-0.78505 5.4617-0.56561 1.3537-0.91562 0.04533-0.55925-2.0905 0.44684-2.6782 0.48697-3.3856 0.25753-4.5399-0.17797-0.89536-0.17887-1.2783-0.0044-1.8728 0.51207-1.7449 0.88208-6.1256 0.62568-7.4076-0.09745-0.48724-0.18079-0.55975-0.5936-0.51645-0.66057 0.06929-1.428-0.46518-1.428-0.99453 0-0.36011-0.25604-0.54684-1.7012-1.2406-2.651-1.2727-3.2109-1.8089-3.1301-2.9974 0.0281-0.41291-0.03655-0.48926-0.41431-0.48926-0.24618 0-0.4476-0.10168-0.4476-0.22597 0-0.60703 0.81004-3.0509 1.4553-4.3905 0.60122-1.2482 1.0443-1.8332 2.6144-3.4513 1.6424-1.6927 2.0799-2.0379 3.3342-2.6308 1.4281-0.675 2.011-1.1175 1.7784-1.3501-0.06595-0.06595-0.43763-0.03511-0.82596 0.06853-0.38832 0.10365-0.70604 0.1563-0.70604 0.11701s0.15269-0.28837 0.3393-0.5535 0.86075-1.2965 1.4981-2.2919c1.3608-2.1255 2.4201-3.0505 4.8343-4.2219 2.0352-0.98751 3.5638-1.483 5.2484-1.7013 1.3708-0.17765 6.7606-0.25381 6.7606-0.095528 0 0.048615-0.4003 0.47423-0.88956 0.94581-1.0096 0.9731-1.1046 1.2787-0.39767 1.2787 0.34869 0 0.71551-0.23075 1.2601-0.79267 0.95512-0.98555 3.9168-2.481 5.5097-2.782 0.68284-0.12905 1.6601-0.16619 2.4908-0.094674 0.75188 0.064732 2.1897 0.18786 3.1951 0.27363 2.4369 0.20787 3.2556 0.62114 5.5477 2.8005 0.98271 0.9344 1.7868 1.7542 1.7868 1.8218 0 0.06761-0.36826 0.22141-0.81835 0.34179-0.85662 0.22911-1.8503 1.0515-1.8503 1.5314 0 0.20895 0.18259 0.28055 0.71546 0.28055 0.5817 0 0.75168-0.07948 0.90918-0.42516 0.26044-0.57161 0.83227-0.80365 2.494-1.012 1.333-0.16714 1.4715-0.14951 3.0423 0.38733 2.3276 0.79549 2.7933 1.1711 5.3258 4.2947l1.4047 1.7327-1.0544-0.11021c-1.4615-0.15275-2.57 0.04556-3.1238 0.55881-1.0294 0.95398-0.33322 1.2801 1.1395 0.53387 0.48275-0.24463 1.1806-0.444 1.5508-0.44304 1.4479 0.0038 3.4307 1.4073 3.4307 2.4286 0 0.74029-0.70434 3.2603-1.1658 4.1708-0.23801 0.46969-0.7804 1.2808-1.2053 1.8025-1.1568 1.4203-1.3147 1.735-1.418 2.8266-0.15642 1.6535-0.63774 2.3643-2.0995 3.1005-1.1576 0.58294-1.2935 0.71217-1.7313 1.6462-0.45241 0.96516-0.47632 1.1583-0.49978 4.0381-0.0162 1.987-0.11687 3.4212-0.2935 4.1809-0.14787 0.63603-0.32522 1.6768-0.39411 2.3129-0.11853 1.0943-0.17312 1.2018-1.0166 2.0015-0.49023 0.4648-0.97252 0.84508-1.0718 0.84508-0.29389 0-6e-3 -1.2981 0.85062-3.8365 1.1957-3.5427 1.0407-4.4855-0.76568-4.6591-1.0212-0.09812-0.97428 0.05401-0.57501-1.8654 0.13115-0.63045 0.10504-0.68523-0.5069-1.0634-0.90318-0.5582-1.7465-0.51758-2.5885 0.12467-0.55398 0.42254-0.9355 0.54722-1.9797 0.64696-1.6708 0.15959-1.9892 0.34771-2.4846 1.4679-0.61939 1.4005-0.84221 1.5152-1.6191 0.83309-0.90441-0.79409-1.5572-0.70651-2.3327 0.31298-1.049 1.379-1.1751 2.2038-1.0061 6.5855 0.21178 5.4939 0.12076 6.1604-0.88991 6.5159-0.44408 0.15618-0.55836 0.11914-0.91625-0.29693-0.69676-0.81003-0.71386-1.6411-0.08599-4.1782 0.54872-2.2173 0.56198-2.365 0.49997-5.5691-0.06987-3.6099-0.2491-4.3329-1.1289-4.5537-1.2253-0.30754-2.5202 0.42875-3.4486 1.9609-0.3514 0.57991-0.73204 1.0846-0.84586 1.1216-0.12085 0.03927-0.32733-0.34685-0.49628-0.92802-0.22842-0.78575-0.39085-1.0345-0.77156-1.1817-0.70841-0.27393-1.2527-0.0081-2.0923 1.0218-0.70001 0.85871-0.76421 0.89574-1.1666 0.67275-0.71043-0.39374-1.0092-0.2906-1.4701 0.50754-1.1749 2.0346-1.8178 5.7861-1.7149 10.008 0.04057 1.6635 0.07667 4.3855 0.08024 6.049 0.0062 2.9154-0.01075 3.0614-0.47103 4.0475-0.56544 1.2114-1.018 1.3454-1.556 0.4607zm15.47-25.778c0-0.34751-2.5712-1.2297-3.5971-1.2342-1.0607-0.0046-0.0099 0.77813 1.6401 1.2217 0.85994 0.23118 1.957 0.23818 1.957 0.01251zm-9.7476-5.3997c0.92638-0.23499 2.0878-0.6317 2.5809-0.88158 0.90724-0.45973 2.0073-1.4156 2.0073-1.7442 0-0.21253 0.14086-0.26827-1.9904 0.78758-1.6072 0.79622-4.0073 1.5627-4.8431 1.5467-0.32748-0.0063-0.31346-0.0388 0.11742-0.27255 0.61743-0.33496 0.62161-0.56989 0.01285-0.72268-0.34514-0.08663-0.70698 0.01003-1.3132 0.35082-0.46025 0.25872-1.1407 0.53353-1.512 0.61068-0.73484 0.15268-1.0014 0.49508-0.48882 0.62795 1.0044 0.26036 3.8307 0.10276 5.4292-0.30273zm-0.40754-1.1627c0.36282-0.28736 0.89473-0.62598 1.182-0.7525 0.83976-0.36981 1.0171-0.76368 0.42799-0.95064-0.41103-0.13046-2.1816 0.9465-2.4835 1.5106-0.45474 0.84969-0.06472 0.93567 0.87352 0.19257zm14.493 0.05795c-0.11359-0.45259-0.09885-0.46185 0.57482-0.36058 2.2583 0.33945 2.3816 0.34176 2.3816 0.04469 0-0.1966 0.15885-0.28707 0.50408-0.28707 0.63803 0 0.77493-0.13846 0.55087-0.55713-0.21915-0.40948-0.80259-0.43387-1.0215-0.04272-0.11791 0.2107-0.19797 0.23173-0.29352 0.07712-0.07226-0.11693-0.10336-0.2315-0.0691-0.2546 0.83354-0.56213 1.07-0.64285 1.3867-0.47334 0.18828 0.10076 0.5057 0.1832 0.70539 0.1832 0.30676 0 0.34687-0.08101 0.25861-0.5223-0.093-0.46481-0.0631-0.51148 0.27132-0.42403 0.32535 0.08508 0.37577 0.02088 0.37577-0.47846 0-0.55128 0.0246-0.57181 0.55705-0.46531l0.55705 0.11141-0.11031-0.66738c-0.0607-0.36706-0.11119-0.80749-0.11227-0.97873-3e-3 -0.55217-0.50437-0.33203-1.0504 0.46166-0.76344 1.1096-1.6063 1.79-3.1182 2.5172-1.7861 0.85909-3.0602 1.1191-4.1092 0.83855-1.0624-0.28414-1.3314-0.27088-1.3314 0.06562 0 0.41897 0.74526 1.0028 1.717 1.3452 1.2806 0.45114 1.5165 0.42833 1.3756-0.133zm-31.705-0.82534c-0.98988-1.6207-0.88369-2.8055 0.3737-4.1696 0.39277-0.4261 0.66468-0.82417 0.60426-0.8846-0.06043-0.06043-0.46915-0.0093-0.90828 0.11367-0.72849 0.20396-0.82227 0.2957-1.0709 1.0475-0.81262 2.457-0.40625 4.4712 0.90207 4.4712h0.45236zm9.3976 0.53317c0-0.02477-0.16012-0.60496-0.35582-1.2893-0.85005-2.9725-0.2258-4.0904 3.2558-5.8303 1.3348-0.66707 2.0006-0.88545 3.1751-1.0415 1.5737-0.20904 2.1857-0.42122 2.0144-0.69842-0.198-0.32037-2.131-0.17751-3.3881 0.2504-1.4375 0.48932-3.222 1.3635-4.3176 2.115-1.5163 1.0401-2.2392 2.8491-1.8142 4.5399 0.25649 1.0202 0.83336 1.9992 1.1781 1.9992 0.1388 0 0.25236-0.02027 0.25236-0.04504zm11.337-0.88899c0.09464-0.12231 0.22202-0.36249 0.28307-0.53373 0.0938-0.26313 7.12e-4 -0.31135-0.60066-0.31135-0.7358 0-1.0157 0.27523-0.81405 0.8006 0.12407 0.32332 0.89251 0.35353 1.1316 0.04447zm1.9318-6.0689c0.80852-1.5063 1.6872-2.4671 3.1525-3.4472 1.4336-0.95882 3.8605-2.0448 5.596-2.504 1.0486-0.27746 1.1639-0.27616 2.0048 0.02248 0.92129 0.32722 1.2414 0.28715 1.2414-0.15537 0-0.19318 0.25216-0.25704 1.023-0.25909 0.56264-0.0015 1.1431-0.08319 1.2899-0.18153 0.22843-0.15305 0.20872-0.22763-0.13684-0.5178-0.32718-0.27475-0.59696-0.32274-1.4233-0.2532-0.56078 0.04719-1.3621 0.17239-1.7808 0.27821-0.92822 0.23461-1.1143 0.09672-0.60346-0.44708 0.5116-0.54458 0.48781-0.655-0.14113-0.655-0.38389 0-0.71052 0.19314-1.2009 0.71011-0.47946 0.50546-1.2007 0.93872-2.5026 1.5034-4.6668 2.024-7.5114 4.4564-7.5114 6.423 0 0.89714 0.32452 0.72817 0.99285-0.51694zm23.808-0.7107c-0.13854-0.4443-0.3914-0.64164-0.82706-0.64546-0.19183-0.0017-0.31135-0.13931-0.31135-0.35855 0-0.27494-0.1186-0.35582-0.52174-0.35582-0.3655 0-0.55557-0.10656-0.63468-0.35582-0.16035-0.50522-1.1497-0.47039-1.9437 0.06843-0.34384 0.23334-1.1806 0.54969-1.8595 0.703-2.5494 0.57574-4.1162 1.714-3.1852 2.3141 0.24891 0.16043 0.4147 0.09421 0.88956-0.35536 0.32099-0.3039 0.78008-0.65376 1.0202-0.77747 1.2548-0.6465 3.6356-0.90571 4.396-0.47863 0.2116 0.11885 0.72059 0.59843 1.1311 1.0657l0.74637 0.84966 0.6095-0.64626c0.45777-0.48538 0.5799-0.74118 0.4906-1.0276zm-42.417-2.7095c0.91278-1.346 1.8128-2.2133 2.8417-2.7382 0.75366-0.38449 0.90221-0.65685 0.4524-0.82946-0.5128-0.19678-1.1459 0.12317-2.2302 1.127-1.148 1.0629-2.1238 2.5367-2.1266 3.2121-0.0026 0.63711 0.2142 0.47967 1.0626-0.77147zm8.9523-2.1001c0.31303-0.33177 0.74845-0.69441 0.9676-0.80588 0.21915-0.11146 0.52544-0.44822 0.68065-0.74835 0.21846-0.42246 0.36787-0.52328 0.6616-0.44647 0.53519 0.13996 2.2489-1.1987 2.3812-1.86 0.11111-0.55555 0.53638-0.77897 2.0025-1.052 1.176-0.21902 1.2672-0.29316 0.64935-0.52805-0.8176-0.31085-1.4281-0.20756-2.7913 0.47229-1.0363 0.51681-1.7085 1.0522-3.1827 2.5352-1.9852 1.9971-2.7465 3.0365-2.224 3.0365 0.1573 0 0.54211-0.27145 0.85514-0.60322z" style="fill-opacity:.9171;fill:#fff"/></g><path d="m40.356 97.92c-6.0515-0.89188-9.6719-1.7831-11.672-2.873-1.9527-1.0643-5.9025-3.7194-6.5207-4.3832-0.51526-0.55324-0.52647-0.64101-0.68083-5.3329-0.08632-2.6237-0.31155-6.9001-0.50051-9.5029-0.20802-2.8656-0.38345-8.5915-0.44466-14.514-0.09211-8.9106-0.06169-10.155 0.34189-13.988 0.24364-2.3138 0.52414-4.4908 0.6233-4.8379 0.37326-1.3062 0.50399 1.2926 0.27288 5.425-0.12428 2.2222-0.1928 6.4068-0.15226 9.2987 0.04054 2.8922 0.13455 9.5653 0.20889 14.829 0.1525 10.797 0.38037 14.62 0.906 15.201 0.28273 0.3124 0.38958 0.32975 0.61886 0.10047 0.22928-0.22927 0.22559-0.69348-0.02135-2.6885-0.36517-2.95-0.65384-15.045-0.63235-26.496 0.01461-7.7835 0.01402-10.62-0.0034-16.722-0.0067-2.3476 0.36599-3.6923 1.2548-4.5274 0.57877-0.54372 0.57017-0.5588 0.60255 1.0567 0.0223 1.1125 0.05245 1.1712 0.78572 1.5298 1.0561 0.51646 1.6676 0.23379 2.5802-1.1928 0.72015-1.1258 1.6951-1.9951 1.9508-1.7394 0.14441 0.14441 0.48458 6.3863 0.51205 9.3955 0.0118 1.2921-0.2078 3.4105-0.6214 5.9948-0.3518 2.198-0.70238 4.757-0.77909 5.6866-0.17894 2.1687 0.18366 4.5479 0.8722 5.7227 0.48934 0.83495 0.58659 0.89574 1.4342 0.89574 1.1684 0 1.8683-0.5444 2.3693-1.8428 0.33659-0.87236 0.37264-1.4697 0.28859-4.7831-0.26103-10.29-0.08756-12.944 1.0423-15.945 0.45573-1.2103 0.46405-1.2181 0.95874-0.89394 0.75865 0.49708 0.96194 0.42028 2.1966-0.82987 0.62838-0.63629 1.2125-1.1569 1.298-1.1569 0.08548 0 0.21529 0.35495 0.28848 0.78878 0.25442 1.5081 0.26803 1.525 1.2307 1.525 0.96728 0 1.4751-0.38471 2.0825-1.5775 0.3958-0.77726 1.3596-1.6935 1.9774-1.8799 0.35406-0.10683 0.5468-0.0092 0.82757 0.41926 0.30336 0.46298 0.37637 1.1574 0.42682 4.0596 0.05785 3.328 0.03288 3.5842-0.50521 5.1838-0.81163 2.4127-0.79325 4.1047 0.05955 5.4841 0.73773 1.1933 1.0645 1.3113 2.3114 0.83512 1.5657-0.59797 1.6915-0.97466 1.583-4.7416-0.20347-7.0649-0.15618-8.4513 0.31575-9.2544 0.23771-0.40465 0.66132-0.84996 0.94135-0.98959 0.46263-0.23065 0.56386-0.18745 1.1081 0.4728 1.0002 1.2134 1.8129 0.86235 2.9533-1.2757l0.671-1.258 1.0259 0.054c0.84455 0.04445 1.2632-0.07866 2.3678-0.69638 1.8929-1.0586 2.6602-0.72796 2.0926 0.90165-0.4352 1.2496 0.0094 1.9494 1.2386 1.9494 0.36069 0 0.83028 0.12758 1.0435 0.2835 0.52912 0.3869 0.34674 1.4179-0.76032 4.298-1.1104 2.8889-1.2071 4.37-0.34151 5.2362 1.1054 1.1063 2.9736 0.56681 3.2175-0.92921 0.25851-1.5858 0.4927-1.6974 0.50762-0.24172l0.01424 1.39-1.1043 0.73087c-2.5085 1.6601-9.1822 5.0875-11.985 6.1553-1.0273 0.39132-1.1507 0.74573-0.25956 0.74573 1.006 0 3.4307-1.1127 7.5647-3.4714 2.3138-1.3201 4.5618-2.5475 4.9956-2.7276l0.78878-0.3273 0.04149 1.2123c0.05876 1.717-0.04034 3.0257-0.26022 3.4365-0.2033 0.37987-4.875 3.063-8.3003 4.7671-3.1655 1.5749-4.721 2.1458-8.4135 3.0879-1.851 0.47224-3.3655 0.95325-3.3655 1.069 0 0.11575 0.50935 0.23938 1.1319 0.27488 2.3446 0.13368 6.6702-1.5382 14.697-5.6801 3.8714-1.9978 4.4698-2.2496 4.4698-1.8802 0 0.23451 0.10385 1.6384 0.23077 3.1197 0.17552 2.0484 0.1682 3.3229-0.03054 5.3226l-0.26131 2.6293-1.8099 1.1491c-3.9616 2.515-6.1807 3.7793-7.2302 4.1192-0.60517 0.196-1.7156 0.61867-2.4675 0.93922-0.79355 0.33832-2.1615 0.68762-3.2603 0.83249-2.245 0.29597-2.6293 0.39122-2.6293 0.65171 0 0.28796 1.6011 0.23345 3.05-0.10383 1.0747-0.25017 3.5259-0.58622 4.2016-0.57602 0.1128 0.0017 0.23478 0.09217 0.27106 0.20104 0.03629 0.10886-0.31629 0.25906-0.78352 0.33378-0.9425 0.15072-0.99705 0.24732-0.52206 0.92544 0.74982 1.0706 2.1967 0.16373 2.1967-1.3767 0-0.82527 0.04769-0.89164 0.91617-1.2758 0.50391-0.2229 1.5688-0.79921 2.3664-1.2807 0.79758-0.48148 1.9707-1.0185 2.6071-1.1934 1.8372-0.505 2.1035-0.65737 2.1035-1.2037 0-0.32559 0.18108-0.57911 0.52585-0.7362l0.52586-0.23959v5.796l-0.78878 0.28043c-0.43383 0.15423-2.3979 1.032-4.3646 1.9505-2.6452 1.2354-3.7229 1.6409-4.1411 1.5576-0.4429-0.08812-0.71616 0.03741-1.262 0.57988-0.40067 0.39813-1.3314 0.9338-2.1902 1.2606-0.82142 0.31248-1.6731 0.69955-1.8927 0.86014-1.582 1.1568 2.8196-0.23654 7.2776-2.3037 4.1441-1.9216 6.5273-2.9616 7.1283-3.1108l0.50249-0.12469-0.11052 2.2492c-0.17976 3.6583-0.67496 4.4022-4.3105 6.4762l-1.879 1.0719-0.92831-0.3765c-0.51056-0.20707-1.0466-0.38179-1.1912-0.38826-0.47957-0.02141-0.27232 0.42315 0.36677 0.78682 0.34634 0.19707 0.63029 0.41888 0.63103 0.49291 6.31e-4 0.074-0.42872 0.33673-0.95431 0.58379-0.94824 0.44573-1.0857 0.85915-0.28561 0.85915 0.54738 0 1.4306-0.46158 5.0036-2.615l2.9709-1.7905-0.11621 1.0984c-0.12735 1.2038 0.0698 1.7087 0.58931 1.5094 0.4699-0.18031 0.78666-1.2144 0.78666-2.5681 0-0.95801 0.0827-1.2129 0.5-1.5411 0.62362-0.49054 0.91182-1.3526 0.37861-1.1324-1.0586 0.43707-1.042 0.46661-0.75344-1.3469 0.20087-1.2624 0.22432-2.8398 0.09323-6.2703l-0.17516-4.5836 0.60941-0.69407c0.70095-0.79834 0.78435-1.3104 0.21343-1.3104-0.37716 0-0.40227-0.3325-0.52822-6.9939-0.16646-8.804-0.16818-8.7244 0.20389-9.4439 0.27478-0.53136 0.27358-0.67156-0.01049-1.2208-0.1765-0.34132-0.32091-1.111-0.32091-1.7105 0-0.9731 0.07888-1.1643 0.7362-1.7843 0.73184-0.69022 0.92289-1.2134 0.53146-1.4553-0.1126-0.06959-0.37027 0.0668-0.5726 0.3031-0.5577 0.65135-0.76245 0.51913-0.63759-0.41173 0.09746-0.72662 0.05821-0.84135-0.28782-0.84135-0.71188 0-0.42802-0.40165 0.75622-1.07 1.5697-0.8859 1.5476-1.2971-0.04528-0.84029-0.67051 0.1923-0.67298 0.19018-0.55106-0.47327 0.12954-0.70492 0.2818-0.87203 1.3168-1.4455 0.35573-0.19707 0.64678-0.45737 0.64678-0.57844 0-0.3341-0.79042-0.26321-1.3812 0.12388-0.28876 0.1892-0.58922 0.27981-0.66768 0.20136-0.28378-0.28378-0.13896-3.1995 0.2171-4.3712 0.33443-1.1005 0.81074-1.8581 1.1632-1.8501 0.0785 0.0018 0.27874 0.08928 0.44497 0.19446 0.46325 0.29313 0.61117 4.8874 0.6288 19.53 0.02545 21.144-0.52076 36.064-1.3827 37.771-0.18355 0.36345-0.53563 0.8836-0.7824 1.1559-0.54274 0.59881-4.8411 3.1731-6.7233 4.0264-2.0196 0.91576-9.1231 2.8765-12.18 3.3618-3.1838 0.50555-4.6794 0.50758-8.0491 0.01099zm5.9948-3.4161c0.52059-0.11693 1.8458-0.23426 2.9448-0.26072 1.6793-0.04044 2.3843-0.17725 4.4172-0.85727 2.4077-0.80537 9.7015-4.3589 9.868-4.8074 0.04801-0.12948 0.35564-0.48635 0.68361-0.79307 0.32798-0.30671 0.59631-0.62638 0.59631-0.71037 0-0.08399-0.48671-0.10594-1.0816-0.04881-0.73804 0.07088-1.6902 0.42192-2.9974 1.105-1.5868 0.82921-5.6717 2.5428-7.1218 2.9876-0.35905 0.11012-0.5244 0.48814-0.21035 0.48087 0.90567-0.021 3.3972-0.81002 5.6006-1.7737 1.4896-0.6515 2.7512-1.1417 2.8035-1.0893 0.22021 0.22021-2.0594 1.3139-4.5347 2.1756-1.463 0.5093-3.0652 1.1628-3.5605 1.4523-0.49524 0.28946-1.5364 0.65828-2.3138 0.81962-1.3028 0.27039-7.1227 0.72978-9.2741 0.73206-0.79471 8.2e-4 -0.88401 0.04397-0.65716 0.31734 0.59052 0.71153 2.4183 0.81369 4.8372 0.27037zm-7.48-0.77621c0.12994-0.21024-1.1162-0.53296-3.3526-0.86826-0.80982-0.12141-2.1706-0.41465-3.0239-0.65165-2.2869-0.63514-4.0035-0.22187-2.1533 0.5184 1.9926 0.79731 8.2051 1.5268 8.53 1.0015zm-11.024-2.2935c-0.51736-0.42758-1.4321-1.2743-2.0327-1.8817-0.96047-0.9713-1.5491-1.3478-1.5491-0.99074 0 0.34112 0.88475 1.7507 1.4006 2.2314 0.88885 0.82831 2.0019 1.441 2.596 1.4291 0.48934-0.0098 0.46054-0.06456-0.41481-0.788zm24.908-1.0348c0.19452-0.50691-0.44349-0.95251-0.96457-0.67362-0.21539 0.11528-0.39163 0.39557-0.39163 0.62288 0 0.54696 1.1492 0.58996 1.3562 0.0507zm-4.8419-0.80936c0.39117-0.39117 0.43551-1.3734 0.07813-1.7308-0.13883-0.13883-0.50309-0.25241-0.80946-0.25241-0.45853 0-0.6181 0.15542-0.90222 0.87868-0.18984 0.48328-0.32251 0.89525-0.29483 0.91551 0.78472 0.57432 1.4754 0.64202 1.9284 0.18902zm-15.409-1.1421c0.60098-0.96621 0.99837-1.7512 0.92823-1.8338-0.02151-0.02535-0.37972 0.0092-0.79602 0.0767-0.69298 0.11246-0.79331 0.22165-1.1879 1.2927-0.23703 0.64345-0.37956 1.2531-0.31674 1.3547 0.23959 0.38767 0.80594 0.02018 1.3724-0.89041zm8.7466-0.68229c0.14461-0.11569 0.26293-0.42654 0.26293-0.69077 0-0.37926-0.08993-0.45689-0.42712-0.36871-0.46693 0.12211-1.0453 0.82872-1.0453 1.2771 0 0.30417 0.71895 0.17479 1.2094-0.21765zm-14.188-0.50158c0.37024-0.1885 1.1138-0.66326 1.6524-1.0551 0.53858-0.39177 2.0961-1.1711 3.4611-1.7319 2.4729-1.016 3.1456-1.4978 2.0912-1.4978-1.8388 0-8.1068 3.2265-8.4791 4.3646-0.11945 0.36538 0.47263 0.3283 1.2742-0.07982zm16.24-1.3413c0.21003-0.23208 0.32528-0.47858 0.25609-0.54776-0.22627-0.22628-1.3073 0.25974-1.377 0.61907-0.09669 0.49854 0.64807 0.45116 1.1209-0.07129zm18.328-2.3334c0.13191-0.27772 0.3053-1.0567 0.38531-1.731 0.14186-1.1957 0.1346-1.2203-0.29243-0.99172-0.24084 0.12889-0.43789 0.3683-0.43789 0.53201 0 0.16372-0.15621 0.38508-0.34714 0.49193-0.24607 0.13771-0.36221 0.53449-0.3989 1.3628-0.04938 1.1148-0.03096 1.161 0.39972 1.0048 0.24831-0.09011 0.55941-0.39105 0.69133-0.66878zm-12.509 0.30382c0.21157-0.19146 0.38466-0.48148 0.38466-0.64448 0-0.20768 0.20456-0.2766 0.68362-0.23033 0.60473 0.05841 0.68361 0.0057 0.68361-0.45399 0-0.45091-0.12582-0.54264-0.94652-0.69012-0.5206-0.09354-2.9343-0.19082-5.3637-0.21616-4.078-0.04258-4.4737-0.01378-5.1534 0.37408l-0.7362 0.42017 0.73285 0.07014c0.40306 0.03856 1.4442-0.03224 2.3138-0.15729 1.2372-0.17795 2.1527-0.15917 4.2102 0.08634 1.4461 0.17256 2.6708 0.31456 2.7215 0.31557 0.05074 8.21e-4 -0.11491 0.19482-0.3681 0.43071-0.47932 0.44655-0.55717 0.66624-0.32012 0.90329 0.2446 0.2446 0.76013 0.15205 1.1578-0.20788zm5.4329-0.15199c0-0.48551-0.46758-0.71433-1.7879-0.8749l-1.262-0.15351 0.40358 0.45193c0.64595 0.72335 2.6464 1.1592 2.6464 0.5765zm5.1967-1.7353c-0.17119-0.17119-1.4105 0.3979-1.4105 0.64769 0 0.14532 0.25666 0.53834 0.57036 0.87334l0.57036 0.60916 0.17506-1.0249c0.09628-0.56374 0.13893-1.0611 0.09478-1.1053zm-33.24-1.8341c0.03774-0.03774 0.01019-0.49484-0.06122-1.0158-0.12127-0.88483-0.16633-0.94061-0.6843-0.8475-0.78888 0.14177-1.0803 0.43275-1.0803 1.0786 0 0.78028 0.39904 1.121 1.1415 0.97466 0.33863-0.06678 0.64657-0.15222 0.6843-0.18995zm7.7367-1.8727c-0.19494-0.90895-0.26182-0.9991-0.74059-0.9991-0.58172 0-0.54086 0.93495 0.05921 1.3553 0.6916 0.48441 0.84455 0.40447 0.68138-0.35617zm6.5136 0.14273c0.1818-0.1818 0.33054-0.65327 0.33054-1.0478 0-0.58938-0.09361-0.74066-0.52539-0.84906-1.0737-0.26948-1.7912 0.58754-1.3854 1.6548 0.25111 0.66047 1.0409 0.78138 1.5802 0.24195zm6.6541-1.6838c0.22804-0.27477 0.22345-0.36427-0.02683-0.52263-0.63112-0.39935-1.1976-0.07496-0.95825 0.54873 0.15421 0.40187 0.6406 0.38898 0.98508-0.02609zm-19.154-1.5615c0-0.11569 0.11832-0.21087 0.26293-0.21152 0.14461-6.31e-4 0.61788-0.09975 1.0517-0.22023 0.67747-0.18814 0.78878-0.30428 0.78878-0.82298 0-1.05-0.18735-1.2694-1.0839-1.2694-0.794 0-0.84996 0.04604-1.3427 1.1043-0.62559 1.3437-0.64273 1.6301-0.09755 1.6301 0.23138 0 0.42068-0.09465 0.42068-0.21035zm6.9904-2.1698c0.44588-0.1566 0.27949-0.70914-0.26565-0.88212-0.82462-0.26172-1.7122 0.84521-1.3774 1.7176 0.11729 0.30565 0.20569 0.28324 0.7063-0.17903 0.31473-0.29063 0.73628-0.58604 0.93676-0.65646zm-7.7322-0.34507c0.18006-0.29135-0.81915-0.88409-1.2267-0.72771-0.3525 0.13527-0.45682 0.53668-0.20492 0.78858 0.21319 0.21319 1.2906 0.16738 1.4316-0.06087zm24.068-1.8843c0.16147-0.10224 0.23542-0.33743 0.16436-0.52264-0.1421-0.37032-0.70962-0.43724-1.1806-0.1392-0.25027 0.15837-0.25487 0.24787-0.02683 0.52264 0.30916 0.37252 0.611 0.4128 1.0431 0.13921zm-6.7225-0.63622c0.45328-0.28683-0.09874-0.85415-0.8311-0.85415-0.57215 0-0.96399 0.46748-0.72122 0.86038 0.15206 0.24604 1.1601 0.24204 1.5524-0.0062zm8.3733-1.5001c3.4963-0.80116 10.753-4.6364 12.339-6.5208 1.0934-1.2994-0.04913-1.0728-1.9922 0.39506-1.9755 1.4923-7.6197 4.6682-8.2962 4.6682-0.05207 0 0.01315-0.23664 0.14493-0.52585 0.17924-0.39338 0.17924-0.65834 0-1.0517-0.30153-0.66178-0.67223-0.66207-1.7189-0.0012-0.70997 0.44818-0.8057 0.5936-0.65774 0.9991 0.09736 0.26684 0.46901 0.57329 0.84898 0.70006l0.67585 0.22547-0.8027 0.22784c-3.3111 0.93979-4.0378 1.19-3.936 1.355 0.13016 0.21061 0.86588 0.10854 3.3951-0.47103zm-28.763-0.12631c0-0.48493-0.61521-1.1208-1.0843-1.1208-0.53217 0-0.48638 0.34151 0.12821 0.95612 0.60091 0.60091 0.95612 0.66212 0.95612 0.16476zm17.304 0.2258c0.23282-0.23282-0.10228-0.72896-0.7017-1.0389-0.7533-0.38954-0.82634-0.38568-0.82634 0.04381 0 0.71812 1.0931 1.43 1.528 0.99508zm-7.4597-0.7577c0.13883-0.13883 0.25241-0.51744 0.25241-0.84135 0-0.51333-0.08051-0.58896-0.62702-0.58896-0.49324 0-0.65515 0.11209-0.75888 0.52538-0.07253 0.28896-0.0773 0.66758-0.01061 0.84135 0.14544 0.379 0.7927 0.41497 1.1441 0.06358zm-8.9303-3.7673c0.50147-0.22849 0.97966-0.98007 0.97966-1.5397 0-0.24118-0.58966-0.52825-1.1043-0.53762-0.08677-0.0017-0.15775 0.22218-0.15775 0.49723s-0.14198 0.61794-0.31552 0.76195c-0.34835 0.28911-0.43179 1.0517-0.11507 1.0517 0.11025 0 0.43109-0.1051 0.71301-0.23354zm15.478-0.32068c0.48363-0.61483 0.57168-1.5397 0.18354-1.9278-0.34743-0.34744-1.455-0.31691-1.9856 0.05472-0.65215 0.45679-1.0081 1.4436-0.71704 1.9875 0.37091 0.69306 1.94 0.62178 2.5191-0.11446zm18.51-1.8931c0.49381-0.62777 0.59224-1.7596 0.15304-1.7596-0.60185 0-1.2929 1.236-1.0749 1.9227 0.1693 0.53342 0.40703 0.49134 0.92191-0.16317zm-12.21-1.8752c-0.29453-0.29453-0.35224-0.29453-0.59668 0-0.22059 0.26579-0.22059 0.38634 0 0.65215 0.24444 0.29453 0.30215 0.29453 0.59668 0 0.29453-0.29453 0.29453-0.35761 0-0.65215zm3.98-0.13669c0.13883-0.13883 0.25241-0.47012 0.25241-0.7362 0-0.36243-0.11872-0.48298-0.47327-0.48057-0.65469 0.0044-0.91092 0.2166-1.0759 0.89074-0.12915 0.52772-0.08957 0.57844 0.4514 0.57844 0.32613 0 0.70655-0.11359 0.84537-0.25241zm-12.158-1.4203c0-0.5506-0.58071-0.70748-0.83815-0.22642-0.28647 0.53527-0.27364 0.59253 0.15455 0.68977 0.50311 0.11424 0.68361-0.0081 0.68361-0.46333zm-12.62-4.1118c0-0.7437-0.1144-0.84053-0.719-0.60852-0.39364 0.15106-0.43665 0.73597-0.0803 1.0923 0.47589 0.47589 0.7993 0.28015 0.7993-0.48378zm15.234 0.33286c0.56939-0.62917 0.35199-1.3345-0.48498-1.5736-0.59765-0.17069-0.75696-0.14024-0.9991 0.19094-0.4462 0.61022-0.35885 1.3505 0.18517 1.5691 0.70633 0.28391 0.8982 0.25637 1.2989-0.18644zm14.412-0.95751c0.54608-0.28238 1.0641-1.2197 1.0641-1.9254 0-0.38035-1.1004-0.92052-1.8752-0.92052-0.41161 0-0.71046 0.14274-0.85185 0.40686-0.38459 0.71862-0.26865 0.88385 0.51687 0.73644 1.0386-0.19484 1.4497-0.0048 1.1601 0.53631-0.24654 0.46067-0.96768 0.5757-1.1011 0.17562-0.12548-0.37643-0.7937-0.03137-0.7937 0.40986 0 0.86457 0.83405 1.1222 1.8807 0.58092zm-28.479-3.9933c0.32213-0.32213 0.5163-0.75721 0.5163-1.1569 0-0.59187-0.05599-0.64059-0.7362-0.64059-0.78736 0-0.92839 0.2097-0.423 0.6291 0.45027 0.3737 0.22662 0.57758-0.51428 0.46883-0.78578-0.11532-0.88409 0.39017-0.1728 0.88836 0.618 0.43287 0.7232 0.41794 1.33-0.18885zm27.402-0.16732c-0.0878-0.61826-1.0138-0.80773-1.0138-0.20744 0 0.5057 0.17502 0.68071 0.68071 0.68071 0.29477 0 0.38255-0.12474 0.33305-0.47327zm-12.815-2.2432c0.47644-0.30168 0.10217-0.8594-0.57674-0.8594-0.80772 0-1.2599 0.50835-0.72764 0.818 0.46727 0.27183 0.91781 0.28613 1.3044 0.04139zm14.69-0.18939c0.20108-0.12773 0.18653-0.2694-0.06451-0.62781-0.37982-0.54228-0.50422-0.5626-1.041-0.17011-0.34017 0.24873-0.35815 0.34361-0.11962 0.63103 0.30188 0.36374 0.80689 0.43254 1.2251 0.16688zm-0.8731-1.7341c3.7231-1.5537 4.1508-1.7875 3.6321-1.9866-0.37241-0.1429-6.358 2.2357-6.9311 2.7543-0.34965 0.31643-0.5337 0.71711-0.32941 0.71711 0.0386 0 1.6714-0.66818 3.6284-1.4848zm-29.577 0.65168c0.36005-0.2277 0.33246-0.26293-0.56191-0.71767-0.88688-0.45091-0.90444-0.44532-0.90444 0.28876 0 0.54895 0.07524 0.63061 0.57845 0.62781 0.31814-0.0018 0.71768-0.09128 0.88786-0.1989zm15.94-1.3209c-0.12371-0.37113-1.3667-1.0592-1.625-0.89943-0.35082 0.21682-0.24689 0.91125 0.15198 1.0154 0.78825 0.20599 1.5601 0.1452 1.473-0.116zm14.733-3.5118c1.5826-0.28038 1.5775-0.64446-0.0091-0.64446-1.2087 0-1.4773 0.07322-1.9877 0.54178l-0.59017 0.54178 0.84135-0.13944c0.46275-0.07669 1.2482-0.21154 1.7456-0.29965zm10.989-5.4872c0.22112-0.11834 0.50698-0.41126 0.63526-0.65093 0.21146-0.39511 0.18738-0.42212-0.25811-0.28945-0.48732 0.14512-1.0172 0.65843-1.0172 0.9854 0 0.22546 0.15502 0.21455 0.64004-0.04502z" style="fill-opacity:.9171;fill:#ffa500;stroke-width:.82035"/></svg>
