<svg width="16pt" height="16pt" version="1.1" viewBox="0 0 16 16" xmlns="http://www.w3.org/2000/svg"><g transform="matrix(1.0938,0,0,1.0938,-5.6045,-5.7883)" fill-rule="evenodd"><path d="m15.483 9.7688v8.4801c-2.2635 1.779-5.4744 1.4403-6.9399 0.05311-0.14005-3.0446-0.23015-8.3739-0.23015-8.3739z" style="fill:none;stroke-width:.4947;stroke:#000"/><path d="m8.2423 10.052-1.1153-0.9206c0.009933-0.97098 0.6832-1.6673 1.3986-1.9828l-0.12393-0.19474c0.69508-1.1952 1.8308-1.3867 3.0451-1.257l-0.30096 0.28326c1.2339-0.81786 2.1969-0.562 3.2398 0.33637l-0.4426 0.17704 0.58423-0.17704 0.9029 0.24785c0.07575 0.30171 0.24513 0.41808 0.478 0.60193l-0.63734 0.37178 0.4603-0.12393 0.56652 0.24785c0.14308 0.51964-0.26616 1.0904-0.51341 1.3986-0.02107 0.3246-0.14989 0.47675-0.35408 0.70815-0.51043 0.22748-0.39498 0.9355-0.35408 1.3101l-0.24785 1.133c-0.26185 0.12904-0.26366 0.10931-0.40719-0.12393 0.09931-0.59717 0.67904-1.2487-0.12393-1.2924 0.08314-0.29264 0.21022-0.38567-0.07082-0.51341-0.24682 0.12549-0.49176 0.18074-0.76127 0.21244-0.23894 0.4156-0.22617 0.47114-0.63734 0.26556-0.46632 0.49651-0.25586 1.3516-0.23015 1.8943-0.18028 0.46028-0.44614 0.20519-0.56652-0.05311 0.19962-0.65537 0.17704-1.1678 0.17704-1.8058-0.14066-0.16048-0.19318-0.15664-0.38948-0.12393-0.28726 0.31856-0.40028 0.63136-0.60193 0.14163-0.21536 0.15269-0.34649 0.29894-0.60193 0.24785l-0.23015 0.63734-0.10622 0.70815 0.03542 0.84978 0.0177 0.77897c-0.0799 0.55322-0.39721 0.33371-0.58423 0.05311l0.053109-1.0445 0.15933-1.0445c-0.13111-0.43588 0.23213-1.2755-0.21245-1.5225-0.21842 0.25266-0.31055 0.45003-0.63734 0.42489-0.04441-0.17421 0.058863-0.35408-0.14163-0.4426-0.45243 0.68854-0.4828 1.3011-0.54882 2.0714-0.14542 0.1848-0.13927 0.16271-0.26556-0.0177 0.059212-0.41359 0.05127-0.8114 0-1.2216 0.14805-0.43271 0.15323-0.80248 0.08852-1.2393z" style="stroke-width:.10754;stroke:#000"/><path d="m15.501 10.017s3.1353-1.3424 3.2752 1.5933c0.23455 4.9231-3.2044 5.3289-3.2044 5.3289" style="fill:none;stroke-width:.33697;stroke:#000"/><path d="m15.501 10.884s1.9882-0.77274 2.2484 1.1153c0.39367 2.8563-2.2307 3.824-2.2307 3.824" style="fill:none;stroke-width:.45169;stroke:#000"/><path d="m16.019 9.8398c-0.09422 0.19097-0.24005 0.28537-0.31867 0.4426" style="fill:none;stroke-width:.10754;stroke:#000"/><path d="m16.727 9.769c-0.18429 0.14007-0.31087 0.36398-0.4603 0.51341" style="fill:none;stroke-width:.10754;stroke:#000"/><path d="m17.293 9.8044c-0.19565 0.25015-0.43976 0.40435-0.61964 0.58423" style="fill:none;stroke-width:.10754;stroke:#000"/><path d="m17.86 9.9106c-0.26401 0.08597-0.38988 0.33677-0.54882 0.49571" style="fill:none;stroke-width:.10754;stroke:#000"/><path d="m18.232 10.194c-0.20741 0.16529-0.51286 0.30024-0.67275 0.51341" style="fill:none;stroke-width:.10754;stroke:#000"/><path d="m18.515 10.548c-0.37229 0.04891-0.53724 0.28938-0.76127 0.51341" style="fill:none;stroke-width:.10754;stroke:#000"/><path d="m18.603 11.221c-0.23134 0.05117-0.54438 0.16522-0.67275 0.33637" style="fill:none;stroke-width:.10754;stroke:#000"/><path d="m18.763 11.699c-0.3273 0.01876-0.55132 0.12189-0.76126 0.24785" style="fill:none;stroke-width:.10754;stroke:#000"/><path d="m18.763 12.389c-0.23918 0.0273-0.53583 0.06549-0.70815 0.19474" style="fill:none;stroke-width:.10754;stroke:#000"/><path d="m18.692 13.115c-0.22253 0.01127-0.4503 0.08607-0.60193 0.17704" style="fill:none;stroke-width:.10754;stroke:#000"/><path d="m18.568 13.646c-0.25918 0.06939-0.54086 2e-3 -0.79667 0.05311" style="fill:none;stroke-width:.10754;stroke:#000"/><path d="m18.515 14.089c-0.24183 0.04014-0.41456 0.17939-0.56652 0.30097" style="fill:none;stroke-width:.10754;stroke:#000"/><path d="m18.267 14.655c-0.21785-0.0016-0.27083 0.06014-0.37178 0.19474" style="fill:none;stroke-width:.10754;stroke:#000"/><path d="m17.931 15.31c-0.17309 0.04748-0.316 0.15733-0.4603 0.26556" style="fill:none;stroke-width:.10754;stroke:#000"/></g></svg>
