<svg width="16pt" height="16pt" version="1.1" viewBox="0 0 16 16" xmlns="http://www.w3.org/2000/svg"><g transform="matrix(.17604 0 0 .17604 -1.1007 -.95156)" fill-rule="evenodd"><path d="m83.066 69.148c-0.23828 0.66406-0.15625 0.84375-0.89844 0.35547zm0.15234-1.3711-0.85156-0.51172 2.5547-1.0625-0.82422 1.6289zm-1.7578-4.8828c0.46484-1.8203 2.0312-2.5859 3.9648-1.9531-0.53516 0.80469-2.9688 1.6641-3.9648 1.9531zm1.3906-2.6797c0.39063-1.0898 0.44141-1.2891 1.5508-1.7383 1.0312-0.42187 1.5312-0.73437 2.2617-0.03516-0.61719 0.77344-2.7734 1.7188-3.8086 1.7734zm-13.594-18.906c4.0703-1.1992 8.7656-2.6094 11.695 1.3828 2.9531 4.0234 2.3086 7.3633 1.6992 12.234-0.36328 2.9258-0.21484 3.5273-1.6094 6.2227-0.83984 1.6367-1.7344 3.2539-3.0273 4.543-2.0195 2.0156-6.0859 5.6445-8.832 6.2969-0.26172-2.1914-0.08594-5.4766 0.13672-7.6602l-0.16797-15.238c-0.18359-2.5664 0.12891-5.2656 0.10156-7.7812zm-6.4219 7.9297c0.16406-0.6875-0.1875-0.13281 0.66016-0.73047 0.40625-0.28906 0.35938-0.28125 0.85156-0.50781-0.05859 1.0117-0.39453 1.8828-1.5117 1.2383zm-37.922-6.1367c0.74219 1.375-0.01953 7.9414 0.0039 10 0.01953 2.1758 0.33594 3.168 0.04297 5.3906-0.22266 1.6953 0.31641 3.7852 0.23047 5.25-0.07813 1.3125 0.0078 17.527 0.33984 19.25 0.1875 0.98828-0.04297 1.7148 0.68359 2.2266 0.65625-0.45703 0.37109 0.04297 0.14453-2.4414-0.08594-0.96875-0.29688-2.0273-0.33203-2.9883-0.13281-3.7891 0.05859-7.2578-0.16797-11.324-0.10938-1.957-0.19141-4.5117-0.13281-6.4531 0.12109-4.2188-0.32812-8.6328 0.20313-12.758 0.35937-2.7969-1.5117-8.9492 1.6211-10.879 0.34766 0.60938 0.02344 1.5508 0.02734 2.4883 3.0898 2.3555 2.4453-1.9922 4.875-2.3047 0.51562 0.95703 0.33594 5.0391 0.48047 6.5273 0.29688 3.043 0.13672 3.707-0.32812 6.6406-0.48438 3.0469-2.0859 9.957 0.54297 12.246 4.3711 0.89062 2.8477-7.7773 2.7695-10.195-0.125-3.9531-0.19531-7.9023 1.5781-11.598 1.1133 0.35547 0.20312 0.33984 1.1953 0.64062 1.4609-0.89453 1.4141-1.9258 2.7305-2.2148 0.19141 0.81641 0.17188 1.3477 0.33984 2.0547 2.9219 1.1445 2.043-2.8711 4.9492-3.1016 1.0312 0.95312 1.0156 2.0312 0.72656 3.3477-0.26953 1.2383 0.48828 1.6367 0.10547 4.1523-0.30859 2.0234-2.3828 4.5703 0.28125 7.418 3.7891 0.05859 2.8008-3.7383 2.6523-6.4883-0.10547-1.9219-1.0352-7.4375 1.8008-7.6328 0.78516 0.64844 0.21484 0.74609 1.3359 1.3086 1.8242-0.54687 1.1836-1.6445 2.4531-2.9961 1.4453-0.32031 1.1602 0.47266 2.6211-0.30859 0.94531-0.50781 1.5859-1.3945 2.5547-0.67578 0.53906 1.2461-0.94531 1.6875 0.08203 2.8086 1.0391 0.57422 0.92969-0.25781 2.1289 0.57422 0.55078 1.3867-1.6641 5.2539-1.8125 6.9609-0.11328 1.3008 0.90625 2.5742 2.3047 2.0938 1.8008-0.61719 0.625-2.1953 1.6836-3.0234l0.02734 2.8906c-1.9141 1.6914-10.246 5.7812-12.871 6.7188 2.1055 0.92188 10.234-5.2305 12.887-5.8633 0.26953 4.8008 0.16797 4.5078-1.832 5.5781-1.7305 0.92969-3.4141 2.0078-5.1602 2.8555-1.8945 0.91797-3.4297 1.6641-5.4023 2.3906-1.3516 0.5-5.8438 1.3555-6.3672 1.6797 2.9219 1.9375 17.43-6.8359 18.68-7.1055 0.20312 1.6289 0.32031 3.7539 0.44922 5.4297 0.09766 1.2734-0.375 3.6953-0.42187 5.2383-2.3633 1.3359-6.5547 4.5469-9.1328 5.1172-1.3945 0.30859-0.73828 0.40625-2.0117 0.86719-1.5625 0.57031-3.6328 0.45312-4.8555 0.875 0.94141 0.66016 3.2383-0.50391 5.4961-0.51562 0.71094-0.0039 0.18359 0.03516 0.77344-0.08203 0.50781-0.09766-0.12891-0.41406 0.66406-0.0625 0.30469 1.2461-0.60938 0.38281-1.4062 0.92188 0.21484 0.90625 0.91016 1.2148 1.625 0.5 0.8125-0.81641 0.42578-1.3398 0.48438-2.1641 3.332-1.1133 2.8125-2.0859 6.1328-2.7852 1.7109-0.35938 1.0938-0.61328 0.98047-1.2422l1.2656-0.63281 0.125 5.543c-0.96484 0.15625-5.4688 2.3672-6.8047 3.0117-1.6289 0.79297-0.86719 0.57812-2.4922 0.39453-0.43359 1.6562-3.3125 1.6328-4.5117 2.8164 2.2891-0.42188 4.9688-1.6836 7.125-2.6445 1.7891-0.79688 4.9297-2.5547 6.7773-2.8672 0.05859 6.7773-0.46094 6.0117-5.7852 9.1836-0.85547-0.28516-0.81641-0.49219-2.1797-0.79297 0.24609 0.65625 0.85938 0.61719 1.4609 1.0391-0.57031 0.54688-1.2344 0.89062-2.043 1.0781 0.66406 0.44531 0.29687 0.53516 2.2734-0.45703l5.7422-3.4336c0.04688 0.99219-0.59375 1.4609 0.05078 2.5586 1.1406-0.28125 0.84375-2.4688 0.93359-3.5273 0.79297-0.57422 0.73828-0.30078 1.0547-1.3047-0.65234 0.32031-0.30859 0.39453-1.25 0.44141 0.11719-1.2148 0.47656-2.0273 0.44531-3.3633-0.03516-1.3672 0.01562-6.1445-0.28516-7.3203-0.38672-1.5234 0.94922-1.0898 1.1406-2.4805-0.75391-0.32031-0.09766-0.05078-0.50391-0.03906-1.2891 0.03516 0.375 0.31641-0.375 0.03906 0.17578-2.5664 0.03516-5.4062 0.01953-8.0195-0.0039-0.73047 0.04687-1.2656 0.09375-1.918 0.05078-0.71875-0.92969-4.2148 0.37109-5.875-0.71094-0.84375-0.83984-1.8359-0.46484-3.0898 0.34766-1.1719 1.668-0.87109 1.0898-1.9414-0.79297 0.42578-0.30469 0.64062-1.3516 1.0078l0.27734-1.7734c-0.74219 0.15625-0.47266-0.16016-0.85547 0.61328-0.09766-1.9414 1.3984-1.4023 2.332-2.6172l-1.7539 0.41797 0.15625-1.5273c0.58203-0.28125 1.375-0.46875 1.7891-1.082-0.70703-0.49609-0.83984 0.26953-1.8242 0.68359-0.58203-1.5156-0.26172-3.8086 0.41797-5.3086 0.44531-0.98047 0.55078-0.79688 1.4609-0.66406 0.60156 1.2734 0.32813 16.102 0.48438 19.066 0.12891 2.3477-0.25391 25.852-0.62891 28.824-0.49609 3.918 0.28125 5.0586-3.1719 7.043-2.1641 1.2422-4.3203 2.6289-6.7656 3.2891-2.2461 0.60547-6.0664 1.8906-8.1328 2.0938-1.6211 0.16016-2.8125 0.57031-4.4922 0.5-2.8086-0.11719-10.344-1.3867-12.883-2.3438-1.7148-0.64453-4.7305-2.6562-6.2734-3.7656-1.3516-0.97266-1.8867-1.5117-1.7188-3.2422 0.16797-1.7539-0.49219-12.219-0.65625-14.18-0.25391-3.082-0.28516-6.8516-0.29688-9.9727l-0.07813-9.6797c0.57031-2.9453 0.46094-6.3516 1.2305-9.0039zm44.258-6.4922c-0.07422-1.4922 1.1133-1.4336 2.5703-1.9102-0.54688 1.1797-1.3633 1.5391-2.5703 1.9102zm14.043 31.176c-0.24609 1.3945-1.9766 0.84375-2.8125 2.2734l1.9023 0.21094c-0.75 0.97266-2.5898 0.67188-3.0938 1.543 1.2031 0.74219 0.79297-0.14844 2.1523-0.14062-1.0859 0.79688-0.80469 1.375-2.793 1.4414-1.2617 0.04297-2.3359-0.01563-3.2305 0.92188 0.42188 0.19141 1.1406-0.26953 1.7031-0.33984 0.73828-0.09375 1.707-0.12109 2.4688-0.16797-0.85938 2.0117-3.8555 3.7852-5.8516 4.8594-0.17969-0.27734-0.35938 0.08594 0.22266-0.54297-2.0547-0.12891-0.52734-0.15625-1.5781-0.64453l-0.54688 0.46094 0.39063 1.3477-3.2578 0.19922 0.22266-6.1602c2.8711-1.3672 5.7188-2.2188 8.4062-5.8359 0.21094-0.28516 3.3945-3.5391 3.5469-3.6055 0.46875-0.20312 0.99219-0.16016 1.457-0.28516l3.3906-1.9805c-0.39062-0.85547-0.43359-0.44141-0.97656-1.1836 1.1328-0.43359 2.457-1.0234 2.6133-2.3125l-1.9414-0.125 2.6445-2.3125c-0.95312-0.55469-0.98438 0.18359-2.1094 1.0547-0.71875 0.55859-1.3945 1.2109-2.3203 1.5352 0.04687-0.42578 0.09375-0.83203 0.17969-1.2539 0.30859-1.5156 0.34375-0.87109 3.0195-2.3008 0.97266-0.51953 2.3164-0.85547 1.4844-1.9102-0.55078 0.34766 0.04688 0.26172-0.88672 0.93359-0.35938 0.26172-0.91406 0.51562-1.3164 0.70703-0.86328 0.41016-1.7031 0.81641-2.5352 1.2617-0.02734 0.89062-0.08594 1.2891-0.55859 1.9414-0.10938-0.75781 0.15625-2.0703 0.26562-2.9453 0.25781-2.0508 0.49219-0.70703 0.97266-0.87109l-0.15625-0.87891c-1.3125-0.25391 0.37109-2.4648-0.84375-6.7227-0.50781-1.7734-1.3359-3.4102-2.8047-4.5234-5.0703-3.8281-8.2695-1.3477-11.367-1.1055-0.29297-4.4688-0.26562-2.3125 1.6836-3.9375 2.6211-2.1914 3.0977-2.4609 6.1602-2.957-0.94141 1.5898-3.25 2.2539-4.5156 3.4141 1.6094 0.80859 5.2383-4.2188 6.8047-3.1133-0.21875 1.332-2.9062 1.8438-3.1836 2.9727 1.6172 0.01953 3.3945-2.8359 4.9023-2.4688 0.625 0.14844 1.2305 0.67969 1.457 1.1523-0.31641 0.12891-3.1641 1.4492-3.1719 1.4531 0.50781 0.40234 0.21484 0.42969 1.2266 0.125 1.3438-0.40234 2.1914-1.4727 2.8203-1.7539 0.29297 0.5 0.23828 0.25781-0.38281 0.71875 1.4727 0.04297 1.0703-0.0625 1.5508 0.31641-1.1953 0.58203-3.4492 1.5664-3.9492 2.7227 1.7578-0.19531 3.0703-1.918 4.7734-2.4609 0.84766 0.52344 1.2461 1.3789 1.7031 2.332-0.60938 0.35156 0.02344-0.28516-0.78906 0.25391 0.85937 0.375 0.41797 0.08594 0.59375 0.60156l-2.793 1.5938c1.1172 0.54297 2.793-1.2109 3.7227-1.5898 0.62109 2.0195-1.6016 2.2812-3.0781 2.9414 0.16406 0.16016-0.35938 0.49609 1.0039 0.19141l2.7617-1.4727c0.27734 3.0547-1.3672 1.7344-3.0781 3.2852 0.30469 0.23437-0.13672 0.10156 0.44922 0.16797 0.36719 0.04297 0.10547 0.05078 0.52344-0.03516l2.582-1.3477c0.09375 1.3711 0.0039 0.83594-0.22656 1.332l-0.13281 0.64844c-0.92578 0.38281-3.6992 1.2188-4.2383 1.8242 1.3203 0.96094 3.3359-1.1992 4.7891-1.6719 1.2539 2.5391 0.20312 7.918-0.35156 10.758-0.69922 3.5898-1.6914 5.8242-3.4219 8.9688l-2.043-0.14062c0.77734-0.99219 1.7539-0.69141 2.3242-1.8594l-1.1875-0.15234-0.17188 0.51562c-0.28125 0.37891-0.05078 0.12109-0.45312 0.38672-0.30859 0.19922-0.80859 0.43359-1.1797 0.60938-0.71875 0.33594-1.9414 0.52734-2.3828 1.1367 0.62109 0.40625 1.3242-0.19141 3.875-0.28516-0.98047 1.2461-3.5195 0.99219-3.6523 2.4453l2.6055-0.17188zm6.7148-13.316c0.83594-5.2852 0.57812-5.168-0.05078-10.281-0.80469-6.5391-5.5742-11.004-11.527-11.602-1.6602-0.16797-7.8359 1.2109-9.043 2.1758-0.14844-1.9062 0.60938-1.1914 1.1016-2.75 0.36719-1.1719 0.0625-2.2266 0.60156-3.1484 0.25391-0.43359 1.3047-1.5156 1.8047-2.2188 0.76172-1.0742 0.78516-1.3125 1.1602-2.625 0.79297-2.7617 1.1328-3.5781-1.5859-5.0547-1.3828-0.75-4.9258-1.0352-5.3086 0.86328 1.2227 0.38672 2.0586-1.8672 4.8711-0.4375 2.0742 1.0547 1.9883 1.9219 1.4336 4.0469-0.45312 1.7383-0.86719 2.7812-2.0625 4.1641-2.3789 2.7656-0.70312 1.6875-1.7266 4.2852-0.79297 1.9961-2.3164 1.043-3.3633 2.8555-0.65234 1.125-0.89453 3.7148-0.64062 5.082 0.36719 1.9648-0.38281 3.2422-0.60156 5.2578-0.10547 0.97656-0.07031 1.7109-0.80078 2.3477-0.41016 0.35547-1.293 1.0938-1.707 1.3086-0.0039-3.9141 4.6172-9.2461-0.6875-8.7617l0.48828-2.5039c-2.8008-2.1875-2.7539 0.53516-4.7969 0.39453-3.2227-0.22266-2.1797 1.7773-3.6758 2.9141-0.92188-0.65625-1.793-2.2734-3.1328-0.18359-1.6484 2.5703-0.8125 5.2539-0.78906 7.1641 0.03906 3.2812 0.69141 5.8398-1.6289 5.9961-2.2773-2.1406 0.17578-5.3125 0.05078-7.832-0.17969-3.5898 0.73828-7.8164-2.3398-6.9297-2.4141 0.69141-1.8047 2.6992-3.2305 3.1641-0.55469-0.6875-0.17578-2.4922-1.7812-2.3281-0.98828 0.10156-1.3867 1.3711-2.0859 2.0664-0.64453-0.39453-0.55469-0.45313-1.3047-0.53906-1.7422 1.4414-2.4844 8.2266-2.3867 10.629 0.09766 2.4531 1.1992 10.273-1.1758 11.375-2.7773-0.96094-0.90234-9.9609-0.53906-12.32 0.47656-3.0703 0.47656-3.5469 0.125-6.6328-0.23438-2.0625 0.44922-5.0469-0.73828-6.5938-2.9414-0.28125-2.1562 2.8125-4.1758 2.9805-0.76563-1.5898 0.83203-2.543-1.1289-3.3008-1.5664 0.44531-3.1484 4.6172-3.4258 6.1367-0.57422 3.125-0.21875 6.8789-1.4727 8.0352-0.84766-1.0664-0.21875-2.8438-0.03906-4.1445 0.53516-3.8555-0.14453-2.6484-0.15234-4.4805-0.0039-0.86719 0.39062-1.168 0.53125-2.0156l0.46484-4.457c0.05078-0.75391-0.18359-1.2109-0.21875-2.0898-1.4102-0.1875-0.19922 0.55078-1.4922-0.30859-0.72266-0.48047-0.64453-0.60938-1.3906-0.22656 0.55078 0.82031 1.918 0.90625 2.2031 2.082 0.43359 1.7695-0.92578 6.2188-0.88672 7.2734 0.0625 1.5938 0.5 1.4297 0.28906 3.3086-0.13281 1.1836-0.51172 2.5312-0.59375 3.6445-0.19141 2.5352 1.1211 1.7539 1.5742 3.4336 0.30078 1.1211 0.20312 5.6758 0.21484 6.9922 0.07031 8.1836 0.67188 14.574 0.60156 23.145-0.0039 0.60156 0.01953 3.5742 0.11719 3.9375 0.17578 0.66797 1.5195 1.5117 2.0977 1.875 5.8945 3.6914 4.4219 3.2266 11.246 5.25 4.8711 1.4414 9.5234 1.793 14.504 0.42188 3.7969-1.0469 8.9375-2.1523 12.23-4.2578 4.9844-3.1836 5.0703-1.2305 4.957-11.301 11.09 0.42578 19.477-15.562 21.016-25.289z"/><path d="m23.359 16.355c0.15234-0.12891 2.1016-3.3477 2.7734-4.1016 1.9023-2.1367 6.4922-4.207 9.4297-4.3906 1.5664-0.097656 5.4141-0.40234 6.7188 0.00391-0.53516 0.71875-1.5586 1.1211-1.9414 2.1562 0.96875 0.44922 0.98438-0.41797 1.8359-1.1055 0.54297-0.4375 1.7031-1.0898 2.3555-1.4336 1.8867-0.98828 4.082-1.4375 6.2812-1.043 2.5703 0.46094 3.5117-0.28516 6.0547 1.3125 0.62109 0.38672 3.5859 3.2969 3.9023 3.7812-1.0977 0.21875-2.7305 0.51562-2.8203 1.8125 2.5469 0.41016-0.0625-0.94531 3.8516-1.3516 2.6953-0.27734 2.1172 0.09766 4.3164 0.74609 2.9258 0.86719 3.1602 4.2109 5.7422 4.9492-0.29297-1.2891-1.3633-1.4961-2.1094-2.3359-0.60938-0.68359-0.89062-1.9141-1.8828-2.5625-0.24219-0.16016-2.8672-1.0898-3.2852-1.1836-1.832-0.41797-2.5195 0.45312-3.8008-0.875-1.5039-1.5586-2.9219-3.2852-5.0117-4.1094-2.1445-0.84375-8.1719-1.3672-11.379 0.27344-2.1484 1.1016-1.4062 0.16016-3.4609 0.14844-5.5-0.035156-9.8359 0.66016-14.266 3.9531-1.0781 0.80078-3.9414 4.1055-3.3008 5.3516z"/><path d="m53.879 88.898c3.2734-0.18359 5.4375-2.0312 8.082-2.7539-0.44922 0.94531 0.24609 0.14453-0.76172 0.84375-1.0664 0.74219-3.9492 1.6836-5.2383 2.0703-1.4141 0.42578-1.1016 0.49609-2.0859 1.043-1.7734 0.98047-8.6758 1.1172-10.957 1.0742 1.0078 1.5352 4.5625 0.34766 6.1367 0.16016 2.2148-0.26172 0.44922 0.87891 5.9141-1.0391 3.0391-1.0664 4.6836-2.2227 7.5391-3.5938 1.1719-0.5625 0.41406-0.5625 1.3359-1.3516 0.14062-0.12109 0.22656-0.03516 0.58203-0.40625-1.1992-0.65234-3.9648 1.2383-5.2148 1.8164-1.7383 0.80469-3.7734 1.3594-5.3359 2.1406z"/><path d="m21.223 33.051c-1.3477-0.97266-5.6445-1.9258-4.7461-4.2305l-0.94922-0.14844c0.37109-2.6523 1.5625-5.6289 3.332-7.4297 0.89062-0.90625 1.6523-1.7734 2.7031-2.6484 1.082-0.90625 2.9766-1.0391 3.2305-1.9609-2.9805 0.01172-7.5742 4.9531-8.6953 7.625-0.35156 0.83984-0.5625 2.1406-0.86719 3.1562-0.42578 1.418-0.29297 2.2266 0.74219 3.1875 1.0352 0.95703 4.0508 3.0742 5.2539 2.4492z"/><path d="m43.145 24.145c0.96484-0.39844 0.10938-0.76562 2.082-3.043 1.5391-1.7734 4.2422-2.9922 6.4844-3.7773 2.0117-0.69922 2.2461-0.71484 4.1289 0.10156l0.14062-0.86719c1.1289 0.02344 1.3984 0.41797 2.5117-0.21094-0.82813-1.0273-1.2891-0.27344-2.2617-0.39062-0.83594-0.10156 0.10547-0.30078-1.0703 0.14453-0.70312 0.26563-0.64844 0.35547-1.332 0.02344l0.90234-1.0273c-1.6172-0.58203-0.8125 0.94141-3.1016 1.7344-2.8281 0.97656-9.3242 4.4141-8.4883 7.3125z"/><path d="m54.516 29.484c0.0039-0.33594 0.52734-0.59766 0.36719-0.05469-0.15625 0.54687-0.36719 0.05469-0.36719 0.05469zm-4.3945-0.59766c-0.07813 1.1133 1.3477 1.3789 3.0547 1.8984l-0.40625-0.96484c0.82031-0.07812 1.8984 0.35156 3.2422 0.25781-0.06641-0.96484-0.19922-0.43359-0.55078-1.1797 2.3828-1.3047 0.65625-0.45313 2.625-0.32031l-0.33594-1.0938 0.94531 0.22266-0.04687-1.168 1.0703 0.18359-0.3125-1.7773c-0.82031 0.53516-0.89453 1.2031-1.5625 1.8633-0.98047 0.96484-3.3594 2.0625-4.7539 2.3828-1.6836 0.39062-1.9844-0.27344-2.9688-0.30469z"/><path d="m65.629 21.012-0.39453 0.54688c-0.86719-0.3125-0.34766 0.10547-0.76953-0.63672zm0 0-0.22656-0.58203c-1.4805-0.03906-0.99609-0.125-1.9922 0.58203-0.55469 0.39062-1.3555 0.41016-2.1094 0.57812-0.47656 0.10547-3.8516 1.2188-2.7305 2.1172 0.58594 0.21094 0.70703-0.5625 1.5742-1.0625 0.78516-0.45703 1.6445-0.66406 2.543-0.80469 2.8398-0.44141 2.7266 0.83594 4.082 2.043 0.62891-1.0781 1.3672-0.55859 0.89062-1.9102-0.82422-0.31641-0.78516-0.0078-1.7852-0.05469 0.75781-0.48828 0.73828 0.08594 0.78125-0.78516l-1.0195-0.12109z"/><path d="m50.711 68.461c0.51172 0.15625 3.4727-0.52734 4.332-0.80859 2.0547-0.67578 10.016-4.4961 10.367-6.2852-0.97656 0.01953-2.2695 1.4648-3.2383 2.0586-1.168 0.70703-2.3477 1.3867-3.5352 2.0469-4.1602 2.3086-5.8555 2.0938-7.9219 2.9883z"/><path d="m30.625 30.078c0.01563-1.2109-2.2266-4.4766 1.3711-6.3984 1.125-0.60156 1.8477-1.0898 3.0938-1.5703 1.2383-0.47656 3.2812-0.27344 3.7891-0.86328-1.7031-0.89453-5.8281 1.1406-7.3867 2.1562-3.6953 2.418-1.8516 6.1562-0.86719 6.6758z"/><path d="m40.734 80.707c1.3047 0.17969 2.8945-0.46484 4.5039-0.35156 1.5234 0.10938 3.1016 0.50391 4.6484 0.43359-0.63281 1.2148-0.64062 0.08984-0.91797 1.2578 0.89844 0.39844 1.2734-0.21094 1.3672-1.0742 1.2578 0.17578 1.2344 0.65234 1.2891-0.48438-0.59375-0.46875-3.6992-0.33984-5.4414-0.58594-1.2969-0.18359-4.5938-0.19531-5.4453 0.80859z"/><path d="m33.414 18.109c1.0977-0.39844 0.61328-0.73828 1.5312-1.2695 1.6602-0.96094 0.39453-0.19531 1.3633-1.543 0.79297 0.12109 0.0039 0.04687 0.74219 0.26172 0.55469-0.48438 2.2031-1.6016 2.0859-2.1211-0.14453-0.63672-0.03516 0.32031-0.07422-0.25391 1.082-0.64844 1.7969-0.57422 2.9727-0.80859-2.4531-1.8242-7.9258 4.043-8.6211 5.7305z"/><path d="m35.988 31.246 1.3711-0.82031c-1.1797-0.79297-1.5977 0.47656-2.9023 0.71094-0.76953 0.14062-0.47266-0.23438-1.1445 0.35156 2 1.082 9.3242-0.39062 10.145-2.7383-2.2422 1.2305-4.7148 2.5312-7.4648 2.4961z"/><path d="m32.242 89.617c0.58203 0.79687 7.3867 1.7969 8.3984 1.3359-0.61328-0.44141-3.2422-0.67188-4.207-0.82031-1.4648-0.22656-2.9844-1.2109-4.1914-0.51562z"/><path d="m28.684 85.379c1.1289-0.02344 2.6992-1.5938 3.8477-2.1484 0.99219-0.47656 3.832-1.5117 4.3711-1.8516-1.1289-0.78516-7.9727 2.8203-8.2148 4z"/><path d="m20.762 24.836c-1.0039 2.3672-1.1797 5.2812 0.88281 5.2227-2.6133-3.5234 0.36719-4.8242 0.75391-5.6719z"/><path d="m31.641 72.691c-0.0039-0.09766 0.15234-0.38281 0.25781 0.03125 0.11328 0.42578-0.25391 0.23438-0.25781-0.03125zm-1.3945 1.5352c1-0.21484 0.24219-0.23828 0.98438-0.5 0.52344-0.18359 2.2617 0.17188 1.3555-1.8398l-1.3125-0.16406c-0.42578 0.76953-0.80078 1.6367-1.0312 2.5039z"/><path d="m24.391 20.832c0.60156-0.47266 1.2656-1.8438 1.9258-2.6016 1.0586-1.2109 1.6719-1.0781 2.6289-1.8828-0.01562-0.01172-0.33594-0.78125-1.6133 0.22656-1.1445 0.89844-2.8906 2.6367-2.9375 4.2578z"/><path d="m54.691 53.066c2.5156-1.1562 2.0234 0.67578 1.3711 0.94141-1.6641 0.02734-0.04687-0.79687-1.3828-0.28516-0.40625 1.543 2.7148 1.2109 2.4688-1.0781-0.91797-0.85156-2.293-1.1406-2.4531 0.41797z"/><path d="m40.945 63.559c-0.15234-0.95703 0.12891-1.5078 1.1172-1.168 0.39844 1.0273-0.13281 1.3125-1.1172 1.168zm-0.85547-0.21875 0.32031 0.69141 1.3906 0.20312c0.80859-0.74219 1.2734-1.0703 0.87891-2.1875-1.3398-0.69141-2.1328 0.07813-2.5898 1.293z"/><path d="m88.824 47.66-4.2188 2.2773c1.1328 0.53125 4.1523-1.3242 4.9102-2.1875-0.53906-0.61328-0.65234-0.59375-1.5586-0.66406z"/><path d="m53.633 65.789c0.24609 1.9062 3.0977 0.97266 1.918-0.81641-1.1758-0.12891-0.10938-0.11719-0.92969 0.29297-0.64062 0.32031-0.40234 0.01563-0.98828 0.52344z"/><path d="m52.949 48.16 6.7461-2.8125c-0.29297-0.17969 0.27734-0.54688-1.7305 0.29688-0.58594 0.24219-1.1719 0.47266-1.7461 0.72656-1.0625 0.46484-2.918 0.82422-3.2695 1.793z"/><path d="m84.309 52.664c1.4336-0.09375 3.6094-0.97656 4.3398-2.2422-0.25391-0.6875-0.07031-0.58594-0.80859-0.8125l0.02344 0.96875z"/><path d="m47.281 86.934c0.86719 0.42578 0.59375 0.50781 1.5312 0.33203 0.46875-0.72266 0.39453-0.52344 0.35547-1.418-0.76172-0.46875-0.42188-0.43359-1.3398-0.40234l-0.54297 1.4883z"/><path d="m41.16 77.141c1.2344 0.125 1.5234-0.25781 1.4688-1.4922-0.625-0.46484-0.40625-0.42188-1.1914-0.39453-0.61328 0.69141-0.62109 1.0352-0.27734 1.8867z"/><path d="m31.227 89.508c-0.50781-0.51172-1.3047-0.98437-1.875-1.4688-0.76953-0.65234-1.0859-1.4297-1.8867-1.7773 0.18359 1.457 2.5586 3.4531 3.7617 3.2422z"/><path d="m60.535 80.434c0.16797 1.3164 0.15234 0.61328-0.08594 1.8867 1.4961-0.17578 1.0117-1.6875 1.4492-3.1758-1.1836 0.58594-0.10156 0.74219-1.3672 1.2891z"/><path d="m28.305 78.809 0.96484-0.34766-0.09375-1.5469c-1.5781-0.09766-1.9023 1.0352-0.87109 1.8906z"/><path d="m41.727 55.391 0.96094 0.28125c0.65234-0.59375 0.82422-0.72656 0.51953-1.5312l-1.2227-0.21875c-0.34375 0.83984-0.46094 0.58984-0.25781 1.4688z"/><path d="m33.793 86.992c0.59766 0.13281 0.71875-0.375 0.91797-0.9375 0.53125-1.5078 0.66797-0.3125 0.88672-1.4961-1.6016 0.31641-1.1406-0.14453-1.7539 1.5859-0.31641 0.89062-0.32812 0.36328-0.05078 0.84766z"/><path d="m44.801 35.723c0.29297 0.67578 3.2227 1.4453 3.8906 1.1133-0.5-0.48438-3.3086-1.4414-3.8906-1.1133z"/><path d="m82.219 39.508c0.77344 0.72266 3.5547-0.45312 4.0117-1.3984-0.99219 0.35547-0.81641 0.49219-2.0625 0.75391-0.64062 0.13281-1.4727 0.28516-1.9492 0.64453z"/><path d="m30.176 50.168c-1.1562 0.76562-0.22656-0.33984-1.4883 0.25391 0.54688 1.5273 2.3242 0.50781 1.9062-1.0195l-1.082-0.17578c0.38672 1.043 0.0625 0.11719 0.66406 0.94141z"/><path d="m37.688 30.699c0.53906-0.11719 0.77734-0.54297 1.2969-0.92188 1.0469-0.76172 1.1445-0.125 1.4297-0.95703-0.84766-0.5625-0.60547-0.04687-1.668 0.51172-0.67188 0.35547-1.1406 0.5625-1.0586 1.3711z"/><path d="m27.613 64.145c0.96094-0.125 1.4922-0.67969 1.4648-1.6797l-0.83984-0.24219c-0.31641 0.70312 0.09375 0.33984-0.19922 0.95703-0.375 0.80078-0.46875-0.31641-0.42578 0.96484z"/><path d="m73.891 76.477c0.84375 0.40625 2.0742-0.02344 2.7578-0.44531l-0.90625-0.15625c-1.9375 0.08203-1.7031-0.48047-1.8477 0.60156z"/><path d="m55.062 43.434c0.82812 0.06641 0.69141-0.1875 1.4766-0.35156 0.95703-0.19531 1.0859 0.13281 1.7539-0.49219-1.418-0.14844-2.3828-0.28125-3.2305 0.84375z"/><path d="m36.02 72.93c0.94922-0.54688 0.09766-0.58203 1.5547-1.0859-0.37891-0.63672 0.04297-0.27344-0.88281-0.60156-0.70312 0.55469-1.1484 0.86328-0.66797 1.6875z"/><path d="m35.641 67.688c0.97656-0.05078 1.3164-0.73828 0.83984-1.5117-0.99609-0.21484-1.0742 0.69531-0.83984 1.5117z"/><path d="m58.738 62.43c0.6875-0.30078 1.2539-1.207 0.89062-1.9688-0.91406 0.15234-1.1602 1.2266-0.89062 1.9688z"/><path d="m54.992 82.051c-0.20313-1.1367-1.2969-0.79688-2.5547-0.97266 0.50781 0.76172 1.6328 0.87109 2.5547 0.97266z"/><path d="m50.805 59.301-0.0625 1.0586c1.0703 0.08984 1.2891-0.33594 1.3477-1.2695z"/><path d="m58.59 80.727c0.14453 0.49609-0.0625 0.12109 0.23438 0.58203 0.48828 0.76172-0.10156 0.19141 0.68359 0.65234l0.16016-1.6641z"/><path d="m40.941 29.043c1 0.57422 1.1484 0.14453 1.4453-0.74219-0.85547 0.01563-1.2812-0.17969-1.4453 0.74219z"/><path d="m44.668 69.352c0.61328 0.25781 0.86328 0.15234 1.5781-0.01172-0.37891-0.8125-1.2852-1.0078-1.5781 0.01172z"/><path d="m42.16 46.266 1.6016 0.21875c-0.30078-0.64453-1.8203-1.6367-1.6016-0.21875z"/><path d="m42.266 48.418c0.66016 0.43359 0.85938 0.41016 1.5703 0-0.38672-0.64844-1.2148-0.76953-1.5703 0z"/><path d="m27.887 47.531c0.77344 0.25781 0.91406 0.15625 1.4844-0.23438l-1.3086-0.66016z"/><path d="m36.453 77.398-0.37891-1.4102-0.67969 0.08594c0.02734 0.65625 0.39453 1.1836 1.0625 1.3242z"/><path d="m43.379 68.016c-0.39844-0.63281-0.65625-0.77734-1.418-0.96094 0.20312 0.85547 0.53906 1.3711 1.418 0.96094z"/><path d="m52.191 88.152c0.81641 0.23047 0.86719 0.08984 1.2188-0.53906-0.68359-0.50781-1.1289-0.44922-1.2188 0.53906z"/><path d="m41.832 85.816c0.75781-0.10156 1.1875-0.42578 1.2461-1.2266-0.84766 0.26562-1.1289 0.33984-1.2461 1.2266z"/><path d="m55.797 47.969c0.4375 0.69141 0.44922 0.53125 1.375 0.46875-0.29297-0.86719-0.63672-0.96484-1.375-0.46875z"/><path d="m27.426 68.109c-0.0078-0.6875-0.44141-1.0859-1.1133-1.1133-0.01563 0.66016 0.4375 1.0977 1.1133 1.1133z"/><path d="m28.32 54.73c0.0625 0.74609 0.14453 0.79688 0.75781 1.0039l0.06641-1.2461-0.82422 0.24609z"/><path d="m28.848 71.355c0.44922 0.76953 0.82812 0.67188 1.4297 0.22266-0.73047-0.46484-0.73047-0.61719-1.4297-0.22266z"/><path d="m51.266 69.574c0.29688 0.76953 0.85547 0.64844 1.2344 0-0.57031-0.32031-0.67188-0.39453-1.2344 0z"/><path d="m56.066 29.535c0.72656 0.21875 0.44141 0.28125 1.1133-0.05078-0.32031-0.70312-0.91406-1.0039-1.1133 0.05078z"/><path d="m55.293 51.008c0.01953-0.73828-0.03125-0.625-0.82422-0.82031 0.08594 0.78516-0.05078 0.86719 0.82422 0.82031z"/><path d="m47.523 75.141c0.375 0.71094 0.52344 0.84766 1.0039 0-0.86719-0.52344-0.46484-0.32422-1.0039 0z"/><path d="m43.66 84.051c0.57812 0.23438 0.99219-0.10938 1.2578-0.62891-0.69531 0.03906-0.94531-0.0039-1.2578 0.62891z"/><path d="m40.473 59.277c0.4375-0.65234 0.36328-0.51172-0.22266-0.89453-0.35547 0.66797-0.53906 0.625 0.22266 0.89453z"/><path d="m66.852 38.113c0.76953-0.19141 0.73828-0.20312 1.0625-0.87109-0.67578 0.19531-0.83594 0.14062-1.0625 0.87109z"/><path d="m48.047 61c0.55078-0.67578 0.26562-0.36328 0.01563-0.83594-0.4375 0.30469-0.77734 0.31641-0.01563 0.83594z"/></g></svg>
