<?xml version="1.0" encoding="UTF-8" standalone="no"?>
<svg
   width="100pt"
   height="100pt"
   viewBox="0 0 100 100"
   version="1.1"
   id="svg136"
   sodipodi:docname="png-icon-base.svg"
   inkscape:version="1.2.1 (9c6d41e, 2022-07-14)"
   inkscape:export-filename="pwa-512.png"
   inkscape:export-xdpi="368.64001"
   inkscape:export-ydpi="368.64001"
   xmlns:inkscape="http://www.inkscape.org/namespaces/inkscape"
   xmlns:sodipodi="http://sodipodi.sourceforge.net/DTD/sodipodi-0.dtd"
   xmlns="http://www.w3.org/2000/svg"
   xmlns:svg="http://www.w3.org/2000/svg">
  <defs
     id="defs140" />
  <sodipodi:namedview
     id="namedview138"
     pagecolor="#6f8664"
     bordercolor="#000000"
     borderopacity="0.25"
     inkscape:showpageshadow="2"
     inkscape:pageopacity="1"
     inkscape:pagecheckerboard="0"
     inkscape:deskcolor="#d1d1d1"
     inkscape:document-units="pt"
     showgrid="false"
     inkscape:zoom="5.5081212"
     inkscape:cx="42.391951"
     inkscape:cy="58.822235"
     inkscape:window-width="1780"
     inkscape:window-height="1152"
     inkscape:window-x="1894"
     inkscape:window-y="312"
     inkscape:window-maximized="0"
     inkscape:current-layer="svg136" />
  <g
     transform="matrix(0.97469991,0,0,0.97469991,0.67580512,0.28584224)"
     fill-rule="evenodd"
     id="g132">
    <path
       d="m 83.066,69.148 c -0.23828,0.66406 -0.15625,0.84375 -0.89844,0.35547 z m 0.15234,-1.3711 -0.85156,-0.51172 2.5547,-1.0625 -0.82422,1.6289 z m -1.7578,-4.8828 c 0.46484,-1.8203 2.0312,-2.5859 3.9648,-1.9531 -0.53516,0.80469 -2.9688,1.6641 -3.9648,1.9531 z m 1.3906,-2.6797 c 0.39063,-1.0898 0.44141,-1.2891 1.5508,-1.7383 1.0312,-0.42187 1.5312,-0.73437 2.2617,-0.03516 -0.61719,0.77344 -2.7734,1.7188 -3.8086,1.7734 z m -13.594,-18.906 c 4.0703,-1.1992 8.7656,-2.6094 11.695,1.3828 2.9531,4.0234 2.3086,7.3633 1.6992,12.234 -0.36328,2.9258 -0.21484,3.5273 -1.6094,6.2227 -0.83984,1.6367 -1.7344,3.2539 -3.0273,4.543 -2.0195,2.0156 -6.0859,5.6445 -8.832,6.2969 -0.26172,-2.1914 -0.08594,-5.4766 0.13672,-7.6602 L 69.15139,49.0896 C 68.9678,46.5232 69.2803,43.824 69.25295,41.3084 Z m -6.4219,7.9297 c 0.16406,-0.6875 -0.1875,-0.13281 0.66016,-0.73047 0.40625,-0.28906 0.35938,-0.28125 0.85156,-0.50781 -0.05859,1.0117 -0.39453,1.8828 -1.5117,1.2383 z m -37.922,-6.1367 c 0.74219,1.375 -0.01953,7.9414 0.0039,10 0.01953,2.1758 0.33594,3.168 0.04297,5.3906 -0.22266,1.6953 0.31641,3.7852 0.23047,5.25 -0.07813,1.3125 0.0078,17.527 0.33984,19.25 0.1875,0.98828 -0.04297,1.7148 0.68359,2.2266 0.65625,-0.45703 0.37109,0.04297 0.14453,-2.4414 -0.08594,-0.96875 -0.29688,-2.0273 -0.33203,-2.9883 -0.13281,-3.7891 0.05859,-7.2578 -0.16797,-11.324 -0.10938,-1.957 -0.19141,-4.5117 -0.13281,-6.4531 0.12109,-4.2188 -0.32812,-8.6328 0.20313,-12.758 0.35937,-2.7969 -1.5117,-8.9492 1.6211,-10.879 0.34766,0.60938 0.02344,1.5508 0.02734,2.4883 3.0898,2.3555 2.4453,-1.9922 4.875,-2.3047 0.51562,0.95703 0.33594,5.0391 0.48047,6.5273 0.29688,3.043 0.13672,3.707 -0.32812,6.6406 -0.48438,3.0469 -2.0859,9.957 0.54297,12.246 4.3711,0.89062 2.8477,-7.7773 2.7695,-10.195 -0.125,-3.9531 -0.19531,-7.9023 1.5781,-11.598 1.1133,0.35547 0.20312,0.33984 1.1953,0.64062 1.4609,-0.89453 1.4141,-1.9258 2.7305,-2.2148 0.19141,0.81641 0.17188,1.3477 0.33984,2.0547 2.9219,1.1445 2.043,-2.8711 4.9492,-3.1016 1.0312,0.95312 1.0156,2.0312 0.72656,3.3477 -0.26953,1.2383 0.48828,1.6367 0.10547,4.1523 -0.30859,2.0234 -2.3828,4.5703 0.28125,7.418 3.7891,0.05859 2.8008,-3.7383 2.6523,-6.4883 -0.10547,-1.9219 -1.0352,-7.4375 1.8008,-7.6328 0.78516,0.64844 0.21484,0.74609 1.3359,1.3086 1.8242,-0.54687 1.1836,-1.6445 2.4531,-2.9961 1.4453,-0.32031 1.1602,0.47266 2.6211,-0.30859 0.94531,-0.50781 1.5859,-1.3945 2.5547,-0.67578 0.53906,1.2461 -0.94531,1.6875 0.08203,2.8086 1.0391,0.57422 0.92969,-0.25781 2.1289,0.57422 0.55078,1.3867 -1.6641,5.2539 -1.8125,6.9609 -0.11328,1.3008 0.90625,2.5742 2.3047,2.0938 1.8008,-0.61719 0.625,-2.1953 1.6836,-3.0234 l 0.02734,2.8906 c -1.9141,1.6914 -10.246,5.7812 -12.871,6.7188 2.1055,0.92188 10.234,-5.2305 12.887,-5.8633 0.26953,4.8008 0.16797,4.5078 -1.832,5.5781 -1.7305,0.92969 -3.4141,2.0078 -5.1602,2.8555 -1.8945,0.91797 -3.4297,1.6641 -5.4023,2.3906 -1.3516,0.5 -5.8438,1.3555 -6.3672,1.6797 2.9219,1.9375 17.43,-6.8359 18.68,-7.1055 0.20312,1.6289 0.32031,3.7539 0.44922,5.4297 0.09766,1.2734 -0.375,3.6953 -0.42187,5.2383 -2.3633,1.3359 -6.5547,4.5469 -9.1328,5.1172 -1.3945,0.30859 -0.73828,0.40625 -2.0117,0.86719 -1.5625,0.57031 -3.6328,0.45312 -4.8555,0.875 0.94141,0.66016 3.2383,-0.50391 5.4961,-0.51562 0.71094,-0.0039 0.18359,0.03516 0.77344,-0.08203 0.50781,-0.09766 -0.12891,-0.41406 0.66406,-0.0625 0.30469,1.2461 -0.60938,0.38281 -1.4062,0.92188 0.21484,0.90625 0.91016,1.2148 1.625,0.5 0.8125,-0.81641 0.42578,-1.3398 0.48438,-2.1641 3.332,-1.1133 2.8125,-2.0859 6.1328,-2.7852 1.7109,-0.35938 1.0938,-0.61328 0.98047,-1.2422 l 1.2656,-0.63281 0.125,5.543 c -0.96484,0.15625 -5.4688,2.3672 -6.8047,3.0117 -1.6289,0.79297 -0.86719,0.57812 -2.4922,0.39453 -0.43359,1.6562 -3.3125,1.6328 -4.5117,2.8164 2.2891,-0.42188 4.9688,-1.6836 7.125,-2.6445 1.7891,-0.79688 4.9297,-2.5547 6.7773,-2.8672 0.05859,6.7773 -0.46094,6.0117 -5.7852,9.1836 -0.85547,-0.28516 -0.81641,-0.49219 -2.1797,-0.79297 0.24609,0.65625 0.85938,0.61719 1.4609,1.0391 -0.57031,0.54688 -1.2344,0.89062 -2.043,1.0781 0.66406,0.44531 0.29687,0.53516 2.2734,-0.45703 l 5.7422,-3.4336 c 0.04688,0.99219 -0.59375,1.4609 0.05078,2.5586 1.1406,-0.28125 0.84375,-2.4688 0.93359,-3.5273 0.79297,-0.57422 0.73828,-0.30078 1.0547,-1.3047 -0.65234,0.32031 -0.30859,0.39453 -1.25,0.44141 0.11719,-1.2148 0.47656,-2.0273 0.44531,-3.3633 -0.03516,-1.3672 0.01562,-6.1445 -0.28516,-7.3203 -0.38672,-1.5234 0.94922,-1.0898 1.1406,-2.4805 -0.75391,-0.32031 -0.09766,-0.05078 -0.50391,-0.03906 -1.2891,0.03516 0.375,0.31641 -0.375,0.03906 0.17578,-2.5664 0.03516,-5.4062 0.01953,-8.0195 -0.0039,-0.73047 0.04687,-1.2656 0.09375,-1.918 0.05078,-0.71875 -0.92969,-4.2148 0.37109,-5.875 -0.71094,-0.84375 -0.83984,-1.8359 -0.46484,-3.0898 0.34766,-1.1719 1.668,-0.87109 1.0898,-1.9414 -0.79297,0.42578 -0.30469,0.64062 -1.3516,1.0078 l 0.27734,-1.7734 c -0.74219,0.15625 -0.47266,-0.16016 -0.85547,0.61328 -0.09766,-1.9414 1.3984,-1.4023 2.332,-2.6172 l -1.7539,0.41797 0.15625,-1.5273 c 0.58203,-0.28125 1.375,-0.46875 1.7891,-1.082 -0.70703,-0.49609 -0.83984,0.26953 -1.8242,0.68359 -0.58203,-1.5156 -0.26172,-3.8086 0.41797,-5.3086 0.44531,-0.98047 0.55078,-0.79688 1.4609,-0.66406 0.60156,1.2734 0.32813,16.102 0.48438,19.066 0.12891,2.3477 -0.25391,25.852 -0.62891,28.824 -0.49609,3.918 0.28125,5.0586 -3.1719,7.043 -2.1641,1.2422 -4.3203,2.6289 -6.7656,3.2891 -2.2461,0.60547 -6.0664,1.8906 -8.1328,2.0938 -1.6211,0.16016 -2.8125,0.57031 -4.4922,0.5 -2.8086,-0.11719 -10.344,-1.3867 -12.883,-2.3438 -1.7148,-0.64453 -4.7305,-2.6562 -6.2734,-3.7656 -1.3516,-0.97266 -1.8867,-1.5117 -1.7188,-3.2422 0.16797,-1.7539 -0.49219,-12.219 -0.65625,-14.18 -0.25391,-3.082 -0.28516,-6.8516 -0.29688,-9.9727 L 23.67505,52.12 c 0.57031,-2.9453 0.46094,-6.3516 1.2305,-9.0039 z m 44.258,-6.4922 c -0.07422,-1.4922 1.1133,-1.4336 2.5703,-1.9102 -0.54688,1.1797 -1.3633,1.5391 -2.5703,1.9102 z m 14.043,31.176 c -0.24609,1.3945 -1.9766,0.84375 -2.8125,2.2734 l 1.9023,0.21094 c -0.75,0.97266 -2.5898,0.67188 -3.0938,1.543 1.2031,0.74219 0.79297,-0.14844 2.1523,-0.14062 -1.0859,0.79688 -0.80469,1.375 -2.793,1.4414 -1.2617,0.04297 -2.3359,-0.01563 -3.2305,0.92188 0.42188,0.19141 1.1406,-0.26953 1.7031,-0.33984 0.73828,-0.09375 1.707,-0.12109 2.4688,-0.16797 -0.85938,2.0117 -3.8555,3.7852 -5.8516,4.8594 -0.17969,-0.27734 -0.35938,0.08594 0.22266,-0.54297 -2.0547,-0.12891 -0.52734,-0.15625 -1.5781,-0.64453 l -0.54688,0.46094 0.39063,1.3477 -3.2578,0.19922 0.22266,-6.1602 c 2.8711,-1.3672 5.7188,-2.2188 8.4062,-5.8359 0.21094,-0.28516 3.3945,-3.5391 3.5469,-3.6055 0.46875,-0.20312 0.99219,-0.16016 1.457,-0.28516 l 3.3906,-1.9805 c -0.39062,-0.85547 -0.43359,-0.44141 -0.97656,-1.1836 1.1328,-0.43359 2.457,-1.0234 2.6133,-2.3125 l -1.9414,-0.125 2.6445,-2.3125 c -0.95312,-0.55469 -0.98438,0.18359 -2.1094,1.0547 -0.71875,0.55859 -1.3945,1.2109 -2.3203,1.5352 0.04687,-0.42578 0.09375,-0.83203 0.17969,-1.2539 0.30859,-1.5156 0.34375,-0.87109 3.0195,-2.3008 0.97266,-0.51953 2.3164,-0.85547 1.4844,-1.9102 -0.55078,0.34766 0.04688,0.26172 -0.88672,0.93359 -0.35938,0.26172 -0.91406,0.51562 -1.3164,0.70703 -0.86328,0.41016 -1.7031,0.81641 -2.5352,1.2617 -0.02734,0.89062 -0.08594,1.2891 -0.55859,1.9414 -0.10938,-0.75781 0.15625,-2.0703 0.26562,-2.9453 0.25781,-2.0508 0.49219,-0.70703 0.97266,-0.87109 l -0.15625,-0.87891 c -1.3125,-0.25391 0.37109,-2.4648 -0.84375,-6.7227 -0.50781,-1.7734 -1.3359,-3.4102 -2.8047,-4.5234 -5.0703,-3.8281 -8.2695,-1.3477 -11.367,-1.1055 -0.29297,-4.4688 -0.26562,-2.3125 1.6836,-3.9375 2.6211,-2.1914 3.0977,-2.4609 6.1602,-2.957 -0.94141,1.5898 -3.25,2.2539 -4.5156,3.4141 1.6094,0.80859 5.2383,-4.2188 6.8047,-3.1133 -0.21875,1.332 -2.9062,1.8438 -3.1836,2.9727 1.6172,0.01953 3.3945,-2.8359 4.9023,-2.4688 0.625,0.14844 1.2305,0.67969 1.457,1.1523 -0.31641,0.12891 -3.1641,1.4492 -3.1719,1.4531 0.50781,0.40234 0.21484,0.42969 1.2266,0.125 1.3438,-0.40234 2.1914,-1.4727 2.8203,-1.7539 0.29297,0.5 0.23828,0.25781 -0.38281,0.71875 1.4727,0.04297 1.0703,-0.0625 1.5508,0.31641 -1.1953,0.58203 -3.4492,1.5664 -3.9492,2.7227 1.7578,-0.19531 3.0703,-1.918 4.7734,-2.4609 0.84766,0.52344 1.2461,1.3789 1.7031,2.332 -0.60938,0.35156 0.02344,-0.28516 -0.78906,0.25391 0.85937,0.375 0.41797,0.08594 0.59375,0.60156 l -2.793,1.5938 c 1.1172,0.54297 2.793,-1.2109 3.7227,-1.5898 0.62109,2.0195 -1.6016,2.2812 -3.0781,2.9414 0.16406,0.16016 -0.35938,0.49609 1.0039,0.19141 l 2.7617,-1.4727 c 0.27734,3.0547 -1.3672,1.7344 -3.0781,3.2852 0.30469,0.23437 -0.13672,0.10156 0.44922,0.16797 0.36719,0.04297 0.10547,0.05078 0.52344,-0.03516 l 2.582,-1.3477 c 0.09375,1.3711 0.0039,0.83594 -0.22656,1.332 l -0.13281,0.64844 c -0.92578,0.38281 -3.6992,1.2188 -4.2383,1.8242 1.3203,0.96094 3.3359,-1.1992 4.7891,-1.6719 1.2539,2.5391 0.20312,7.918 -0.35156,10.758 -0.69922,3.5898 -1.6914,5.8242 -3.4219,8.9688 l -2.043,-0.14062 c 0.77734,-0.99219 1.7539,-0.69141 2.3242,-1.8594 l -1.1875,-0.15234 -0.17188,0.51562 c -0.28125,0.37891 -0.05078,0.12109 -0.45312,0.38672 -0.30859,0.19922 -0.80859,0.43359 -1.1797,0.60938 -0.71875,0.33594 -1.9414,0.52734 -2.3828,1.1367 0.62109,0.40625 1.3242,-0.19141 3.875,-0.28516 -0.98047,1.2461 -3.5195,0.99219 -3.6523,2.4453 l 2.6055,-0.17188 z m 6.7148,-13.316 c 0.83594,-5.2852 0.57812,-5.168 -0.05078,-10.281 -0.80469,-6.5391 -5.5742,-11.004 -11.527,-11.602 -1.6602,-0.16797 -7.8359,1.2109 -9.043,2.1758 -0.14844,-1.9062 0.60938,-1.1914 1.1016,-2.75 0.36719,-1.1719 0.0625,-2.2266 0.60156,-3.1484 0.25391,-0.43359 1.3047,-1.5156 1.8047,-2.2188 0.76172,-1.0742 0.78516,-1.3125 1.1602,-2.625 0.79297,-2.7617 1.1328,-3.5781 -1.5859,-5.0547 -1.3828,-0.75 -4.9258,-1.0352 -5.3086,0.86328 1.2227,0.38672 2.0586,-1.8672 4.8711,-0.4375 2.0742,1.0547 1.9883,1.9219 1.4336,4.0469 -0.45312,1.7383 -0.86719,2.7812 -2.0625,4.1641 -2.3789,2.7656 -0.70312,1.6875 -1.7266,4.2852 -0.79297,1.9961 -2.3164,1.043 -3.3633,2.8555 -0.65234,1.125 -0.89453,3.7148 -0.64062,5.082 0.36719,1.9648 -0.38281,3.2422 -0.60156,5.2578 -0.10547,0.97656 -0.07031,1.7109 -0.80078,2.3477 -0.41016,0.35547 -1.293,1.0938 -1.707,1.3086 -0.0039,-3.9141 4.6172,-9.2461 -0.6875,-8.7617 l 0.48828,-2.5039 c -2.8008,-2.1875 -2.7539,0.53516 -4.7969,0.39453 -3.2227,-0.22266 -2.1797,1.7773 -3.6758,2.9141 -0.92188,-0.65625 -1.793,-2.2734 -3.1328,-0.18359 -1.6484,2.5703 -0.8125,5.2539 -0.78906,7.1641 0.03906,3.2812 0.69141,5.8398 -1.6289,5.9961 -2.2773,-2.1406 0.17578,-5.3125 0.05078,-7.832 -0.17969,-3.5898 0.73828,-7.8164 -2.3398,-6.9297 -2.4141,0.69141 -1.8047,2.6992 -3.2305,3.1641 -0.55469,-0.6875 -0.17578,-2.4922 -1.7812,-2.3281 -0.98828,0.10156 -1.3867,1.3711 -2.0859,2.0664 -0.64453,-0.39453 -0.55469,-0.45313 -1.3047,-0.53906 -1.7422,1.4414 -2.4844,8.2266 -2.3867,10.629 0.09766,2.4531 1.1992,10.273 -1.1758,11.375 -2.7773,-0.96094 -0.90234,-9.9609 -0.53906,-12.32 0.47656,-3.0703 0.47656,-3.5469 0.125,-6.6328 -0.23438,-2.0625 0.44922,-5.0469 -0.73828,-6.5938 -2.9414,-0.28125 -2.1562,2.8125 -4.1758,2.9805 -0.76563,-1.5898 0.83203,-2.543 -1.1289,-3.3008 -1.5664,0.44531 -3.1484,4.6172 -3.4258,6.1367 -0.57422,3.125 -0.21875,6.8789 -1.4727,8.0352 -0.84766,-1.0664 -0.21875,-2.8438 -0.03906,-4.1445 0.53516,-3.8555 -0.14453,-2.6484 -0.15234,-4.4805 -0.0039,-0.86719 0.39062,-1.168 0.53125,-2.0156 l 0.46484,-4.457 c 0.05078,-0.75391 -0.18359,-1.2109 -0.21875,-2.0898 -1.4102,-0.1875 -0.19922,0.55078 -1.4922,-0.30859 -0.72266,-0.48047 -0.64453,-0.60938 -1.3906,-0.22656 0.55078,0.82031 1.918,0.90625 2.2031,2.082 0.43359,1.7695 -0.92578,6.2188 -0.88672,7.2734 0.0625,1.5938 0.5,1.4297 0.28906,3.3086 -0.13281,1.1836 -0.51172,2.5312 -0.59375,3.6445 -0.19141,2.5352 1.1211,1.7539 1.5742,3.4336 0.30078,1.1211 0.20312,5.6758 0.21484,6.9922 0.07031,8.1836 0.67188,14.574 0.60156,23.145 -0.0039,0.60156 0.01953,3.5742 0.11719,3.9375 0.17578,0.66797 1.5195,1.5117 2.0977,1.875 5.8945,3.6914 4.4219,3.2266 11.246,5.25 4.8711,1.4414 9.5234,1.793 14.504,0.42188 3.7969,-1.0469 8.9375,-2.1523 12.23,-4.2578 4.9844,-3.1836 5.0703,-1.2305 4.957,-11.301 11.09,0.42578 19.477,-15.562 21.016,-25.289 z"
       id="path2" />
    <path
       d="m 23.359,16.355 c 0.15234,-0.12891 2.1016,-3.3477 2.7734,-4.1016 1.9023,-2.1367 6.4922,-4.207 9.4297,-4.3906 1.5664,-0.097656 5.4141,-0.40234 6.7188,0.00391 -0.53516,0.71875 -1.5586,1.1211 -1.9414,2.1562 0.96875,0.44922 0.98438,-0.41797 1.8359,-1.1055 0.54297,-0.4375 1.7031,-1.0898 2.3555,-1.4336 1.8867,-0.98828 4.082,-1.4375 6.2812,-1.043 2.5703,0.46094 3.5117,-0.28516 6.0547,1.3125 0.62109,0.38672 3.5859,3.2969 3.9023,3.7812 -1.0977,0.21875 -2.7305,0.51562 -2.8203,1.8125 2.5469,0.41016 -0.0625,-0.94531 3.8516,-1.3516 2.6953,-0.27734 2.1172,0.09766 4.3164,0.74609 2.9258,0.86719 3.1602,4.2109 5.7422,4.9492 -0.29297,-1.2891 -1.3633,-1.4961 -2.1094,-2.3359 -0.60938,-0.68359 -0.89062,-1.9141 -1.8828,-2.5625 -0.24219,-0.16016 -2.8672,-1.0898 -3.2852,-1.1836 -1.832,-0.41797 -2.5195,0.45312 -3.8008,-0.875 C 59.2769,9.1751 57.8589,7.4485 55.7691,6.6243 53.6246,5.78055 47.5972,5.2571 44.3901,6.89774 c -2.1484,1.1016 -1.4062,0.16016 -3.4609,0.14844 -5.5,-0.035156 -9.8359,0.66016 -14.266,3.9531 -1.0781,0.80078 -3.9414,4.1055 -3.3008,5.3516 z"
       id="path4" />
    <path
       d="m 53.879,88.898 c 3.2734,-0.18359 5.4375,-2.0312 8.082,-2.7539 -0.44922,0.94531 0.24609,0.14453 -0.76172,0.84375 -1.0664,0.74219 -3.9492,1.6836 -5.2383,2.0703 -1.4141,0.42578 -1.1016,0.49609 -2.0859,1.043 -1.7734,0.98047 -8.6758,1.1172 -10.957,1.0742 1.0078,1.5352 4.5625,0.34766 6.1367,0.16016 2.2148,-0.26172 0.44922,0.87891 5.9141,-1.0391 3.0391,-1.0664 4.6836,-2.2227 7.5391,-3.5938 1.1719,-0.5625 0.41406,-0.5625 1.3359,-1.3516 0.14062,-0.12109 0.22656,-0.03516 0.58203,-0.40625 -1.1992,-0.65234 -3.9648,1.2383 -5.2148,1.8164 -1.7383,0.80469 -3.7734,1.3594 -5.3359,2.1406 z"
       id="path6" />
    <path
       d="m 21.223,33.051 c -1.3477,-0.97266 -5.6445,-1.9258 -4.7461,-4.2305 l -0.94922,-0.14844 c 0.37109,-2.6523 1.5625,-5.6289 3.332,-7.4297 0.89062,-0.90625 1.6523,-1.7734 2.7031,-2.6484 1.082,-0.90625 2.9766,-1.0391 3.2305,-1.9609 -2.9805,0.01172 -7.5742,4.9531 -8.6953,7.625 -0.35156,0.83984 -0.5625,2.1406 -0.86719,3.1562 -0.42578,1.418 -0.29297,2.2266 0.74219,3.1875 1.0352,0.95703 4.0508,3.0742 5.2539,2.4492 z"
       id="path8" />
    <path
       d="m 43.145,24.145 c 0.96484,-0.39844 0.10938,-0.76562 2.082,-3.043 1.5391,-1.7734 4.2422,-2.9922 6.4844,-3.7773 2.0117,-0.69922 2.2461,-0.71484 4.1289,0.10156 l 0.14062,-0.86719 c 1.1289,0.02344 1.3984,0.41797 2.5117,-0.21094 -0.82813,-1.0273 -1.2891,-0.27344 -2.2617,-0.39062 -0.83594,-0.10156 0.10547,-0.30078 -1.0703,0.14453 -0.70312,0.26563 -0.64844,0.35547 -1.332,0.02344 l 0.90234,-1.0273 c -1.6172,-0.58203 -0.8125,0.94141 -3.1016,1.7344 -2.8281,0.97656 -9.3242,4.4141 -8.4883,7.3125 z"
       id="path10" />
    <path
       d="m 54.516,29.484 c 0.0039,-0.33594 0.52734,-0.59766 0.36719,-0.05469 C 54.72694,29.97618 54.516,29.484 54.516,29.484 Z m -4.3945,-0.59766 c -0.07813,1.1133 1.3477,1.3789 3.0547,1.8984 L 52.76995,29.8199 c 0.82031,-0.07812 1.8984,0.35156 3.2422,0.25781 -0.06641,-0.96484 -0.19922,-0.43359 -0.55078,-1.1797 2.3828,-1.3047 0.65625,-0.45313 2.625,-0.32031 l -0.33594,-1.0938 0.94531,0.22266 -0.04687,-1.168 1.0703,0.18359 -0.3125,-1.7773 c -0.82031,0.53516 -0.89453,1.2031 -1.5625,1.8633 -0.98047,0.96484 -3.3594,2.0625 -4.7539,2.3828 -1.6836,0.39062 -1.9844,-0.27344 -2.9688,-0.30469 z"
       id="path12" />
    <path
       d="m 65.629,21.012 -0.39453,0.54688 c -0.86719,-0.3125 -0.34766,0.10547 -0.76953,-0.63672 z m 0,0 -0.22656,-0.58203 c -1.4805,-0.03906 -0.99609,-0.125 -1.9922,0.58203 -0.55469,0.39062 -1.3555,0.41016 -2.1094,0.57812 -0.47656,0.10547 -3.8516,1.2188 -2.7305,2.1172 0.58594,0.21094 0.70703,-0.5625 1.5742,-1.0625 0.78516,-0.45703 1.6445,-0.66406 2.543,-0.80469 2.8398,-0.44141 2.7266,0.83594 4.082,2.043 0.62891,-1.0781 1.3672,-0.55859 0.89062,-1.9102 -0.82422,-0.31641 -0.78516,-0.0078 -1.7852,-0.05469 0.75781,-0.48828 0.73828,0.08594 0.78125,-0.78516 l -1.0195,-0.12109 z"
       id="path14" />
    <path
       d="m 50.711,68.461 c 0.51172,0.15625 3.4727,-0.52734 4.332,-0.80859 2.0547,-0.67578 10.016,-4.4961 10.367,-6.2852 -0.97656,0.01953 -2.2695,1.4648 -3.2383,2.0586 -1.168,0.70703 -2.3477,1.3867 -3.5352,2.0469 -4.1602,2.3086 -5.8555,2.0938 -7.9219,2.9883 z"
       id="path16" />
    <path
       d="m 30.625,30.078 c 0.01563,-1.2109 -2.2266,-4.4766 1.3711,-6.3984 1.125,-0.60156 1.8477,-1.0898 3.0938,-1.5703 1.2383,-0.47656 3.2812,-0.27344 3.7891,-0.86328 -1.7031,-0.89453 -5.8281,1.1406 -7.3867,2.1562 -3.6953,2.418 -1.8516,6.1562 -0.86719,6.6758 z"
       id="path18" />
    <path
       d="m 40.734,80.707 c 1.3047,0.17969 2.8945,-0.46484 4.5039,-0.35156 1.5234,0.10938 3.1016,0.50391 4.6484,0.43359 -0.63281,1.2148 -0.64062,0.08984 -0.91797,1.2578 0.89844,0.39844 1.2734,-0.21094 1.3672,-1.0742 1.2578,0.17578 1.2344,0.65234 1.2891,-0.48438 -0.59375,-0.46875 -3.6992,-0.33984 -5.4414,-0.58594 -1.2969,-0.18359 -4.5938,-0.19531 -5.4453,0.80859 z"
       id="path20" />
    <path
       d="m 33.414,18.109 c 1.0977,-0.39844 0.61328,-0.73828 1.5312,-1.2695 1.6602,-0.96094 0.39453,-0.19531 1.3633,-1.543 0.79297,0.12109 0.0039,0.04687 0.74219,0.26172 0.55469,-0.48438 2.2031,-1.6016 2.0859,-2.1211 -0.14453,-0.63672 -0.03516,0.32031 -0.07422,-0.25391 1.082,-0.64844 1.7969,-0.57422 2.9727,-0.80859 -2.4531,-1.8242 -7.9258,4.043 -8.6211,5.7305 z"
       id="path22" />
    <path
       d="m 35.988,31.246 1.3711,-0.82031 c -1.1797,-0.79297 -1.5977,0.47656 -2.9023,0.71094 -0.76953,0.14062 -0.47266,-0.23438 -1.1445,0.35156 2,1.082 9.3242,-0.39062 10.145,-2.7383 -2.2422,1.2305 -4.7148,2.5312 -7.4648,2.4961 z"
       id="path24" />
    <path
       d="m 32.242,89.617 c 0.58203,0.79687 7.3867,1.7969 8.3984,1.3359 -0.61328,-0.44141 -3.2422,-0.67188 -4.207,-0.82031 -1.4648,-0.22656 -2.9844,-1.2109 -4.1914,-0.51562 z"
       id="path26" />
    <path
       d="m 28.684,85.379 c 1.1289,-0.02344 2.6992,-1.5938 3.8477,-2.1484 0.99219,-0.47656 3.832,-1.5117 4.3711,-1.8516 -1.1289,-0.78516 -7.9727,2.8203 -8.2148,4 z"
       id="path28" />
    <path
       d="m 20.762,24.836 c -1.0039,2.3672 -1.1797,5.2812 0.88281,5.2227 -2.6133,-3.5234 0.36719,-4.8242 0.75391,-5.6719 z"
       id="path30" />
    <path
       d="m 31.641,72.691 c -0.0039,-0.09766 0.15234,-0.38281 0.25781,0.03125 0.11328,0.42578 -0.25391,0.23438 -0.25781,-0.03125 z m -1.3945,1.5352 c 1,-0.21484 0.24219,-0.23828 0.98438,-0.5 0.52344,-0.18359 2.2617,0.17188 1.3555,-1.8398 l -1.3125,-0.16406 c -0.42578,0.76953 -0.80078,1.6367 -1.0312,2.5039 z"
       id="path32" />
    <path
       d="m 24.391,20.832 c 0.60156,-0.47266 1.2656,-1.8438 1.9258,-2.6016 1.0586,-1.2109 1.6719,-1.0781 2.6289,-1.8828 -0.01562,-0.01172 -0.33594,-0.78125 -1.6133,0.22656 -1.1445,0.89844 -2.8906,2.6367 -2.9375,4.2578 z"
       id="path34" />
    <path
       d="m 54.691,53.066 c 2.5156,-1.1562 2.0234,0.67578 1.3711,0.94141 -1.6641,0.02734 -0.04687,-0.79687 -1.3828,-0.28516 -0.40625,1.543 2.7148,1.2109 2.4688,-1.0781 -0.91797,-0.85156 -2.293,-1.1406 -2.4531,0.41797 z"
       id="path36" />
    <path
       d="m 40.945,63.559 c -0.15234,-0.95703 0.12891,-1.5078 1.1172,-1.168 0.39844,1.0273 -0.13281,1.3125 -1.1172,1.168 z m -0.85547,-0.21875 0.32031,0.69141 1.3906,0.20312 c 0.80859,-0.74219 1.2734,-1.0703 0.87891,-2.1875 -1.3398,-0.69141 -2.1328,0.07813 -2.5898,1.293 z"
       id="path38" />
    <path
       d="m 88.824,47.66 -4.2188,2.2773 c 1.1328,0.53125 4.1523,-1.3242 4.9102,-2.1875 -0.53906,-0.61328 -0.65234,-0.59375 -1.5586,-0.66406 z"
       id="path40" />
    <path
       d="m 53.633,65.789 c 0.24609,1.9062 3.0977,0.97266 1.918,-0.81641 -1.1758,-0.12891 -0.10938,-0.11719 -0.92969,0.29297 -0.64062,0.32031 -0.40234,0.01563 -0.98828,0.52344 z"
       id="path42" />
    <path
       d="m 52.949,48.16 6.7461,-2.8125 c -0.29297,-0.17969 0.27734,-0.54688 -1.7305,0.29688 -0.58594,0.24219 -1.1719,0.47266 -1.7461,0.72656 -1.0625,0.46484 -2.918,0.82422 -3.2695,1.793 z"
       id="path44" />
    <path
       d="m 84.309,52.664 c 1.4336,-0.09375 3.6094,-0.97656 4.3398,-2.2422 -0.25391,-0.6875 -0.07031,-0.58594 -0.80859,-0.8125 l 0.02344,0.96875 z"
       id="path46" />
    <path
       d="m 47.281,86.934 c 0.86719,0.42578 0.59375,0.50781 1.5312,0.33203 0.46875,-0.72266 0.39453,-0.52344 0.35547,-1.418 -0.76172,-0.46875 -0.42188,-0.43359 -1.3398,-0.40234 l -0.54297,1.4883 z"
       id="path48" />
    <path
       d="m 41.16,77.141 c 1.2344,0.125 1.5234,-0.25781 1.4688,-1.4922 -0.625,-0.46484 -0.40625,-0.42188 -1.1914,-0.39453 -0.61328,0.69141 -0.62109,1.0352 -0.27734,1.8867 z"
       id="path50" />
    <path
       d="m 31.227,89.508 c -0.50781,-0.51172 -1.3047,-0.98437 -1.875,-1.4688 -0.76953,-0.65234 -1.0859,-1.4297 -1.8867,-1.7773 0.18359,1.457 2.5586,3.4531 3.7617,3.2422 z"
       id="path52" />
    <path
       d="m 60.535,80.434 c 0.16797,1.3164 0.15234,0.61328 -0.08594,1.8867 1.4961,-0.17578 1.0117,-1.6875 1.4492,-3.1758 -1.1836,0.58594 -0.10156,0.74219 -1.3672,1.2891 z"
       id="path54" />
    <path
       d="m 28.305,78.809 0.96484,-0.34766 -0.09375,-1.5469 c -1.5781,-0.09766 -1.9023,1.0352 -0.87109,1.8906 z"
       id="path56" />
    <path
       d="m 41.727,55.391 0.96094,0.28125 c 0.65234,-0.59375 0.82422,-0.72656 0.51953,-1.5312 l -1.2227,-0.21875 c -0.34375,0.83984 -0.46094,0.58984 -0.25781,1.4688 z"
       id="path58" />
    <path
       d="m 33.793,86.992 c 0.59766,0.13281 0.71875,-0.375 0.91797,-0.9375 0.53125,-1.5078 0.66797,-0.3125 0.88672,-1.4961 -1.6016,0.31641 -1.1406,-0.14453 -1.7539,1.5859 -0.31641,0.89062 -0.32812,0.36328 -0.05078,0.84766 z"
       id="path60" />
    <path
       d="m 44.801,35.723 c 0.29297,0.67578 3.2227,1.4453 3.8906,1.1133 -0.5,-0.48438 -3.3086,-1.4414 -3.8906,-1.1133 z"
       id="path62" />
    <path
       d="m 82.219,39.508 c 0.77344,0.72266 3.5547,-0.45312 4.0117,-1.3984 -0.99219,0.35547 -0.81641,0.49219 -2.0625,0.75391 -0.64062,0.13281 -1.4727,0.28516 -1.9492,0.64453 z"
       id="path64" />
    <path
       d="m 30.176,50.168 c -1.1562,0.76562 -0.22656,-0.33984 -1.4883,0.25391 0.54688,1.5273 2.3242,0.50781 1.9062,-1.0195 l -1.082,-0.17578 c 0.38672,1.043 0.0625,0.11719 0.66406,0.94141 z"
       id="path66" />
    <path
       d="m 37.688,30.699 c 0.53906,-0.11719 0.77734,-0.54297 1.2969,-0.92188 1.0469,-0.76172 1.1445,-0.125 1.4297,-0.95703 -0.84766,-0.5625 -0.60547,-0.04687 -1.668,0.51172 -0.67188,0.35547 -1.1406,0.5625 -1.0586,1.3711 z"
       id="path68" />
    <path
       d="m 27.613,64.145 c 0.96094,-0.125 1.4922,-0.67969 1.4648,-1.6797 l -0.83984,-0.24219 c -0.31641,0.70312 0.09375,0.33984 -0.19922,0.95703 -0.375,0.80078 -0.46875,-0.31641 -0.42578,0.96484 z"
       id="path70" />
    <path
       d="m 73.891,76.477 c 0.84375,0.40625 2.0742,-0.02344 2.7578,-0.44531 l -0.90625,-0.15625 c -1.9375,0.08203 -1.7031,-0.48047 -1.8477,0.60156 z"
       id="path72" />
    <path
       d="m 55.062,43.434 c 0.82812,0.06641 0.69141,-0.1875 1.4766,-0.35156 0.95703,-0.19531 1.0859,0.13281 1.7539,-0.49219 C 56.8745,42.44181 55.9097,42.309 55.062,43.434 Z"
       id="path74" />
    <path
       d="m 36.02,72.93 c 0.94922,-0.54688 0.09766,-0.58203 1.5547,-1.0859 -0.37891,-0.63672 0.04297,-0.27344 -0.88281,-0.60156 -0.70312,0.55469 -1.1484,0.86328 -0.66797,1.6875 z"
       id="path76" />
    <path
       d="m 35.641,67.688 c 0.97656,-0.05078 1.3164,-0.73828 0.83984,-1.5117 -0.99609,-0.21484 -1.0742,0.69531 -0.83984,1.5117 z"
       id="path78" />
    <path
       d="m 58.738,62.43 c 0.6875,-0.30078 1.2539,-1.207 0.89062,-1.9688 -0.91406,0.15234 -1.1602,1.2266 -0.89062,1.9688 z"
       id="path80" />
    <path
       d="m 54.992,82.051 c -0.20313,-1.1367 -1.2969,-0.79688 -2.5547,-0.97266 0.50781,0.76172 1.6328,0.87109 2.5547,0.97266 z"
       id="path82" />
    <path
       d="m 50.805,59.301 -0.0625,1.0586 c 1.0703,0.08984 1.2891,-0.33594 1.3477,-1.2695 z"
       id="path84" />
    <path
       d="m 58.59,80.727 c 0.14453,0.49609 -0.0625,0.12109 0.23438,0.58203 0.48828,0.76172 -0.10156,0.19141 0.68359,0.65234 l 0.16016,-1.6641 z"
       id="path86" />
    <path
       d="m 40.941,29.043 c 1,0.57422 1.1484,0.14453 1.4453,-0.74219 -0.85547,0.01563 -1.2812,-0.17969 -1.4453,0.74219 z"
       id="path88" />
    <path
       d="m 44.668,69.352 c 0.61328,0.25781 0.86328,0.15234 1.5781,-0.01172 -0.37891,-0.8125 -1.2852,-1.0078 -1.5781,0.01172 z"
       id="path90" />
    <path
       d="m 42.16,46.266 1.6016,0.21875 C 43.46082,45.84022 41.9413,44.84805 42.16,46.266 Z"
       id="path92" />
    <path
       d="m 42.266,48.418 c 0.66016,0.43359 0.85938,0.41016 1.5703,0 -0.38672,-0.64844 -1.2148,-0.76953 -1.5703,0 z"
       id="path94" />
    <path
       d="m 27.887,47.531 c 0.77344,0.25781 0.91406,0.15625 1.4844,-0.23438 l -1.3086,-0.66016 z"
       id="path96" />
    <path
       d="m 36.453,77.398 -0.37891,-1.4102 -0.67969,0.08594 c 0.02734,0.65625 0.39453,1.1836 1.0625,1.3242 z"
       id="path98" />
    <path
       d="m 43.379,68.016 c -0.39844,-0.63281 -0.65625,-0.77734 -1.418,-0.96094 0.20312,0.85547 0.53906,1.3711 1.418,0.96094 z"
       id="path100" />
    <path
       d="m 52.191,88.152 c 0.81641,0.23047 0.86719,0.08984 1.2188,-0.53906 -0.68359,-0.50781 -1.1289,-0.44922 -1.2188,0.53906 z"
       id="path102" />
    <path
       d="m 41.832,85.816 c 0.75781,-0.10156 1.1875,-0.42578 1.2461,-1.2266 -0.84766,0.26562 -1.1289,0.33984 -1.2461,1.2266 z"
       id="path104" />
    <path
       d="m 55.797,47.969 c 0.4375,0.69141 0.44922,0.53125 1.375,0.46875 -0.29297,-0.86719 -0.63672,-0.96484 -1.375,-0.46875 z"
       id="path106" />
    <path
       d="m 27.426,68.109 c -0.0078,-0.6875 -0.44141,-1.0859 -1.1133,-1.1133 -0.01563,0.66016 0.4375,1.0977 1.1133,1.1133 z"
       id="path108" />
    <path
       d="m 28.32,54.73 c 0.0625,0.74609 0.14453,0.79688 0.75781,1.0039 L 29.14422,54.4878 28.32,54.73389 Z"
       id="path110" />
    <path
       d="m 28.848,71.355 c 0.44922,0.76953 0.82812,0.67188 1.4297,0.22266 C 29.54723,71.11282 29.54723,70.96047 28.848,71.355 Z"
       id="path112" />
    <path
       d="m 51.266,69.574 c 0.29688,0.76953 0.85547,0.64844 1.2344,0 -0.57031,-0.32031 -0.67188,-0.39453 -1.2344,0 z"
       id="path114" />
    <path
       d="m 56.066,29.535 c 0.72656,0.21875 0.44141,0.28125 1.1133,-0.05078 -0.32031,-0.70312 -0.91406,-1.0039 -1.1133,0.05078 z"
       id="path116" />
    <path
       d="M 55.293,51.008 C 55.31253,50.26972 55.26175,50.383 54.46878,50.18769 54.55472,50.97285 54.418,51.05488 55.293,51.008 Z"
       id="path118" />
    <path
       d="m 47.523,75.141 c 0.375,0.71094 0.52344,0.84766 1.0039,0 -0.86719,-0.52344 -0.46484,-0.32422 -1.0039,0 z"
       id="path120" />
    <path
       d="m 43.66,84.051 c 0.57812,0.23438 0.99219,-0.10938 1.2578,-0.62891 -0.69531,0.03906 -0.94531,-0.0039 -1.2578,0.62891 z"
       id="path122" />
    <path
       d="m 40.473,59.277 c 0.4375,-0.65234 0.36328,-0.51172 -0.22266,-0.89453 -0.35547,0.66797 -0.53906,0.625 0.22266,0.89453 z"
       id="path124" />
    <path
       d="m 66.852,38.113 c 0.76953,-0.19141 0.73828,-0.20312 1.0625,-0.87109 -0.67578,0.19531 -0.83594,0.14062 -1.0625,0.87109 z"
       id="path126" />
    <path
       d="m 48.047,61 c 0.55078,-0.67578 0.26562,-0.36328 0.01563,-0.83594 C 47.62513,60.46875 47.28529,60.48047 48.047,61 Z"
       id="path128" />
    <path
       d="m 33.278,62.665 c -0.88999,-1.4635 -0.88566,-3.9571 0.01692,-9.7566 0.61237,-3.9348 0.64738,-4.813 0.40422,-10.141 -0.19447,-4.2612 -0.33823,-4.8512 -1.2064,-4.9507 -0.88719,-0.10172 -1.4875,0.29826 -2.243,1.4945 -0.76066,1.2044 -1.3081,1.6597 -1.5415,1.2819 -0.07418,-0.12002 -0.11661,-0.71295 -0.09428,-1.3176 0.03702,-1.0026 -0.0011,-1.1322 -0.43365,-1.4724 -0.61856,-0.48656 -0.66337,-0.47936 -1.4521,0.23319 -1.339,1.2097 -2.5861,4.385 -2.8919,7.3634 -0.42842,4.1717 -0.52407,4.8371 -0.78505,5.4617 -0.56561,1.3537 -0.91562,0.04533 -0.55925,-2.0905 0.44684,-2.6782 0.48697,-3.3856 0.25753,-4.5399 -0.17797,-0.89536 -0.17887,-1.2783 -0.0044,-1.8728 0.51207,-1.7449 0.88208,-6.1256 0.62568,-7.4076 -0.09745,-0.48724 -0.18079,-0.55975 -0.5936,-0.51645 -0.66057,0.06929 -1.428,-0.46518 -1.428,-0.99453 0,-0.36011 -0.25604,-0.54684 -1.7012,-1.2406 -2.651,-1.2727 -3.2109,-1.8089 -3.1301,-2.9974 0.0281,-0.41291 -0.03655,-0.48926 -0.41431,-0.48926 -0.24618,0 -0.4476,-0.10168 -0.4476,-0.22597 0,-0.60703 0.81004,-3.0509 1.4553,-4.3905 0.60122,-1.2482 1.0443,-1.8332 2.6144,-3.4513 1.6424,-1.6927 2.0799,-2.0379 3.3342,-2.6308 1.4281,-0.675 2.011,-1.1175 1.7784,-1.3501 -0.06595,-0.06595 -0.43763,-0.03511 -0.82596,0.06853 -0.38832,0.10365 -0.70604,0.1563 -0.70604,0.11701 0,-0.03929 0.15269,-0.28837 0.3393,-0.5535 0.18661,-0.26513 0.86075,-1.2965 1.4981,-2.2919 1.3608,-2.1255 2.4201,-3.0505 4.8343,-4.2219 2.0352,-0.98751 3.5638,-1.483 5.2484,-1.7013 1.3708,-0.17765 6.7606,-0.25381 6.7606,-0.095528 0,0.048615 -0.4003,0.47423 -0.88956,0.94581 -1.0096,0.9731 -1.1046,1.2787 -0.39767,1.2787 0.34869,0 0.71551,-0.23075 1.2601,-0.79267 0.95512,-0.98555 3.9168,-2.481 5.5097,-2.782 0.68284,-0.12905 1.6601,-0.16619 2.4908,-0.094674 0.75188,0.064732 2.1897,0.18786 3.1951,0.27363 2.4369,0.20787 3.2556,0.62114 5.5477,2.8005 0.98271,0.9344 1.7868,1.7542 1.7868,1.8218 0,0.06761 -0.36826,0.22141 -0.81835,0.34179 -0.85662,0.22911 -1.8503,1.0515 -1.8503,1.5314 0,0.20895 0.18259,0.28055 0.71546,0.28055 0.5817,0 0.75168,-0.07948 0.90918,-0.42516 0.26044,-0.57161 0.83227,-0.80365 2.494,-1.012 1.333,-0.16714 1.4715,-0.14951 3.0423,0.38733 2.3276,0.79549 2.7933,1.1711 5.3258,4.2947 l 1.4047,1.7327 -1.0544,-0.11021 c -1.4615,-0.15275 -2.57,0.04556 -3.1238,0.55881 -1.0294,0.95398 -0.33322,1.2801 1.1395,0.53387 0.48275,-0.24463 1.1806,-0.444 1.5508,-0.44304 1.4479,0.0038 3.4307,1.4073 3.4307,2.4286 0,0.74029 -0.70434,3.2603 -1.1658,4.1708 -0.23801,0.46969 -0.7804,1.2808 -1.2053,1.8025 -1.1568,1.4203 -1.3147,1.735 -1.418,2.8266 -0.15642,1.6535 -0.63774,2.3643 -2.0995,3.1005 -1.1576,0.58294 -1.2935,0.71217 -1.7313,1.6462 -0.45241,0.96516 -0.47632,1.1583 -0.49978,4.0381 -0.0162,1.987 -0.11687,3.4212 -0.2935,4.1809 -0.14787,0.63603 -0.32522,1.6768 -0.39411,2.3129 -0.11853,1.0943 -0.17312,1.2018 -1.0166,2.0015 -0.49023,0.4648 -0.97252,0.84508 -1.0718,0.84508 -0.29389,0 -0.006,-1.2981 0.85062,-3.8365 1.1957,-3.5427 1.0407,-4.4855 -0.76568,-4.6591 -1.0212,-0.09812 -0.97428,0.05401 -0.57501,-1.8654 0.13115,-0.63045 0.10504,-0.68523 -0.5069,-1.0634 -0.90318,-0.5582 -1.7465,-0.51758 -2.5885,0.12467 -0.55398,0.42254 -0.9355,0.54722 -1.9797,0.64696 -1.6708,0.15959 -1.9892,0.34771 -2.4846,1.4679 -0.61939,1.4005 -0.84221,1.5152 -1.6191,0.83309 -0.90441,-0.79409 -1.5572,-0.70651 -2.3327,0.31298 -1.049,1.379 -1.1751,2.2038 -1.0061,6.5855 0.21178,5.4939 0.12076,6.1604 -0.88991,6.5159 -0.44408,0.15618 -0.55836,0.11914 -0.91625,-0.29693 -0.69676,-0.81003 -0.71386,-1.6411 -0.08599,-4.1782 0.54872,-2.2173 0.56198,-2.365 0.49997,-5.5691 -0.06987,-3.6099 -0.2491,-4.3329 -1.1289,-4.5537 -1.2253,-0.30754 -2.5202,0.42875 -3.4486,1.9609 -0.3514,0.57991 -0.73204,1.0846 -0.84586,1.1216 -0.12085,0.03927 -0.32733,-0.34685 -0.49628,-0.92802 -0.22842,-0.78575 -0.39085,-1.0345 -0.77156,-1.1817 -0.70841,-0.27393 -1.2527,-0.0081 -2.0923,1.0218 -0.70001,0.85871 -0.76421,0.89574 -1.1666,0.67275 -0.71043,-0.39374 -1.0092,-0.2906 -1.4701,0.50754 -1.1749,2.0346 -1.8178,5.7861 -1.7149,10.008 0.04057,1.6635 0.07667,4.3855 0.08024,6.049 0.0062,2.9154 -0.01075,3.0614 -0.47103,4.0475 -0.56544,1.2114 -1.018,1.3454 -1.556,0.4607 z m 15.47,-25.778 c 0,-0.34751 -2.5712,-1.2297 -3.5971,-1.2342 -1.0607,-0.0046 -0.0099,0.77813 1.6401,1.2217 0.85994,0.23118 1.957,0.23818 1.957,0.01251 z m -9.7476,-5.3997 c 0.92638,-0.23499 2.0878,-0.6317 2.5809,-0.88158 0.90724,-0.45973 2.0073,-1.4156 2.0073,-1.7442 0,-0.21253 0.14086,-0.26827 -1.9904,0.78758 -1.6072,0.79622 -4.0073,1.5627 -4.8431,1.5467 -0.32748,-0.0063 -0.31346,-0.0388 0.11742,-0.27255 0.61743,-0.33496 0.62161,-0.56989 0.01285,-0.72268 -0.34514,-0.08663 -0.70698,0.01003 -1.3132,0.35082 -0.46025,0.25872 -1.1407,0.53353 -1.512,0.61068 -0.73484,0.15268 -1.0014,0.49508 -0.48882,0.62795 1.0044,0.26036 3.8307,0.10276 5.4292,-0.30273 z m -0.40754,-1.1627 c 0.36282,-0.28736 0.89473,-0.62598 1.182,-0.7525 0.83976,-0.36981 1.0171,-0.76368 0.42799,-0.95064 -0.41103,-0.13046 -2.1816,0.9465 -2.4835,1.5106 -0.45474,0.84969 -0.06472,0.93567 0.87352,0.19257 z m 14.493,0.05795 c -0.11359,-0.45259 -0.09885,-0.46185 0.57482,-0.36058 2.2583,0.33945 2.3816,0.34176 2.3816,0.04469 0,-0.1966 0.15885,-0.28707 0.50408,-0.28707 0.63803,0 0.77493,-0.13846 0.55087,-0.55713 -0.21915,-0.40948 -0.80259,-0.43387 -1.0215,-0.04272 -0.11791,0.2107 -0.19797,0.23173 -0.29352,0.07712 -0.07226,-0.11693 -0.10336,-0.2315 -0.0691,-0.2546 0.83354,-0.56213 1.07,-0.64285 1.3867,-0.47334 0.18828,0.10076 0.5057,0.1832 0.70539,0.1832 0.30676,0 0.34687,-0.08101 0.25861,-0.5223 -0.093,-0.46481 -0.0631,-0.51148 0.27132,-0.42403 0.32535,0.08508 0.37577,0.02088 0.37577,-0.47846 0,-0.55128 0.0246,-0.57181 0.55705,-0.46531 l 0.55705,0.11141 -0.11031,-0.66738 c -0.0607,-0.36706 -0.11119,-0.80749 -0.11227,-0.97873 -0.003,-0.55217 -0.50437,-0.33203 -1.0504,0.46166 -0.76344,1.1096 -1.6063,1.79 -3.1182,2.5172 -1.7861,0.85909 -3.0602,1.1191 -4.1092,0.83855 -1.0624,-0.28414 -1.3314,-0.27088 -1.3314,0.06562 0,0.41897 0.74526,1.0028 1.717,1.3452 1.2806,0.45114 1.5165,0.42833 1.3756,-0.133 z m -31.705,-0.82534 c -0.98988,-1.6207 -0.88369,-2.8055 0.3737,-4.1696 0.39277,-0.4261 0.66468,-0.82417 0.60426,-0.8846 -0.06043,-0.06043 -0.46915,-0.0093 -0.90828,0.11367 -0.72849,0.20396 -0.82227,0.2957 -1.0709,1.0475 -0.81262,2.457 -0.40625,4.4712 0.90207,4.4712 h 0.45236 z m 9.3976,0.53317 c 0,-0.02477 -0.16012,-0.60496 -0.35582,-1.2893 -0.85005,-2.9725 -0.2258,-4.0904 3.2558,-5.8303 1.3348,-0.66707 2.0006,-0.88545 3.1751,-1.0415 1.5737,-0.20904 2.1857,-0.42122 2.0144,-0.69842 -0.198,-0.32037 -2.131,-0.17751 -3.3881,0.2504 -1.4375,0.48932 -3.222,1.3635 -4.3176,2.115 -1.5163,1.0401 -2.2392,2.8491 -1.8142,4.5399 0.25649,1.0202 0.83336,1.9992 1.1781,1.9992 0.1388,0 0.25236,-0.02027 0.25236,-0.04504 z m 11.337,-0.88899 c 0.09464,-0.12231 0.22202,-0.36249 0.28307,-0.53373 0.0938,-0.26313 7.12e-4,-0.31135 -0.60066,-0.31135 -0.7358,0 -1.0157,0.27523 -0.81405,0.8006 0.12407,0.32332 0.89251,0.35353 1.1316,0.04447 z m 1.9318,-6.0689 c 0.80852,-1.5063 1.6872,-2.4671 3.1525,-3.4472 1.4336,-0.95882 3.8605,-2.0448 5.596,-2.504 1.0486,-0.27746 1.1639,-0.27616 2.0048,0.02248 0.92129,0.32722 1.2414,0.28715 1.2414,-0.15537 0,-0.19318 0.25216,-0.25704 1.023,-0.25909 0.56264,-0.0015 1.1431,-0.08319 1.2899,-0.18153 0.22843,-0.15305 0.20872,-0.22763 -0.13684,-0.5178 -0.32718,-0.27475 -0.59696,-0.32274 -1.4233,-0.2532 -0.56078,0.04719 -1.3621,0.17239 -1.7808,0.27821 -0.92822,0.23461 -1.1143,0.09672 -0.60346,-0.44708 0.5116,-0.54458 0.48781,-0.655 -0.14113,-0.655 -0.38389,0 -0.71052,0.19314 -1.2009,0.71011 -0.47946,0.50546 -1.2007,0.93872 -2.5026,1.5034 -4.6668,2.024 -7.5114,4.4564 -7.5114,6.423 0,0.89714 0.32452,0.72817 0.99285,-0.51694 z m 23.808,-0.7107 c -0.13854,-0.4443 -0.3914,-0.64164 -0.82706,-0.64546 -0.19183,-0.0017 -0.31135,-0.13931 -0.31135,-0.35855 0,-0.27494 -0.1186,-0.35582 -0.52174,-0.35582 -0.3655,0 -0.55557,-0.10656 -0.63468,-0.35582 -0.16035,-0.50522 -1.1497,-0.47039 -1.9437,0.06843 -0.34384,0.23334 -1.1806,0.54969 -1.8595,0.703 -2.5494,0.57574 -4.1162,1.714 -3.1852,2.3141 0.24891,0.16043 0.4147,0.09421 0.88956,-0.35536 0.32099,-0.3039 0.78008,-0.65376 1.0202,-0.77747 1.2548,-0.6465 3.6356,-0.90571 4.396,-0.47863 0.2116,0.11885 0.72059,0.59843 1.1311,1.0657 l 0.74637,0.84966 0.6095,-0.64626 c 0.45777,-0.48538 0.5799,-0.74118 0.4906,-1.0276 z m -42.417,-2.7095 c 0.91278,-1.346 1.8128,-2.2133 2.8417,-2.7382 0.75366,-0.38449 0.90221,-0.65685 0.4524,-0.82946 -0.5128,-0.19678 -1.1459,0.12317 -2.2302,1.127 -1.148,1.0629 -2.1238,2.5367 -2.1266,3.2121 -0.0026,0.63711 0.2142,0.47967 1.0626,-0.77147 z m 8.9523,-2.1001 c 0.31303,-0.33177 0.74845,-0.69441 0.9676,-0.80588 0.21915,-0.11146 0.52544,-0.44822 0.68065,-0.74835 0.21846,-0.42246 0.36787,-0.52328 0.6616,-0.44647 0.53519,0.13996 2.2489,-1.1987 2.3812,-1.86 0.11111,-0.55555 0.53638,-0.77897 2.0025,-1.052 1.176,-0.21902 1.2672,-0.29316 0.64935,-0.52805 -0.8176,-0.31085 -1.4281,-0.20756 -2.7913,0.47229 -1.0363,0.51681 -1.7085,1.0522 -3.1827,2.5352 -1.9852,1.9971 -2.7465,3.0365 -2.224,3.0365 0.1573,0 0.54211,-0.27145 0.85514,-0.60322 z"
       style="fill:#ffffff;fill-opacity:0.9171"
       id="path130" />
  </g>
  <path
     d="m 41.631825,92.701705 c -5.392573,-0.794767 -8.61876,-1.588945 -10.401076,-2.560169 -1.740077,-0.948412 -5.259797,-3.314408 -5.810683,-3.905929 -0.459156,-0.492999 -0.469145,-0.571212 -0.606697,-4.752219 -0.07692,-2.338014 -0.277627,-6.148772 -0.446011,-8.468162 -0.18537,-2.553575 -0.341698,-7.656001 -0.396243,-12.933621 -0.08208,-7.940355 -0.05497,-9.049257 0.304663,-12.464895 0.217111,-2.061858 0.467068,-4.001812 0.555431,-4.311118 0.332617,-1.163972 0.449112,1.151854 0.243167,4.834291 -0.110748,1.980232 -0.171807,5.709186 -0.135681,8.286197 0.03613,2.577278 0.119899,8.523767 0.186145,13.214321 0.135894,9.621352 0.338953,13.028079 0.807348,13.545816 0.251945,0.278384 0.34716,0.293845 0.551475,0.08953 0.204314,-0.204305 0.201026,-0.617969 -0.01902,-2.395758 -0.325408,-2.628785 -0.582646,-13.406803 -0.563496,-23.610943 0.01302,-6.935981 0.01249,-9.463625 -0.003,-14.901199 -0.006,-2.091978 0.326139,-3.290258 1.118169,-4.034427 0.51575,-0.484516 0.508087,-0.497954 0.536941,0.941639 0.01987,0.991364 0.04674,1.043672 0.700166,1.363226 0.941104,0.460224 1.48602,0.208333 2.299251,-1.06292 0.641735,-1.003216 1.510526,-1.777861 1.738384,-1.550003 0.128685,0.128686 0.431815,5.690918 0.456294,8.372456 0.01051,1.151408 -0.185173,3.039143 -0.553738,5.342047 -0.313493,1.958668 -0.6259,4.239027 -0.694257,5.067406 -0.159456,1.932558 0.163662,4.052695 0.777229,5.099575 0.436057,0.744035 0.522718,0.798206 1.278035,0.798206 1.041177,0 1.664867,-0.485122 2.111315,-1.642144 0.29994,-0.777371 0.332065,-1.309669 0.257166,-4.262285 -0.232607,-9.169557 -0.07803,-11.534572 0.928808,-14.208804 0.406107,-1.078514 0.413521,-1.085465 0.854346,-0.796602 0.676043,0.442955 0.857198,0.374518 1.95742,-0.739508 0.559958,-0.567007 1.080475,-1.030929 1.156665,-1.030929 0.07617,0 0.191848,0.316301 0.257069,0.702892 0.226717,1.343889 0.238845,1.358948 1.096693,1.358948 0.861956,0 1.314482,-0.34282 1.855744,-1.405731 0.352703,-0.692627 1.211558,-1.509101 1.762088,-1.675204 0.315507,-0.0952 0.48726,-0.0082 0.737458,0.373608 0.270329,0.412568 0.335389,1.031375 0.380345,3.617564 0.05155,2.965626 0.0293,3.193929 -0.450199,4.619354 -0.723254,2.14999 -0.706876,3.657754 0.05307,4.886955 0.657401,1.063366 0.94859,1.168518 2.059719,0.744187 1.395217,-0.532859 1.507319,-0.868533 1.410633,-4.225303 -0.181315,-6.295628 -0.139174,-7.531068 0.281369,-8.246721 0.211827,-0.360589 0.589311,-0.757411 0.83885,-0.881837 0.412256,-0.205535 0.502463,-0.167039 0.987443,0.421319 0.891291,1.081277 1.615499,0.768451 2.631725,-1.136794 l 0.597937,-1.121021 0.914193,0.04812 c 0.75259,0.03961 1.125655,-0.0701 2.109979,-0.620553 1.686789,-0.943333 2.37054,-0.648695 1.864744,0.803472 -0.387813,1.113536 0.0084,1.737137 1.103733,1.737137 0.321416,0 0.739874,0.113688 0.929877,0.252631 0.471506,0.344771 0.308985,1.263509 -0.677531,3.830005 -0.989493,2.574338 -1.075663,3.894166 -0.304325,4.666049 0.985037,0.985838 2.649815,0.505092 2.867158,-0.828032 0.230362,-1.413128 0.439052,-1.512576 0.452347,-0.2154 l 0.01269,1.238648 -0.984056,0.651288 c -2.235358,1.479337 -8.182382,4.53354 -10.679995,5.485071 -0.915441,0.34871 -1.025404,0.66453 -0.231297,0.66453 0.89646,0 3.057143,-0.991542 6.741006,-3.093412 2.061858,-1.176358 4.065081,-2.270111 4.451646,-2.430601 l 0.702893,-0.291661 0.03697,1.080297 c 0.05236,1.530042 -0.03595,2.696242 -0.231886,3.062311 -0.181163,0.338507 -4.344178,2.729481 -7.396509,4.248027 -2.820819,1.403415 -4.206946,1.912151 -7.497383,2.751669 -1.649451,0.42082 -2.999042,0.849454 -2.999042,0.952601 0,0.103146 0.453888,0.213314 1.008651,0.244949 2.089305,0.119124 5.943905,-1.370711 13.096695,-5.061614 3.449856,-1.780266 3.983099,-2.004648 3.983099,-1.675471 0,0.208975 0.09254,1.46 0.205642,2.780007 0.156408,1.825356 0.149885,2.96108 -0.02722,4.74304 l -0.232857,2.343005 -1.612826,1.023978 c -3.530235,2.241151 -5.507705,3.367785 -6.442928,3.670675 -0.539276,0.174658 -1.528795,0.551305 -2.198823,0.836951 -0.707143,0.301482 -1.926142,0.612748 -2.905297,0.741843 -2.00055,0.263743 -2.343005,0.348622 -2.343005,0.580748 0,0.256605 1.426762,0.20803 2.717896,-0.09252 0.95768,-0.22293 3.141977,-0.522389 3.744103,-0.5133 0.100517,0.0015 0.209215,0.08213 0.241545,0.17915 0.03234,0.09701 -0.28185,0.230852 -0.698205,0.297436 -0.839875,0.134308 -0.888485,0.22039 -0.465215,0.824672 0.668175,0.954026 1.957509,0.145902 1.957509,-1.226796 0,-0.735409 0.0425,-0.794553 0.816411,-1.136883 0.449041,-0.198629 1.397979,-0.712186 2.108731,-1.141249 0.710734,-0.429053 1.756117,-0.907599 2.323222,-1.063455 1.637154,-0.450012 1.874457,-0.585791 1.874457,-1.072633 0,-0.290137 0.161363,-0.516052 0.468592,-0.656038 l 0.468601,-0.213501 v 5.164893 l -0.702892,0.249895 c -0.386592,0.137437 -2.136801,0.919629 -3.889354,1.738117 -2.357173,1.100882 -3.317526,1.462228 -3.69019,1.387998 -0.394674,-0.07852 -0.63818,0.03334 -1.124585,0.516739 -0.357043,0.354779 -1.186429,0.832122 -1.951717,1.123338 -0.731978,0.278455 -1.490922,0.623378 -1.68661,0.766482 -1.409742,1.03084 2.512583,-0.210784 6.485167,-2.052858 3.692863,-1.712364 5.816565,-2.639122 6.352124,-2.772076 l 0.447776,-0.111113 -0.09849,2.004293 c -0.160187,3.25996 -0.601466,3.922859 -3.841145,5.771029 l -1.674402,0.955184 -0.82723,-0.335504 c -0.454966,-0.184523 -0.932639,-0.340218 -1.061494,-0.345984 -0.427351,-0.01908 -0.242668,0.377075 0.326834,0.701146 0.308628,0.175612 0.56166,0.37327 0.562319,0.439239 5.62e-4,0.06594 -0.382038,0.300065 -0.850398,0.520223 -0.84499,0.397196 -0.967482,0.7656 -0.254511,0.7656 0.487777,0 1.274827,-0.41132 4.458775,-2.330261 l 2.647409,-1.595539 -0.103556,0.978799 c -0.113484,1.072722 0.0622,1.522646 0.525142,1.345047 0.418734,-0.160677 0.701003,-1.082169 0.701003,-2.288469 0,-0.853695 0.0737,-1.080831 0.445557,-1.373295 0.555716,-0.437127 0.812535,-1.20532 0.337384,-1.009097 -0.943332,0.389479 -0.92854,0.415803 -0.6714,-1.20024 0.178998,-1.124942 0.199894,-2.530584 0.08308,-5.587549 l -0.156087,-4.084508 0.543053,-0.618495 c 0.624626,-0.711412 0.698945,-1.167715 0.190191,-1.167715 -0.336093,0 -0.358469,-0.296295 -0.470704,-6.232359 -0.148335,-7.845362 -0.149868,-7.77443 0.181689,-8.415586 0.24486,-0.473502 0.243791,-0.598436 -0.0093,-1.087871 -0.157281,-0.304155 -0.285967,-0.990027 -0.285967,-1.52425 0,-0.867142 0.07029,-1.037523 0.656038,-1.590014 0.652152,-0.615064 0.822399,-1.081277 0.473591,-1.296837 -0.10034,-0.06201 -0.329953,0.05953 -0.510252,0.270096 -0.496974,0.580427 -0.679429,0.462604 -0.568165,-0.366898 0.08685,-0.647501 0.05187,-0.749738 -0.25648,-0.749738 -0.634366,0 -0.381415,-0.357916 0.673878,-0.953491 1.39878,-0.789438 1.379087,-1.155864 -0.04035,-0.748794 -0.5975,0.171361 -0.599701,0.169472 -0.491057,-0.421737 0.115435,-0.628164 0.251116,-0.777078 1.173418,-1.288105 0.316996,-0.175612 0.576355,-0.407569 0.576355,-0.515456 0,-0.297721 -0.704354,-0.23455 -1.230806,0.110392 -0.257318,0.168598 -0.525062,0.249342 -0.594979,0.179434 -0.25288,-0.25288 -0.123829,-2.851117 0.193461,-3.895235 0.298015,-0.98067 0.722461,-1.655778 1.036543,-1.648649 0.06995,0.0016 0.248389,0.07956 0.396519,0.173286 0.412808,0.261212 0.544622,4.355228 0.560332,17.403446 0.02268,18.841703 -0.464056,32.137116 -1.232143,33.658246 -0.163564,0.323876 -0.477307,0.787388 -0.697207,1.030039 -0.483643,0.533607 -4.313969,2.827592 -5.991223,3.587979 -1.799693,0.816046 -8.129717,2.563288 -10.853762,2.995745 -2.837127,0.450502 -4.169876,0.452311 -7.172661,0.0098 z m 5.342047,-3.044133 c 0.463905,-0.104198 1.644818,-0.208752 2.624151,-0.232331 1.496447,-0.03604 2.124682,-0.15795 3.936227,-0.763925 2.145534,-0.717676 8.645137,-3.884274 8.793507,-4.283939 0.04278,-0.115381 0.316916,-0.433393 0.609175,-0.706715 0.292267,-0.273314 0.531379,-0.558176 0.531379,-0.63302 0,-0.07485 -0.433713,-0.09441 -0.963828,-0.0435 -0.657677,0.06316 -1.50616,0.375979 -2.671023,0.984681 -1.414019,0.73892 -5.054129,2.265923 -6.346332,2.66229 -0.319955,0.09813 -0.4673,0.434988 -0.187446,0.42851 0.807055,-0.01871 3.027291,-0.72182 4.99077,-1.580568 1.327403,-0.58056 2.451631,-1.017384 2.498237,-0.97069 0.196232,0.196232 -1.835159,1.170834 -4.040933,1.938707 -1.303699,0.453844 -2.731441,1.036186 -3.172809,1.294164 -0.441315,0.257941 -1.369107,0.586602 -2.061858,0.730374 -1.160943,0.240948 -6.347134,0.650317 -8.264276,0.652349 -0.708177,7.3e-4 -0.787753,0.03918 -0.585604,0.282786 0.52622,0.634054 2.15498,0.72509 4.310494,0.24093 z m -6.665528,-0.691691 c 0.115791,-0.187348 -0.994661,-0.474928 -2.987547,-0.773718 -0.721642,-0.10819 -1.934251,-0.369501 -2.694638,-0.580694 -2.037888,-0.565982 -3.567573,-0.197712 -1.918835,0.461953 1.775633,0.710493 7.311675,1.360552 7.601198,0.89245 z m -9.823635,-2.043769 c -0.461027,-0.381022 -1.276164,-1.135546 -1.811366,-1.676808 -0.855888,-0.865539 -1.380424,-1.201043 -1.380424,-0.882862 0,0.303977 0.788412,1.560072 1.248093,1.988431 0.792066,0.738118 1.78392,1.284094 2.313331,1.27349 0.436057,-0.0087 0.410393,-0.05753 -0.369643,-0.702197 z m 22.195854,-0.922124 c 0.17334,-0.451714 -0.3952,-0.848795 -0.859541,-0.600272 -0.191937,0.102728 -0.348987,0.352498 -0.348987,0.555057 0,0.487403 1.024068,0.525721 1.208528,0.04518 z m -4.314682,-0.721232 c 0.348577,-0.348577 0.388089,-1.223855 0.06962,-1.542339 -0.123714,-0.123713 -0.448311,-0.224926 -0.721321,-0.224926 -0.408602,0 -0.550797,0.138497 -0.803981,0.783004 -0.169169,0.430657 -0.287393,0.797769 -0.262727,0.815823 0.699275,0.511784 1.314749,0.572113 1.718424,0.168438 z m -13.731168,-1.01774 c 0.535542,-0.861003 0.889661,-1.560518 0.827159,-1.634124 -0.01917,-0.02259 -0.338374,0.0082 -0.709344,0.06835 -0.617524,0.100215 -0.70693,0.197515 -1.058554,1.151943 -0.211221,0.573386 -0.338231,1.116654 -0.282251,1.207191 0.213501,0.345458 0.718184,0.01798 1.222964,-0.793456 z m 7.794213,-0.607998 c 0.128864,-0.103093 0.234301,-0.380096 0.234301,-0.615555 0,-0.337963 -0.08014,-0.40714 -0.380612,-0.328562 -0.416088,0.108814 -0.931481,0.738483 -0.931481,1.138041 0,0.27105 0.640666,0.155758 1.077712,-0.193951 z M 29.785809,83.206053 c 0.329926,-0.167975 0.992522,-0.59104 1.472476,-0.940214 0.479935,-0.349111 1.867862,-1.043583 3.084232,-1.543319 2.203635,-0.905371 2.803087,-1.33471 1.863497,-1.33471 -1.63858,0 -7.224079,2.875178 -7.55584,3.889354 -0.106444,0.325595 0.421167,0.292553 1.135456,-0.07113 z m 14.471682,-1.19525 c 0.187161,-0.20681 0.289862,-0.426469 0.228206,-0.488117 -0.201633,-0.201641 -1.164953,0.231458 -1.227064,0.551662 -0.08616,0.444256 0.577504,0.402035 0.998849,-0.06353 z m 16.332328,-2.079325 c 0.117547,-0.24748 0.272057,-0.941639 0.343355,-1.542517 0.126413,-1.065504 0.119944,-1.087426 -0.260588,-0.883735 -0.214616,0.114856 -0.39021,0.328197 -0.39021,0.474081 0,0.145893 -0.139201,0.34315 -0.309341,0.438366 -0.219277,0.122715 -0.322771,0.476291 -0.355465,1.214409 -0.044,0.993413 -0.02759,1.034583 0.356195,0.895391 0.221273,-0.0803 0.498498,-0.34847 0.616054,-0.595959 z m -11.146938,0.270739 c 0.188532,-0.170613 0.342775,-0.429054 0.342775,-0.574305 0,-0.185067 0.182286,-0.246482 0.609183,-0.20525 0.538883,0.05205 0.609174,0.0051 0.609174,-0.404557 0,-0.401812 -0.11212,-0.483554 -0.843456,-0.614975 -0.463914,-0.08335 -2.614795,-0.170043 -4.779666,-0.192623 -3.63396,-0.03794 -3.986574,-0.01228 -4.592264,0.333347 l -0.656038,0.37442 0.653053,0.0625 c 0.359172,0.03436 1.286946,-0.02873 2.061858,-0.140163 1.102486,-0.158574 1.9183,-0.141839 3.751766,0.07694 1.288639,0.15377 2.379986,0.280308 2.425166,0.281208 0.04522,7.32e-4 -0.102398,0.173607 -0.328019,0.383812 -0.427129,0.397927 -0.496502,0.593695 -0.285264,0.804934 0.217967,0.217966 0.677362,0.135494 1.031732,-0.185245 z m 4.84133,-0.135441 c 0,-0.432644 -0.416667,-0.636549 -1.593222,-0.779635 l -1.124585,-0.136795 0.359636,0.402721 c 0.575614,0.644587 2.358242,1.032979 2.358242,0.513727 z m 4.630849,-1.546349 c -0.152549,-0.15255 -1.256915,0.354574 -1.256915,0.577165 0,0.129497 0.228713,0.479722 0.508255,0.778245 l 0.508256,0.542831 0.155998,-0.913302 c 0.0858,-0.502356 0.123802,-0.945561 0.08446,-0.984948 z M 29.294449,76.886036 c 0.03363,-0.03363 0.0091,-0.440959 -0.05455,-0.905193 -0.108066,-0.788484 -0.148219,-0.83819 -0.609789,-0.755219 -0.702982,0.126333 -0.96267,0.385629 -0.96267,0.961155 0,0.695318 0.35559,0.998938 1.017206,0.868533 0.301758,-0.05951 0.576167,-0.135646 0.609789,-0.169267 z m 6.894277,-1.668788 c -0.173713,-0.809978 -0.233311,-0.890312 -0.659949,-0.890312 -0.518379,0 -0.481968,0.833147 0.05276,1.207726 0.616294,0.431665 0.75259,0.360429 0.607187,-0.317388 z m 5.804357,0.127188 c 0.162004,-0.162004 0.294549,-0.582137 0.294549,-0.933708 0,-0.525205 -0.08342,-0.660013 -0.468183,-0.756609 -0.956788,-0.240137 -1.596162,0.523565 -1.234548,1.474614 0.223767,0.588554 0.92756,0.696299 1.408137,0.215605 z m 5.929558,-1.500457 c 0.20321,-0.244851 0.199119,-0.324605 -0.02391,-0.465722 -0.562399,-0.355866 -1.067197,-0.0668 -0.853909,0.48898 0.137419,0.358112 0.570847,0.346626 0.877818,-0.02325 z M 30.854254,72.452506 c 0,-0.103093 0.105436,-0.187909 0.2343,-0.188489 0.128864,-5.62e-4 0.550601,-0.08889 0.937184,-0.196249 0.603703,-0.167655 0.702893,-0.271149 0.702893,-0.733369 0,-0.935669 -0.16695,-1.131179 -0.965878,-1.131179 -0.707544,0 -0.757411,0.04103 -1.196498,0.984056 -0.557472,1.197389 -0.572746,1.452604 -0.08693,1.452604 0.206185,0 0.374873,-0.08434 0.374873,-0.187446 z m 6.229239,-1.933538 c 0.39733,-0.139549 0.249058,-0.631924 -0.236724,-0.786069 -0.73483,-0.233222 -1.525765,0.753178 -1.22742,1.530576 0.104519,0.272369 0.183293,0.252399 0.629394,-0.159536 0.28046,-0.258984 0.656109,-0.522228 0.834759,-0.58498 z m -6.890267,-0.307497 c 0.160454,-0.259626 -0.729956,-0.787824 -1.093129,-0.648472 -0.314118,0.120541 -0.407079,0.478243 -0.182607,0.702714 0.189976,0.189977 1.150071,0.149155 1.275718,-0.05424 z m 21.447319,-1.679125 c 0.143888,-0.09111 0.209786,-0.300688 0.146463,-0.465731 -0.126627,-0.329998 -0.632352,-0.389631 -1.052049,-0.124043 -0.223019,0.141125 -0.227118,0.22088 -0.02391,0.465731 0.275497,0.331958 0.54447,0.367852 0.92952,0.124052 z m -5.990511,-0.566944 c 0.403924,-0.255598 -0.08799,-0.761145 -0.740604,-0.761145 -0.509851,0 -0.859025,0.416578 -0.642689,0.766697 0.135503,0.219249 1.033781,0.215685 1.383365,-0.0055 z m 7.461561,-1.336759 c 3.1156,-0.713925 9.582143,-4.131559 10.995449,-5.810773 0.974343,-1.157913 -0.04378,-0.955987 -1.775277,0.352043 -1.760394,1.329809 -6.790017,4.159896 -7.392855,4.159896 -0.0464,0 0.01172,-0.210873 0.129149,-0.468592 0.159723,-0.350546 0.159723,-0.586656 0,-0.937184 -0.268697,-0.589721 -0.599033,-0.589979 -1.531735,-0.0011 -0.632664,0.399379 -0.71797,0.528965 -0.586121,0.890311 0.08676,0.237785 0.417941,0.510867 0.756538,0.623833 l 0.602259,0.200919 -0.715297,0.203032 c -2.950566,0.837459 -3.598138,1.060425 -3.507423,1.207458 0.115988,0.187678 0.771598,0.09672 3.02542,-0.419741 z M 27.480498,66.516086 c 0,-0.432128 -0.548222,-0.99876 -0.966234,-0.99876 -0.474224,0 -0.43342,0.304324 0.114249,0.852012 0.535479,0.535478 0.852012,0.590024 0.852012,0.146819 z m 15.419828,0.201213 c 0.207469,-0.207469 -0.09114,-0.649586 -0.625295,-0.925777 -0.671276,-0.347125 -0.736363,-0.343685 -0.736363,0.03904 0,0.639927 0.974077,1.274293 1.361622,0.88673 z m -6.64744,-0.675196 c 0.123714,-0.123713 0.224926,-0.461098 0.224926,-0.749738 0,-0.457436 -0.07174,-0.524831 -0.558746,-0.524831 -0.439532,0 -0.583813,0.09989 -0.676248,0.468174 -0.06463,0.257496 -0.06888,0.594889 -0.0095,0.749738 0.129604,0.337732 0.706386,0.369785 1.019523,0.05666 z m -7.95791,-3.357092 c 0.446866,-0.20361 0.872988,-0.873354 0.872988,-1.372047 0,-0.214919 -0.525454,-0.470731 -0.984057,-0.479081 -0.07732,-0.0015 -0.140573,0.197988 -0.140573,0.443089 0,0.2451 -0.12652,0.550654 -0.281164,0.678983 -0.310419,0.25763 -0.384774,0.937185 -0.10254,0.937185 0.09824,0 0.38415,-0.09366 0.635373,-0.208111 z M 42.08763,62.399249 c 0.430969,-0.547883 0.509432,-1.372048 0.163555,-1.717889 -0.3096,-0.309608 -1.29657,-0.282403 -1.769395,0.04876 -0.58114,0.407052 -0.898331,1.286411 -0.638964,1.771088 0.330523,0.617595 1.72876,0.554077 2.244804,-0.101997 z m 16.49451,-1.686967 c 0.440041,-0.559414 0.527753,-1.568003 0.136376,-1.568003 -0.536316,0 -1.15212,1.101416 -0.957858,1.713344 0.150866,0.475337 0.36271,0.437839 0.821527,-0.145403 z M 47.701645,59.041266 c -0.26246,-0.26246 -0.313886,-0.26246 -0.53171,0 -0.19657,0.236849 -0.19657,0.344273 0,0.58114 0.217824,0.262459 0.26925,0.262459 0.53171,0 0.26246,-0.26246 0.26246,-0.318672 0,-0.58114 z m 3.546631,-0.121806 c 0.123714,-0.123714 0.224926,-0.418931 0.224926,-0.656038 0,-0.322966 -0.105793,-0.43039 -0.421737,-0.428243 -0.583403,0.0039 -0.811733,0.193016 -0.958749,0.793751 -0.115087,0.470258 -0.07982,0.515456 0.402249,0.515456 0.290619,0 0.629616,-0.101222 0.75332,-0.224926 z M 40.414119,57.653811 c 0,-0.490647 -0.517479,-0.630445 -0.746887,-0.201766 -0.255277,0.476987 -0.243844,0.528012 0.137722,0.614664 0.448328,0.1018 0.609174,-0.0072 0.609174,-0.41288 z m -11.245852,-3.66408 c 0,-0.662721 -0.101943,-0.749008 -0.640711,-0.542261 -0.350777,0.134612 -0.389104,0.655833 -0.07156,0.973364 0.424072,0.424072 0.712267,0.249645 0.712267,-0.431103 z m 13.575223,0.296616 c 0.507391,-0.560662 0.313663,-1.189191 -0.432173,-1.402256 -0.532574,-0.152104 -0.674537,-0.12497 -0.890311,0.170149 -0.397615,0.543775 -0.319776,1.203449 0.165007,1.398246 0.629421,0.252996 0.800398,0.228455 1.157468,-0.166139 z m 12.842727,-0.85325 c 0.486619,-0.251633 0.948234,-1.086891 0.948234,-1.71575 0,-0.338935 -0.980582,-0.820288 -1.671016,-0.820288 -0.366792,0 -0.633101,0.127198 -0.759095,0.362559 -0.342714,0.640372 -0.239398,0.78761 0.460589,0.656251 0.925511,-0.173624 1.291848,-0.0043 1.033781,0.477913 -0.219695,0.41051 -0.862312,0.513014 -0.981205,0.156498 -0.111817,-0.335442 -0.707277,-0.02795 -0.707277,0.365231 0,0.77043 0.743234,1.000008 1.675917,0.517666 z M 30.208196,49.874613 c 0.287055,-0.287054 0.460082,-0.67476 0.460082,-1.030929 0,-0.527423 -0.04989,-0.570838 -0.656037,-0.570838 -0.701628,0 -0.827301,0.186866 -0.376941,0.560599 0.401241,0.333009 0.201944,0.51469 -0.458282,0.417781 -0.700219,-0.102763 -0.787825,0.347686 -0.153985,0.79163 0.550708,0.385736 0.644454,0.372432 1.185181,-0.168287 z m 24.418292,-0.149101 c -0.07824,-0.55094 -0.903411,-0.719779 -0.903411,-0.184852 0,0.450636 0.155962,0.60659 0.60659,0.60659 0.262673,0 0.340895,-0.111158 0.296785,-0.421738 z M 43.206869,47.726567 c 0.424562,-0.268832 0.09105,-0.765823 -0.513941,-0.765823 -0.71977,0 -1.122714,0.452997 -0.64841,0.72893 0.416391,0.242232 0.817873,0.254975 1.162368,0.03688 z m 13.090456,-0.168768 c 0.179185,-0.113822 0.16622,-0.240066 -0.05748,-0.55945 -0.338463,-0.483233 -0.449318,-0.501341 -0.92765,-0.151588 -0.30313,0.221647 -0.319152,0.306196 -0.106595,0.56232 0.26901,0.324133 0.719031,0.385442 1.091704,0.148709 z m -0.778031,-1.54528 c 3.317705,-1.384523 3.698834,-1.592866 3.236613,-1.770286 -0.331859,-0.12734 -5.665699,1.992262 -6.176396,2.454394 -0.311578,0.281975 -0.475587,0.639026 -0.293542,0.639026 0.0344,0 1.489407,-0.595424 3.233316,-1.323125 z M 29.162831,46.59324 c 0.320846,-0.202907 0.29626,-0.234301 -0.500725,-0.639526 -0.790311,-0.401812 -0.805959,-0.39683 -0.805959,0.257318 0,0.489177 0.06705,0.561945 0.515465,0.55945 0.283498,-0.0016 0.639534,-0.08134 0.791184,-0.177242 z M 43.36718,45.416168 c -0.11024,-0.330719 -1.217885,-0.943868 -1.44806,-0.801494 -0.31262,0.193211 -0.220007,0.812027 0.135432,0.904836 0.70242,0.183561 1.390226,0.12939 1.31261,-0.103369 z m 13.128775,-3.129412 c 1.410276,-0.249851 1.405731,-0.574287 -0.0081,-0.574287 -1.077088,0 -1.316442,0.06525 -1.771266,0.482787 l -0.525908,0.482787 0.749738,-0.124256 c 0.412363,-0.06834 1.112288,-0.188507 1.555528,-0.267023 z M 66.2884,37.397038 c 0.197043,-0.105455 0.451777,-0.36648 0.566089,-0.580053 0.188435,-0.352088 0.166977,-0.376157 -0.230005,-0.257933 -0.434258,0.129319 -0.906441,0.586736 -0.906441,0.878104 0,0.20091 0.138141,0.191188 0.570348,-0.04012 z"
     style="fill:#ffa500;fill-opacity:0.9171;stroke-width:0.731025"
     id="path134" />
</svg>
