<?xml version="1.0" encoding="UTF-8"?>
<svg version="1.1" viewBox="0 0 1200 1200" xmlns="http://www.w3.org/2000/svg">
  <g>
    <path
      d="m808.8 172.8c-31.199-27.602-70.801-13.199-103.2 6-3.6016-30-28.801-56.398-60-60-31.199-3.6016-60 13.199-78 38.398-10.801-19.199-34.801-30-56.398-21.602-16.801 7.1992-27.602 24-28.801 42-27.602-8.3984-60-7.1992-81.602 16.801-16.801 19.199-20.398 49.199-7.1992 69.602-15.602 7.1992-30 16.801-39.602 30-10.801 16.801-14.398 38.398-3.6016 56.398 21.602 36 63.602 27.602 97.199 15.602 4.8008 20.398 22.801 37.199 44.398 40.801 27.602 4.8008 54-12 72-31.199 25.199 22.801 60 33.602 94.801 28.801 16.801-2.3984 36-8.3984 49.199-20.398 7.1992-7.1992 13.199-16.801 14.398-26.398 32.398 8.3984 70.801 4.8008 90-25.199 15.602-22.801 14.398-58.801-6-78 22.805-22.805 27.605-60.008 2.4062-81.605zm-12 148.8c-18 24-56.398 21.602-81.602 10.801-8.3984-3.6016-20.398 4.8008-14.398 14.398 9.6016 12-9.6016 25.199-19.199 28.801-12 6-25.199 8.3984-39.602 7.1992-26.398 0-52.801-12-70.801-31.199-3.6016-3.6016-10.801-3.6016-14.398 0-13.199 15.602-30 31.199-51.602 33.602-18 2.3984-43.199-12-38.398-33.602 1.1992-9.6016-7.1992-15.602-14.398-12-24 10.801-61.199 25.199-81.602 1.1992-9.6016-10.801-6-27.602 1.1992-38.398 9.6016-13.199 26.398-21.602 40.801-27.602 6-2.3984 10.801-12 4.8008-16.801-16.801-13.199-14.398-39.602 0-54 18-18 46.801-15.602 68.398-6 1.1992 2.3984 1.1992 3.6016 3.6016 6 7.1992 10.801 24 1.1992 18-9.6016 1.1992-3.6016 0-8.3984-4.8008-10.801-2.3984-12 2.3984-24 13.199-30 18-9.6016 38.398 9.6016 37.199 27.602-1.1992 12 15.602 13.199 20.398 2.3984 9.6016-26.398 36-48 64.801-46.801 27.602 1.1992 52.801 27.602 46.801 56.398-1.1992 8.3984 7.1992 16.801 14.398 12 24-15.602 57.602-38.398 87.602-22.801 26.398 13.199 20.398 49.199-1.1992 64.801-6 3.6016-7.1992 14.398 0 18 21.602 9.6055 24 38.406 10.801 56.406z" />
    <path
      d="m711.6 1002c-1.1992-3.6016-1.1992-7.1992-2.3984-10.801-2.3984-14.398-4.8008-27.602-6-42-2.3984-26.398-2.3984-52.801 0-79.199 6-54 21.602-106.8 32.398-159.6 22.801-117.6 27.602-237.6 13.199-356.4-1.1992-13.199-21.602-8.3984-19.199 4.8008 10.801 98.398 9.6016 199.2-4.8008 297.6-14.398 97.199-50.398 192-42 291.6 1.1992 10.801 2.3984 20.398 3.6016 31.199 1.1992 9.6016 10.801 32.398 1.1992 39.602-7.1992 6-22.801 6-31.199 7.1992-12 1.1992-25.199 2.3984-37.199 2.3984-24 0-48-3.6016-70.801-12-24-8.3984-22.801-30-18-51.602 8.3984-46.801 10.801-93.602 3.6016-140.4-8.3984-48-25.199-93.602-39.602-140.4-31.199-104.4-39.602-213.6-25.199-320.4 1.1992-13.199-18-13.199-20.398-1.1992-14.398 102-7.1992 206.4 19.199 306 14.398 50.398 33.602 99.602 43.199 151.2 4.8008 27.602 7.1992 55.199 6 82.801-1.1992 24-6 46.801-9.6016 70.801-1.1992 7.1992-1.1992 14.398 0 20.398-1.1992 1.1992-1.1992 2.3984-1.1992 3.6016-2.3984 16.801-8.3984 37.199-6 55.199 2.3984 13.199 12 24 24 30 30 15.602 67.199 18 99.602 16.801 18 0 36-1.1992 52.801-3.6016 13.199-1.1992 26.398-3.6016 37.199-10.801 10.801-7.1992 16.801-19.199 15.602-32.398-1.1992-15.602-10.801-28.801-13.199-44.398-0.007812-3.6094-2.4062-4.8086-4.8047-6.0078zm-13.203 69.602c-9.6016 4.8008-21.602 4.8008-32.398 6-14.398 1.1992-30 2.3984-44.398 2.3984-27.602 0-56.398-1.1992-81.602-12-10.801-4.8008-20.398-12-19.199-25.199 0-6 1.1992-12 2.3984-18 16.801 14.398 42 18 63.602 20.398 24 3.6016 49.199 3.6016 73.199 0 14.398-1.1992 33.602-3.6016 44.398-14.398 6 16.801 10.801 32.398-6 40.801z" />
    <path
      d="m502.8 338.4s-1.1992 0-2.3984-1.1992c-1.1992 0-2.3984-1.1992-2.3984-1.1992s-1.1992-1.1992-1.1992-1.1992c-1.1992-1.1992-1.1992-1.1992-2.3984-2.3984l-1.1992-1.1992c0-1.1992-1.1992-1.1992-1.1992-2.3984 0 0-1.1992-1.1992-1.1992-2.3984s0-1.1992-1.1992-2.3984v-2.3984-2.3984c0-2.3984 1.1992-3.6016 1.1992-6 1.1992-7.1992 0-13.199-4.8008-19.199-2.3984-3.6016-8.3984-3.6016-12-1.1992-8.3984 6-18 10.801-27.602 14.398-3.6016 1.1992-7.1992 2.3984-10.801 1.1992l-1.1992-1.1992s-1.1992-1.1992 0 0v-1.1992c1.1992-4.8008-1.1992-10.801-7.1992-12-4.8008-1.1992-10.801 1.1992-12 7.1992-2.3984 7.1992 0 15.602 6 20.398 6 6 14.398 7.1992 22.801 7.1992 8.3984-1.1992 15.602-4.8008 22.801-7.1992 2.3984-1.1992 3.6016-2.3984 4.8008-2.3984v1.1992c0 4.8008 1.1992 10.801 2.3984 14.398 4.8008 10.801 13.199 19.199 24 22.801 4.8008 1.1992 10.801-2.3984 12-7.1992 1.1914-4.8086-2.4062-10.809-7.207-12.012z" />
    <path
      d="m765.6 254.4c6-7.1992 10.801-15.602 10.801-25.199-1.1992-15.602-13.199-27.602-28.801-24-6 1.1992-8.3984 7.1992-7.1992 12 1.1992 6 7.1992 8.3984 12 7.1992h1.1992l1.1992 1.1992c1.1992 1.1992 1.1992 1.1992 1.1992 3.6016v2.3984c-2.3984 7.1992-8.3984 13.199-14.398 18-3.6016 2.3984-3.6016 7.1992-2.3984 10.801 1.1992 3.6016 4.8008 6 9.6016 6h1.1992c1.1992 0 0 0 1.1992 1.1992 0 0 2.3984 2.3984 2.3984 2.3984 2.3984 2.3984 2.3984 4.8008 2.3984 8.3984-1.1992 7.1992-7.1992 12-13.199 15.602-4.8008 2.3984-6 9.6016-3.6016 14.398 2.3984 4.8008 8.3984 6 14.398 3.6016 13.199-6 24-20.398 22.801-34.801 0-9.5938-4.7969-17.996-10.797-22.797z" />
    <path d="m630 321.6c-13.199 0-13.199 20.398 0 20.398s13.199-20.398 0-20.398z" />
    <path d="m651.6 282c-13.199 0-13.199 20.398 0 20.398 13.199 0 13.199-20.398 0-20.398z" />
    <path
      d="m681.6 331.2c0-1.1992-1.1992-3.6016-2.3984-4.8008-1.1992 0-1.1992-1.1992-2.3984-1.1992-1.2031-1.1992-3.6055-1.1992-4.8047-1.1992h-2.3984c-1.1992 0-2.3984 0-3.6016 1.1992-1.1992 0-2.3984 1.1992-3.6016 2.3984-1.1992 1.1992-1.1992 2.3984-2.3984 3.6016-1.1992 1.1992-1.1992 2.3984-1.1992 3.6016v2.3984c0 1.1992 1.1992 3.6016 2.3984 4.8008 1.1992 0 1.1992 1.1992 2.3984 1.1992 1.1992 1.1992 3.6016 1.1992 4.8008 1.1992h3.6016c1.1992 0 2.3984 0 3.6016-1.1992 1.1992 0 2.3984-1.1992 3.6016-2.3984 1.1992-1.1992 1.1992-2.3984 2.3984-3.6016 1.1992-1.1992 1.1992-2.3984 1.1992-3.6016-1.1992 0.003906-1.1992-1.1992-1.1992-2.3984z" />
    <path d="m470.4 230.4h-1.1992c-13.199 0-13.199 20.398 0 20.398h1.1992c13.203 0.003906 13.203-20.398 0-20.398z" />
    <path d="m519.6 228c-13.199 0-13.199 20.398 0 20.398 13.199 0 13.199-20.398 0-20.398z" />
    <path d="m526.8 193.2c-13.199 0-13.199 20.398 0 20.398 13.199 0.003906 13.199-20.398 0-20.398z" />
    <path
      d="m520.8 468c-1.1992-1.1992-1.1992-3.6016-2.3984-4.8008-1.1992-1.1992-1.1992-2.3984-2.3984-2.3984-1.1992-1.1992-2.3984-1.1992-3.6016-2.3984h-3.6016c-1.1992 0-2.3984 0-3.6016 1.1992-1.1992 0-1.1992 1.1992-2.3984 1.1992-1.1992 1.1992-2.3984 2.3984-2.3984 4.8008v2.3984c0 2.3984 0 3.6016 1.1992 4.8008 1.1992 1.1992 1.1992 3.6016 2.3984 4.8008 1.1992 1.1992 1.1992 2.3984 2.3984 2.3984 1.1992 1.1992 2.3984 1.1992 3.6016 2.3984h3.6016c1.1992 0 2.3984 0 3.6016-1.1992 1.1992 0 1.1992-1.1992 2.3984-1.1992 1.1992-1.1992 2.3984-2.3984 2.3984-4.8008v-2.3984c0-1.1992 0-2.4023-1.1992-4.8008z" />
    <path d="m507.6 522c-13.199 0-13.199 20.398 0 20.398 12 0 13.199-20.398 0-20.398z" />
    <path d="m538.8 507.6c-13.199 0-13.199 20.398 0 20.398s13.199-20.398 0-20.398z" />
    <path d="m654 868.8h-1.1992c-13.199 0-13.199 20.398 0 20.398h1.1992c13.199 0 13.199-20.398 0-20.398z" />
    <path d="m609.6 892.8c-13.199 0-13.199 20.398 0 20.398 13.199 0 13.199-20.398 0-20.398z" />
    <path d="m642 920.4c-13.199 0-13.199 20.398 0 20.398 13.199 0.003906 13.199-20.398 0-20.398z" />
    <path d="m661.2 946.8c-13.199 0-13.199 20.398 0 20.398s13.199-20.398 0-20.398z" />
    <path
      d="m624 970.8c-1.1992-1.1992-2.3984-2.3984-3.6016-3.6016-1.1992-1.1992-3.6016-1.1992-4.8008-2.3984-1.1992-1.1992-2.3984-1.1992-3.6016-1.1992h-3.6016c-1.1992 0-2.3984 1.1992-3.6016 2.3984-1.1992 1.1992-2.3984 1.1992-2.3984 2.3984 0 1.1992-1.1992 1.1992-1.1992 2.3984v6c0 1.1992 1.1992 1.1992 1.1992 2.3984l3.6016 3.6016c1.1992 1.1992 3.6016 1.1992 4.8008 2.3984 1.1992 1.1992 2.3984 1.1992 3.6016 1.1992h3.6016c1.1992 0 2.3984-1.1992 3.6016-2.3984 1.1992-1.1992 2.3984-1.1992 2.3984-2.3984 0-1.1992 1.1992-1.1992 1.1992-2.3984v-6s-1.1992-1.1992-1.1992-2.3984z" />
    <path
      d="m705.6 444c0-1.1992-1.1992-3.6016-2.3984-4.8008-1.1992 0-1.1992-1.1992-2.3984-1.1992-1.1992-1.1992-3.6016-1.1992-4.8008-1.1992h-2.3984c-1.1992 0-2.3984 0-3.6016 1.1992-1.1992 0-2.3984 1.1992-3.6016 2.3984-1.1992 1.1992-1.1992 2.3984-2.3984 3.6016-0.003906 0-1.2031 1.1992-0.003906 2.3984v2.3984c0 1.1992 1.1992 3.6016 2.3984 4.8008 1.1992 0 1.1992 1.1992 2.3984 1.1992 1.1992 1.1992 3.6016 1.1992 4.8008 1.1992l2.4023 0.003906c1.1992 0 2.3984 0 3.6016-1.1992 1.1992 0 2.3984-1.1992 3.6016-2.3984 1.1992-1.1992 1.1992-2.3984 2.3984-3.6016 1.1992-1.1992 1.1992-2.3984 1.1992-3.6016-1.1992 1.1992-1.1992 0-1.1992-1.1992z" />
    <path d="m666 498c-13.199 0-13.199 20.398 0 20.398s13.199-20.398 0-20.398z" />
    <path
      d="m710.4 529.2c0-1.1992-1.1992-2.3984-2.3984-3.6016-1.1992-1.1992-2.3984-1.1992-3.6016-2.3984-1.1992-1.1992-2.3984-1.1992-3.6016-1.1992h-2.3984c-1.1992 0-3.6016 1.1992-4.8008 2.3984 0 1.1992-1.1992 1.1992-1.1992 2.3984-1.1992 1.1992-1.1992 3.6016-1.1992 4.8008v4.8008c0 1.1992 0 2.3984 1.1992 3.6016 0 1.1992 1.1992 2.3984 2.3984 3.6016 1.1992 1.1992 2.3984 1.1992 3.6016 2.3984 1.1992 1.1992 2.3984 1.1992 3.6016 1.1992h2.3984c1.1992 0 3.6016-1.1992 4.8008-2.3984 0-1.1992 1.1992-1.1992 1.1992-2.3984 1.1992-1.1992 1.1992-3.6016 1.1992-4.8008v-4.8008c0.003906-1.1992-1.1992-2.4023-1.1992-3.6016z" />
    <path
      d="m675.6 606c-4.8008-20.398-12-40.801-28.801-55.199-16.801-13.199-37.199-18-56.398-9.6016l-1.1992 1.1992h-3.6016c-36 14.398-50.398 54-52.801 90-2.3984 34.801 4.8008 79.199 34.801 100.8 28.801 20.398 67.199 10.801 88.801-14.398 27.598-30 27.598-75.602 19.199-112.8zm-27.602 92.398c-13.199 20.398-42 34.801-64.801 20.398-22.801-14.398-30-48-30-73.199 0-28.801 7.1992-70.801 38.398-82.801 1.1992-1.1992 2.3984-1.1992 3.6016-2.3984 1.1992 0 3.6016 0 4.8008-1.1992 12-6 27.602 0 36 9.6016 10.801 10.801 15.602 25.199 19.199 39.602 7.1992 28.797 9.6016 63.598-7.1992 89.996z" />
  </g>
</svg>