<?xml version="1.0" encoding="UTF-8"?>
<svg version="1.1" viewBox="0 0 1200 1200" xmlns="http://www.w3.org/2000/svg">
 <g>
  <path d="m931.2 651.6c-1.1992-45.602-6-97.199-32.398-135.6-10.801-16.801-26.398-28.801-46.801-33.602-20.398-3.6016-40.801 1.1992-61.199 8.3984v-44.398c30-3.6016 60-14.398 81.602-36 16.801-16.801 25.199-40.801 13.199-62.398-9.6016-15.602-25.199-25.199-43.199-30 18-42 19.199-96-22.801-124.8-26.398-19.199-61.199-15.602-86.398 2.3984-3.6016-39.602-32.398-78-72-86.398-44.398-9.6016-87.602 15.602-106.8 52.801-16.801-19.199-45.602-26.398-70.801-15.602-33.602 15.602-48 48-54 81.602-16.801-22.801-48-36-75.602-24-32.398 14.398-43.199 54-31.199 84-38.398 7.1992-80.398 31.199-85.199 72-2.3984 20.398 9.6016 39.602 27.602 48s37.199 8.3984 55.199 3.6016c-3.6016 24 4.8008 48 32.398 57.602 7.1992 2.3984 13.199 3.6016 19.199 3.6016 10.801 163.2 15.602 327.6 16.801 492 0 2.3984 1.1992 4.8008 2.3984 7.1992 0 1.1992-1.1992 3.6016 0 4.8008-1.1992 3.6016-1.1992 7.1992 0 9.6016 14.398 21.602 21.602 48 22.801 73.199 0 3.6016 2.3984 7.1992 4.8008 9.6016 1.1992 3.6016 2.3984 6 6 7.1992 51.602 21.602 108 34.801 164.4 37.199 48 2.3984 99.602-3.6016 140.4-32.398 4.8008 2.3984 9.6016 1.1992 13.199-3.6016 4.8008-7.1992 6-15.602 6-25.199 1.1992-7.1992 2.3984-13.199 3.6016-20.398 4.8008-14.398 13.199-26.398 20.398-39.602 1.1992-2.3984 1.1992-3.6016 1.1992-6 0-1.1992 1.1992-2.3984 1.1992-2.3984 1.1992-10.801 1.1992-20.398 2.3984-31.199 0-2.3984-1.1992-4.8008-2.3984-6 2.3984-38.398 4.8008-76.801 6-115.2 43.199-2.3984 92.398-16.801 123.6-48 15.602-15.602 20.398-36 22.801-57.602 4.8008-24.008 3.6016-49.207 3.6016-74.406zm-565.2-200.4c-27.602-4.8008-27.602-30-19.199-51.602 3.6016-8.3984-6-16.801-13.199-14.398-16.801 4.8008-34.801 10.801-51.602 6-15.602-4.8008-25.199-19.199-20.398-34.801 9.6016-31.199 49.199-46.801 79.199-48 9.6016 0 14.398-10.801 8.3984-19.199-15.602-19.199-9.6016-54 13.199-64.801 24-12 56.398 9.6016 58.801 36 0 6 4.8008 9.6016 10.801 10.801 6 4.8008 18 2.3984 18-8.3984 1.1992-31.199 6-66 31.199-87.602 10.801-8.3984 24-14.398 38.398-10.801 14.398 3.6016 26.398 15.602 26.398 30 0 14.398 20.398 14.398 22.801 0 4.8008-42 50.398-75.602 91.199-63.602 38.398 10.801 62.398 55.199 51.602 93.602-3.6016 12 14.398 20.398 20.398 9.6016 14.398-27.602 52.801-40.801 78-20.398 34.801 26.398 26.398 75.602 7.1992 109.2-3.6016 7.1992 0 16.801 9.6016 16.801 16.801 0 37.199 7.1992 43.199 25.199 6 19.199-14.398 34.801-30 43.199-34.801 20.398-78 22.801-116.4 7.1992-7.1992-3.6016-16.801 6-14.398 13.199 14.398 39.602-37.199 52.801-66 50.398-36-2.3984-68.398-19.199-92.398-45.602-6-6-16.801-3.6016-19.199 4.8008-4.8008 19.199-14.398 44.398-39.602 43.199-26.398-1.1992-40.801-27.602-48-49.199-2.3984-8.3984-12-10.801-18-4.8008-16.801 13.203-37.199 28.805-60 24.004zm69.602 606c-1.1992-20.398-6-39.602-13.199-57.602 8.3984 3.6016 18 4.8008 27.602 7.1992 0 2.3984 0 4.8008 1.1992 7.1992 7.1992 16.801 12 36 13.199 55.199-9.6016-3.5938-19.203-7.1953-28.801-11.996zm52.797 18c-1.1992-22.801-6-44.398-14.398-64.801h2.3984c18 2.3984 36 4.8008 54 6 1.1992 22.801 1.1992 45.602 2.3984 68.398-16.797-2.3984-31.195-4.7969-44.398-9.5977zm97.203 16.801c-12 0-22.801-1.1992-33.602-3.6016 0-1.1992 1.1992-2.3984 1.1992-3.6016-1.1992-22.801-1.1992-44.398-2.3984-67.199 6 0 13.199 1.1992 19.199 1.1992h15.602v1.1992c1.1992 22.801 1.1992 46.801-1.1992 69.602 1.1992 1.2031 1.1992 2.4023 1.1992 2.4023zm22.797 0v-1.1992c1.1992-22.801 2.3984-46.801 1.1992-69.602v-2.3984c10.801 0 21.602-1.1992 32.398-2.3984-1.1992 21.602-2.3984 43.199-3.6016 66 0 3.6016 1.1992 6 3.6016 8.3984-11.996 1.1992-22.797 1.1992-33.598 1.1992zm74.402-10.801c-8.3984 2.3984-16.801 4.8008-25.199 6 1.1992-1.1992 1.1992-3.6016 2.3984-4.8008 1.1992-21.602 2.3984-44.398 3.6016-66v-2.3984c9.6016-1.1992 19.199-2.3984 30-4.8008-6 21.602-10.801 43.199-10.801 66-1.1992 2.4023-1.1992 4.8008 0 6zm51.598-56.398c-2.3984 7.1992-4.8008 15.602-6 22.801 0 3.6016 0 8.3984-1.1992 12-1.1992 0-3.6016 1.1992-4.8008 2.3984-6 4.8008-12 8.3984-19.199 10.801 1.1992-22.801 6-44.398 13.199-67.199v-1.1992c9.6016-2.3984 20.398-4.8008 30-7.1992-3.5977 9.5977-8.3984 17.996-12 27.598zm22.801-58.801v7.1992c-56.398 15.602-115.2 25.199-175.2 25.199-28.801 0-56.398-2.3984-85.199-6-15.602-2.3984-30-4.8008-45.602-8.3984-14.398-2.3984-30-6-40.801-15.602v-2.3984c-1.1992-164.4-6-328.8-16.801-493.2v-2.3984c12-3.6016 24-10.801 34.801-18 12 26.398 31.199 50.398 62.398 51.602 28.801 1.1992 45.602-19.199 55.199-43.199 31.199 26.398 72 42 112.8 39.602 21.602-1.1992 43.199-7.1992 57.602-24 9.6016-9.6016 14.398-22.801 14.398-36 10.801 3.6016 22.801 4.8008 34.801 4.8008 3.6016 170.4-1.1992 342-12 512.4 1.2031 4.793 2.4023 5.9961 3.6016 8.3945zm133.2-195.6c-26.398 26.398-68.398 38.398-105.6 40.801 0-8.3984 1.1992-18 1.1992-26.398 25.199-4.8008 51.602-12 70.801-30 24-24 25.199-64.801 27.602-96 1.1992-30 1.1992-68.398-14.398-94.801-18-28.801-49.199-27.602-78-21.602v-25.199c16.801-6 34.801-13.199 52.801-10.801 19.199 2.3984 32.398 16.801 42 33.602 19.199 36 22.801 79.199 24 118.8v58.801c-3.6016 18-4.8008 37.199-20.402 52.797zm-99.598-207.6h1.1992c13.199-3.6016 27.602-7.1992 40.801-3.6016 12 3.6016 18 13.199 22.801 25.199 8.3984 25.199 8.3984 54 6 80.398-1.1992 25.199-3.6016 57.602-22.801 75.602-14.398 12-32.398 16.801-51.602 20.398 2.4023-65.996 3.6016-132 3.6016-198z"/>
  <path d="m788.4 342c15.602-25.199 20.398-56.398 12-85.199-3.6016-13.199-25.199-8.3984-21.602 6 7.1992 26.398 2.3984 56.398-14.398 78-6 8.3984-2.3984 18 7.1992 19.199 12 1.1992 21.602 13.199 22.801 25.199 0 6 4.8008 10.801 10.801 12 6 0 12-4.8008 12-10.801-2.3984-20.398-13.199-36-28.801-44.398z"/>
  <path d="m387.6 388.8c-1.2031-1.1992-1.2031-1.1992 0 0-1.2031-1.1992-1.2031-1.1992 0 0-1.1992-1.1992-1.1992-1.1992-1.1992-1.1992 0-1.1992 0-1.1992-1.1992-2.3984v-1.1992-1.1992-1.1992c0-9.6016 1.1992-19.199 2.3984-28.801 1.1992-8.3984-9.6016-14.398-16.801-9.6016-8.3984 6-15.602 9.6016-25.199 12h-3.6016-2.3984-1.1992c-1.1992 0-2.3984-1.1992-2.3984-1.1992s-1.1992 0-1.1992-1.1992l-3.5977-3.5977c-3.6016-4.8008-12-4.8008-15.602 0-4.8008 4.8008-4.8008 10.801 0 15.602 7.1992 9.6016 20.398 13.199 32.398 12 6 0 10.801-2.3984 16.801-4.8008-1.1992 16.801 2.3984 36 21.602 37.199 6 0 12-4.8008 12-10.801-2.4062-4.8047-6.0078-8.4062-10.805-9.6055z"/>
  <path d="m511.2 230.4c-1.1992-1.1992-2.3984-3.6016-3.6016-3.6016-1.1992 0-2.3984-1.1992-2.3984-1.1992h-2.3984-1.1992-1.1992-1.1992-1.1992c-1.1992 0-1.1992 1.1992-2.3984 2.3984-1.1992 1.1992-1.1992 1.1992-2.3984 2.3984 0 1.1992-1.1992 1.1992-1.1992 2.3984v4.8008c0 1.1992 0 2.3984 1.1992 3.6016 1.1992 1.1992 1.1992 2.3984 2.3984 3.6016 1.1992 1.1992 2.3984 1.1992 3.6016 2.3984h2.3984c2.3984 0 3.6016 0 6-1.1992h1.1992c1.1992 0 2.3984-1.1992 3.6016-2.3984 1.1992-1.1992 2.3984-1.1992 2.3984-3.6016 0-1.1992 1.1992-1.1992 1.1992-2.3984 0-2.3984 1.1992-3.6016 0-6-4.8047 1.2031-4.8047 0.003906-4.8047-1.1992z"/>
  <path d="m552 243.6c0-2.3984-1.1992-3.6016-2.3984-4.8008 0-1.1992-1.1992-1.1992-1.1992-2.3984-1.1992-1.1992-2.3984-2.3984-3.6016-2.3984-1.1992-1.1992-2.3984-1.1992-4.8008-1.1992-1.1992 0-2.3984 0-4.8008 1.1992-1.1992 0-2.3984 1.1992-3.6016 2.3984 0 1.1992-1.1992 1.1992-1.1992 2.3984-1.1992 1.1992-2.3984 3.5977-2.3984 4.8008v2.3984c0 2.3984 1.1992 3.6016 2.3984 4.8008l2.3984 2.3984c1.1992 1.1992 2.3984 2.3984 3.6016 2.3984 1.1992 1.1992 2.3984 1.1992 4.8008 1.1992 1.1992 0 2.3984 0 4.8008-1.1992 1.1992 0 2.3984-1.1992 3.6016-2.3984 0-1.1992 1.1992-1.1992 1.1992-2.3984 1.1992-1.1992 1.1992-3.6016 1.1992-6v-1.1992z"/>
  <path d="m580.8 199.2c-14.398 0-14.398 21.602 0 22.801 14.398 0 14.398-22.801 0-22.801z"/>
  <path d="m685.2 378c0-1.1992-1.1992-2.3984-2.3984-3.6016-1.1992 0-1.1992-1.1992-2.3984-1.1992-1.1992-1.1992-3.6016-1.1992-6-1.1992h-2.3984c-2.3984 0-3.6016 1.1992-4.8008 2.3984-1.1992 1.1992-1.1992 1.1992-2.3984 2.3984-1.1992 1.1992-2.3984 2.3984-2.3984 3.6016-1.1992 1.1992-1.1992 2.3984-1.1992 4.8008 0 1.1992 0 2.3984 1.1992 4.8008 0 1.1992 1.1992 2.3984 2.3984 3.6016 1.1992 0 1.1992 1.1992 2.3984 1.1992 1.1992 1.1992 3.6016 1.1992 6 1.1992h2.3984c2.3984 0 3.6016-1.1992 4.8008-2.3984l2.3984-1.1992c1.1992-1.1992 2.3984-2.3984 2.3984-3.6016 1.1992-1.1992 1.1992-2.3984 1.1992-4.8008 0-3.6016-1.1992-4.8008-1.1992-6z"/>
  <path d="m667.2 424.8c0-1.1992-1.1992-2.3984-2.3984-3.6016-1.1992 0-1.1992-1.1992-2.3984-1.1992-1.1992-1.1992-3.6016-1.1992-6-1.1992h-2.3984c-2.3984 0-3.6016 1.1992-4.8008 2.3984l-1.2031 1.1992c-1.1992 1.1992-2.3984 2.3984-2.3984 3.6016-1.1992 1.1992-1.1992 2.3984-1.1992 4.8008 0 1.1992 0 2.3984 1.1992 4.8008 0 1.1992 1.1992 2.3984 2.3984 3.6016 1.1992 0 1.1992 1.1992 2.3984 1.1992 1.1992 1.1992 3.6016 1.1992 6 1.1992h2.3984c2.3984 0 3.6016-1.1992 4.8008-2.3984l2.3984-1.1992c1.1992-1.1992 2.3984-2.3984 2.3984-3.6016 1.1992-1.1992 1.1992-2.3984 1.1992-4.8008-1.1953-1.2031-1.1953-3.6016-2.3945-4.8008z"/>
  <path d="m625.2 394.8c-1.1992-1.1992-2.3984-3.6016-3.6016-3.6016-1.1992 0-2.3984-1.1992-2.3984-1.1992h-2.3984-1.1992-1.1992-1.1992-1.1992c-1.1992 0-1.1992 1.1992-2.3984 2.3984-1.1992 1.1992-1.1992 1.1992-2.3984 2.3984 0 1.1992-1.1992 1.1992-1.1992 2.3984v4.8008c0 1.1992 0 2.3984 1.1992 3.6016 1.1992 1.1992 1.1992 2.3984 2.3984 3.6016 1.1992 1.1992 2.3984 1.1992 3.6016 2.3984h2.3984c2.3984 0 3.6016 0 6-1.1992h1.1992c1.1992 0 2.3984-1.1992 3.6016-2.3984 1.1992-1.1992 2.3984-1.1992 2.3984-3.6016 0-1.1992 1.1992-1.1992 1.1992-2.3984 0-2.3984 1.1992-3.6016 0-6-3.6055 1.1992-4.8047 0-4.8047-1.1992z"/>
  <path d="m640.8 355.2c-14.398 0-14.398 21.602 0 22.801 13.199 0 14.398-22.801 0-22.801z"/>
  <path d="m505.2 715.2c0-14.398-21.602-14.398-22.801 0-1.1992 48-2.3984 97.199-4.8008 145.2 0 9.6016 3.6016 57.602-8.3984 58.801-16.801 2.3984-14.398-46.801-14.398-55.199-2.3984-49.199-3.6016-98.398-3.6016-146.4 0-46.801-1.1992-94.801 3.6016-141.6 1.1992-6 2.3984-20.398 9.6016-21.602 8.3984-2.3984 12 15.602 12 21.602 2.3984 25.199 2.3984 51.602 3.6016 76.801 1.1992 14.398 22.801 14.398 22.801 0-1.1992-28.801 0-58.801-4.8008-86.398-3.6016-18-15.602-38.398-37.199-33.602-19.199 3.6016-26.398 25.199-27.602 42-3.6016 31.199-3.6016 64.801-3.6016 96-1.1992 66 0 130.8 3.6016 196.8 1.1992 22.801-1.1992 51.602 18 68.398 15.602 14.398 37.199 8.3984 44.398-10.801 4.8008-13.199 4.8008-27.602 4.8008-40.801 0-18 1.1992-36 1.1992-55.199 1.1992-39.598 2.3984-76.801 3.5977-114z"/>
  <path d="m604.8 812.4c-1.1992 20.398-3.6016 40.801-6 62.398-1.1992 6-4.8008 52.801-18 43.199-13.199-8.3984-10.801-38.398-10.801-51.602-1.1992-21.602-1.1992-42-1.1992-63.602-1.1992-81.602-1.1992-163.2 1.1992-244.8 0-1.1992 1.1992-2.3984 1.1992-4.8008-1.1992-8.3984 7.1992-12 14.398-8.3984 7.1992 3.6016 10.801 10.801 12 18 4.8008 18 3.6016 37.199 4.8008 55.199 2.3984 40.801 3.6016 81.602 4.8008 121.2 0 14.398 22.801 14.398 22.801 0-1.1992-56.398-1.1992-112.8-8.3984-168-2.3984-20.398-10.801-43.199-33.602-50.398-15.602-4.8008-33.602 4.8008-39.602 19.199-1.1992 1.1992-2.3984 3.6016-2.3984 6-3.6016 106.8-3.6016 214.8 0 321.6 1.1992 19.199 1.1992 39.602 10.801 56.398 8.3984 14.398 25.199 24 40.801 13.199 14.398-9.6016 18-30 20.398-46.801 4.8008-26.398 7.1992-51.602 8.3984-78 2.4023-13.191-20.398-14.391-21.598 0.007813z"/>
  <path d="m742.8 550.8c-6-13.199-25.199-2.3984-19.199 10.801 9.6016 20.398 7.1992 44.398 6 67.199-1.1992 25.199-1.1992 50.398-2.3984 75.602-2.3984 49.199-6 98.398-9.6016 147.6-1.1992 12-1.1992 24-3.6016 34.801-1.1992 6-2.3984 19.199-9.6016 21.602-18 6-16.801-57.602-16.801-66-2.3984-48-2.3984-97.199-1.1992-145.2 1.1992-26.398 2.3984-52.801 4.8008-79.199 0-7.1992 3.6016-73.199 12-72 14.398 3.6016 20.398-18 6-21.602-20.398-4.8008-31.199 13.199-34.801 31.199-6 30-6 61.199-8.3984 92.398-3.6016 62.398-4.8008 126-1.1992 188.4 1.1992 15.602 1.1992 31.199 2.3984 46.801 1.1992 12 2.3984 24 8.3984 33.602 12 16.801 34.801 20.398 48 3.6016 14.398-18 13.199-48 14.398-70.801 2.3984-32.398 4.8008-64.801 7.1992-97.199 2.3984-34.801 3.6016-70.801 4.8008-105.6 2.4023-32.406 7.2031-66.004-7.1953-96.004z"/>
  <path d="m643.2 949.2c0-1.1992-1.1992-2.3984-2.3984-3.6016-1.1992-1.1992-2.3984-2.3984-3.6016-2.3984-1.1992-1.1992-2.3984-1.1992-4.8008-1.1992h-2.3984c-2.3984 0-3.6016 1.1992-4.8008 2.3984 0 1.1992-1.1992 1.1992-1.1992 2.3984-1.1992 1.1992-1.1992 3.6016-1.1992 6v2.3984c0 1.1992 0 2.3984 1.1992 4.8008 0 1.1992 1.1992 2.3984 2.3984 3.6016 1.1992 1.1992 2.3984 2.3984 3.6016 2.3984 1.1992 1.1992 2.3984 1.1992 4.8008 1.1992h2.3984c2.3984 0 3.6016-1.1992 4.8008-2.3984 0-1.1992 1.1992-1.1992 1.1992-2.3984 1.1992-1.1992 1.1992-3.6016 1.1992-6v-2.3984c0-2.3984 0-3.6016-1.1992-4.8008z"/>
  <path d="m654 900c0-1.1992-1.1992-2.3984-2.3984-3.6016-1.1992-1.1992-2.3984-2.3984-3.6016-2.3984-1.1992-1.1992-2.3984-1.1992-4.8008-1.1992h-2.3984c-2.3984 0-3.6016 1.1992-4.8008 2.3984 0 1.1992-1.1992 1.1992-1.1992 2.3984-1.1992 1.1992-1.1992 3.6016-1.1992 6v2.3984c0 1.1992 0 2.3984 1.1992 4.8008 0 1.1992 1.1992 2.3984 2.3984 3.6016 1.1992 1.1992 2.3984 2.3984 3.6016 2.3984 1.1992 1.1992 2.3984 1.1992 4.8008 1.1992h2.3984c2.3984 0 3.6016-1.1992 4.8008-2.3984 0-1.1992 1.1992-1.1992 1.1992-2.3984 1.1992-1.1992 1.1992-3.6016 1.1992-6v-2.3984c-1.1992-2.4023-1.1992-3.6016-1.1992-4.8008z"/>
  <path d="m669.6 950.4c-15.602 0-15.602 21.602-1.1992 22.801h1.1992c14.398 0 14.398-22.801 0-22.801z"/>
  <path d="m434.4 512.4v-4.8008c0-1.1992-1.1992-1.1992-1.1992-2.3984-1.1992-1.1992-2.3984-3.6016-3.6016-3.6016-1.1992 0-1.1992-1.1992-2.3984-1.1992-2.3984 0-3.6016-1.1992-6 0-1.1992 0-2.3984 1.1992-3.6016 1.1992-1.1992 0-1.1992 1.1992-2.3984 1.1992 0 1.1992-1.1992 1.1992-2.3984 2.3984 0 1.1992-1.1992 2.3984-1.1992 2.3984v3.6016 3.6016c0 1.1992 1.1992 1.1992 1.1992 2.3984 1.1992 1.1992 1.1992 2.3984 2.3984 3.6016 1.1992 1.1992 2.3984 1.1992 3.6016 2.3984h4.8008c1.1992 0 2.3984 0 3.6016-1.1992 1.1992 0 1.1992-1.1992 2.3984-1.1992 1.1992-1.1992 2.3984-2.3984 2.3984-4.8008 2.3984-1.1953 2.3984-2.3945 2.3984-3.5977z"/>
  <path d="m746.4 500.4c0-1.1992-1.1992-2.3984-2.3984-3.6016-1.1992-1.1992-2.3984-2.3984-3.6016-2.3984-1.1992-1.1992-2.3984-1.1992-4.8008-1.1992h-2.3984c-2.3984 0-3.6016 1.1992-4.8008 2.3984 0 1.1992-1.1992 1.1992-1.1992 2.3984-1.1992 1.1992-1.1992 3.6016-1.1992 6v2.3984c0 1.1992 0 2.3984 1.1992 4.8008 0 1.1992 1.1992 2.3984 2.3984 3.6016 1.1992 1.1992 2.3984 2.3984 3.6016 2.3984 1.1992 1.1992 2.3984 1.1992 4.8008 1.1992h2.3984c2.3984 0 3.6016-1.1992 4.8008-2.3984 0-1.1992 1.1992-1.1992 1.1992-2.3984 1.1992-1.1992 1.1992-3.6016 1.1992-6v-2.3984c0.003906-2.3984 0.003906-3.5977-1.1992-4.8008z"/>
  <path d="m748.8 460.8c-14.398 0-14.398 21.602 0 22.801 13.199 0 14.398-22.801 0-22.801z"/>
  <path d="m447.6 954c0-1.1992-1.1992-2.3984-2.3984-3.6016-0.003906-1.1992-1.2031-2.3984-3.6016-2.3984-1.1992-1.1992-2.3984-1.1992-4.8008-1.1992h-2.3984c-2.3984 0-3.6016 1.1992-4.8008 2.3984 0 1.1992-1.1992 1.1992-1.1992 2.3984-1.1992 1.1992-1.1992 3.6016-1.1992 6v2.3984c0 1.1992 0 2.3984 1.1992 4.8008 0 1.1992 1.1992 2.3984 2.3984 3.6016 1.1992 1.1992 2.3984 2.3984 3.6016 2.3984 1.1992 1.1992 2.3984 1.1992 4.8008 1.1992h2.3984c2.3984 0 3.6016-1.1992 4.8008-2.3984 0-1.1992 1.1992-1.1992 1.1992-2.3984 1.1992-1.1992 1.1992-3.6016 1.1992-6v-2.3984c0-2.4023 0-3.6016-1.1992-4.8008z"/>
  <path d="m488.4 963.6c0-1.1992-1.1992-2.3984-2.3984-3.6016-1.1992-1.1992-2.3984-2.3984-3.6016-2.3984-1.1992-1.1992-2.3984-1.1992-4.8008-1.1992h-2.3984c-2.3984 0-3.6016 1.1992-4.8008 2.3984 0 1.1992-1.1992 1.1992-1.1992 2.3984-1.1992 1.1992-1.1992 3.6016-1.1992 6v2.3984c0 1.1992 0 2.3984 1.1992 4.8008 0 1.1992 1.1992 2.3984 2.3984 3.6016 1.1992 1.1992 2.3984 2.3984 3.6016 2.3984 1.1992 1.1992 2.3984 1.1992 4.8008 1.1992h2.3984c2.3984 0 3.6016-1.1992 4.8008-2.3984 0-1.1992 1.1992-1.1992 1.1992-2.3984 1.1992-1.1992 1.1992-3.6016 1.1992-6v-2.3984c0.003906-1.2031-1.1992-2.4023-1.1992-4.8008z"/>
 </g>
</svg>
