<?xml version="1.0" encoding="UTF-8"?>
<svg width="100pt" height="100pt" version="1.1" viewBox="0 0 100 100" xmlns="http://www.w3.org/2000/svg">
 <g>
  <path d="m46.035 32.824c-1.1523-0.007813-2.2852-0.32422-3.2734-0.91797 0.12891 1.2305 0.83594 2 2.4297 2.2539 1.2539 0.19922 2.875 0.3125 3.8633-0.41016 0.0625-0.082031 0.14453-0.14844 0.23437-0.19531 0.29688-0.30078 0.49609-0.67969 0.57813-1.0938 0.011718-0.16016 0.019531-0.32813 0.03125-0.49219-0.92578 0.85547-2.5117 0.94531-3.8633 0.85547z"/>
  <path d="m33.043 32.457c0.27734-2.0312 1.1602-3.4258 3.207-3.9883 1.9141-0.53125 3.6797-0.46875 4.6523 1.2695-0.21875-1.1992-0.58984-2.6484-1.7969-3.1602h-0.003907c-1.418-0.51953-2.9727-0.52734-4.3945-0.03125-1.9492 0.6875-3.3711 2.375-3.7188 4.4102-0.37891 2.0312-0.19141 4.1328 0.53906 6.0664 1.2266 3.2812 3.9648 4.0859 6.7852 1.9922 0.019531-0.011719 0.039062-0.019531 0.058594-0.03125-0.23047-0.050781-0.46094-0.11719-0.68359-0.20312-3.6133 1.3555-5.0312-3.5352-4.6445-6.3242z"/>
  <path d="m34.75 29.871c-0.91016 1.0898-1.3359 2.5039-1.1719 3.918 0.13281 2.0078 1.0312 4.8672 3.2734 4.582-1.8242-1.082-2.6328-3.293-1.9414-5.2969 0.86328-2.1289 3.0195-3.4375 5.3047-3.2188-1.2383-1.5391-4.0703-1.4336-5.4648 0.015625z"/>
  <path d="m46.312 39.969c1.7383 2.918 2.3867 6.2461 3.7383 9.332 0.9375 0.28906 2.4453 0.57812 3.1016-0.28125 0.019531-0.023437 0.039062-0.039062 0.058594-0.0625h0.003906c-0.5-2.0312-0.88672-4.0898-1.1523-6.1641-0.34766-2.1992-0.046875-7.0742-2.5781-7.9375v-0.003907c-0.074219-0.023437-0.14062-0.058593-0.19922-0.10937-0.51172 0.51172-1.0586 0.98437-1.6406 1.418-0.44531 0.32812-0.9375 0.59766-1.457 0.79688-0.27344 0.11328-0.55859 0.1875-0.85547 0.22266-0.17969 0.019531-0.26562 0-0.27734-0.035157-0.011719-0.035156 0.050781-0.10156 0.21094-0.19141 0.15625-0.089844 0.40625-0.19531 0.74609-0.39062 0.45703-0.24609 0.89062-0.53125 1.2969-0.85156 0.33984-0.26172 0.71094-0.59766 1.125-0.99219l0.003906-0.003906c-1.1172 0.28125-2.2852 0.28906-3.4062 0.027344-0.59375-0.10547-1.1602-0.32422-1.6719-0.63672-0.03125 0.57812 0.054687 1.1602 0.25391 1.7031 0.078125 0.21484 0.15625 0.35547 0.1875 0.45703s0.027344 0.16797-0.003906 0.19922c-0.03125 0.027344-0.089844 0.015625-0.1875-0.050782v-0.003906c-0.14844-0.10547-0.27734-0.24219-0.375-0.39844-0.19141-0.28906-0.32422-0.61719-0.39062-0.96094-0.085938-0.47656-0.10547-0.96484-0.0625-1.4531-0.5-0.65234-0.73438-1.4727-0.64453-2.2891 0.007812-0.26172-2.1562 0.94922-2.3242 1.1172-0.64844 0.67578-1.0781 1.5312-1.2383 2.4531-0.17188 0.84375-0.058594 1.7227 0.32031 2.5 0.40625 1.1016 1.6094 1.6914 2.7305 1.3359 1.4844-0.3125 2.8633 0.44141 4.2812 0.84375h-0.003906c0.20312 0.046875 0.36328 0.20703 0.41016 0.41016zm0.99609-1.5781c0.33203 0.21875 0.61328 0.5 0.83984 0.82812 0.70703 1.0547 1.25 2.2109 1.6055 3.4297 0.91406 2.8086 1.0703 5.2188 0.89844 5.2344-0.13281 0-0.52344-2.3203-1.418-5.0664h0.003906c-0.35156-1.1758-0.82422-2.3086-1.4141-3.3828-0.17188-0.31641-0.39062-0.60938-0.64453-0.87109-0.16797-0.17188-0.32031-0.26172-0.28906-0.29688 0.015625-0.027344 0.16016-0.023437 0.41797 0.125z"/>
  <path d="m53.965 64.266c1.9688 0.17188 3.9492 0.007813 5.8594-0.48047 2.2148-0.60547 4.5-1.9297 4.8359-3.7109-0.54688-0.28906-1.2773-0.125-1.707-0.60156-0.21094-0.23438-0.41797-0.71484-0.70312-0.83594h0.003906c-0.39453-0.14453-0.82031-0.19141-1.2344-0.13672-0.10156 0.007812-0.19922-0.042969-0.24609-0.12891-0.003907-0.003906-0.011719-0.003906-0.019532-0.007813h-0.003906c-1.0742-0.92188-2.5742-1.1641-3.8867-0.62891-0.058593 0.027344-0.125 0.03125-0.18359 0.011719-0.0625-0.023438-0.10938-0.066406-0.13672-0.125-0.007813-0.003906-0.019531-0.011719-0.027344-0.015625-0.53516-0.46875-1.3164-0.52734-1.918-0.14062 0.20312 0.09375 0.38672 0.21875 0.54688 0.37109 0.3125 0.28125 0.57812 0.61328 0.78125 0.98047 0.10547-0.097656 0.22656-0.17578 0.35547-0.22656 0.24219-0.097656 0.50391-0.13281 0.76562-0.10547 0.39844 0.039063 0.78516 0.15234 1.1406 0.34375 0.59375 0.30859 0.85938 0.63281 0.81641 0.68359-0.046875 0.066406-0.37891-0.14062-0.96094-0.33594v-0.003906c-0.32812-0.11328-0.67188-0.17969-1.0156-0.19141-0.36719-0.042969-0.72656 0.13672-0.91406 0.45703l-0.25391 0.47656-0.29297-0.625c-0.41406-0.84375-1.0742-1.5234-1.6211-1.6016v-0.003906c-0.22656-0.027344-0.45312 0.007812-0.66016 0.10156-0.16016 0.097656-0.26172 0.13672-0.28516 0.10938-0.023438-0.027343 0.027344-0.125 0.14844-0.26953 0.21094-0.19531 0.48437-0.30859 0.76953-0.32031-0.47656-0.65234-1.1875-1.1016-1.9844-1.25-0.1875 1.4453-0.42188 2.8906-0.71094 4.3203h0.003906c-0.011718 0.050781-0.03125 0.097656-0.054687 0.14453 0.058594 0.054688 0.12109 0.11328 0.17188 0.16406 0.1875 0.1875 0.32812 0.41406 0.41016 0.66406 0.039063 0.18359 0.03125 0.28906-0.011718 0.30078-0.042969 0.011718-0.12109-0.054688-0.22266-0.17578-0.36719-0.39453-0.82812-0.68359-1.3438-0.84375-0.33984-0.11719-0.71094-0.13281-1.0625-0.046875-0.23438 0.074219-0.4375 0.23047-0.56641 0.44531l-0.28516 0.44922-0.26562-0.41797-0.003906-0.003906c-0.27344-0.43359-0.63281-0.80469-1.0586-1.0898-0.29688-0.20312-0.56641-0.30078-0.53516-0.37891 0.019531-0.0625 0.25781-0.125 0.71094 0.011718h-0.003906c0.4375 0.15625 0.82812 0.41406 1.1367 0.75391 0.14844-0.15234 0.32422-0.26953 0.51953-0.35547 0.12891-1.3359 0.1875-2.6758 0.29688-4.0156v0.003906c-0.40625-0.007813-0.79297 0.17578-1.0391 0.5-0.050781 0.074219-0.13281 0.12109-0.22266 0.13281-0.039063 0.011718-0.078125 0.019531-0.11719 0.019531-1.2617-0.035157-1.9023 0.97266-2.4805 1.9531-0.33984 0.58203-1.2578 0.33594-1.7852 0.73047-0.21484 3.8828 7.8203 4.7539 10.551 4.9453zm3.3242-2.125c0.14453-0.21875 0.34375-0.39062 0.57813-0.50391 0.68359-0.30078 1.4531-0.34766 2.168-0.12891 0.046875-0.14844 0.12109-0.28906 0.21094-0.41797 0.15234-0.19531 0.35156-0.34375 0.58203-0.44141 0.34766-0.13672 0.72656-0.19531 1.1016-0.17188 0.60547 0.027344 0.95312 0.14844 0.95312 0.21875 0 0.078126-0.375 0.097657-0.9375 0.16406-0.53906 0.058594-1.3867 0.25-1.4414 1.0234l-0.023437 0.33984-0.34375-0.11719-0.027344-0.007813c-0.67188-0.25391-1.4023-0.28906-2.0898-0.10547-0.20312 0.066406-0.39453 0.16016-0.57031 0.28516-0.12891 0.09375-0.21094 0.15625-0.24219 0.13281-0.03125-0.023437-0.011719-0.11719 0.082031-0.26953z"/>
  <path d="m46.371 32.227c1.3555 0.003907 2.9688-0.019531 3.5234-1.2852-0.007812-0.058594-0.015625-0.12109-0.027343-0.17578l-0.003907-0.003906c-0.015625-0.066407-0.035156-0.13672-0.0625-0.19922-0.0625-0.003906-0.12891-0.015625-0.1875-0.039062-1.3594 1.7734-4.0977 1.5391-5.6875 0.039062v0.003906c-0.0625 0.003906-0.125 0.003906-0.1875 0-0.097656 0.078125-0.22266 0.11719-0.34766 0.10156-0.078125-0.011719-0.16016-0.015625-0.23828-0.011719 0.023437 0.007812-0.11328 0.050781-0.085938 0.023438-0.023437 0.015624-0.046875 0.027343-0.078125 0.042968-0.003906 0.007813-0.007812 0.011719-0.03125 0.03125v0.003906c-0.011719 0.015626-0.023437 0.027344-0.039062 0.039063-0.015625 0.023437-0.03125 0.046875-0.046875 0.078125-0.03125 0.050781-0.070313 0.09375-0.11328 0.13672 0 0.015625-0.003906 0.03125-0.003906 0.042969 0.63281 1.0078 2.6445 1.1719 3.6172 1.1719z"/>
  <path d="m40.945 30.965c-2.1133 0.27344-3.6953 2.6875-3.5312 4.8477 0.007813 1.25 0.73047 2.3828 1.8594 2.918-2.3984-1.9922-1.4258-6.6016 1.6719-7.7656z"/>
  <path d="m48.633 26.898c2.1953-6.0312 4.7656-13.02 4.1289-19.555-0.09375-0.92969-0.28906-2.7227-1.4375-2.9883-2.0391-0.47656-3.668 1.5039-4.1211 3.2344-1.5977 6.0352-1.7891 12.484-2.3906 18.672 0.94141 0.76953 2.6445 0.69922 3.8203 0.63672z"/>
  <path d="m50.371 59.688c0.55859-2.9453 0.92578-5.9258 1.1016-8.918-0.36719-0.011719-0.73438-0.058593-1.0938-0.13281 0.25781 2.8906-0.30469 6.0664-0.60938 8.9453v-0.003906c0.20312 0.023437 0.40234 0.0625 0.60156 0.10938z"/>
  <path d="m45.117 57.586c0.66406-0.91016 1.3242-1.5586 2.4922-1.5547h0.003906c0.375-0.43359 0.92969-0.67578 1.5039-0.65625 0.015624-0.16797 0.027343-0.33984 0.042968-0.50781 0-0.011719 0-0.027344 0.007813-0.042969v-0.003907c-0.054688 0.027344-0.11328 0.042969-0.17578 0.050782-2.2383 0.35547-4.1953 1.6992-5.3281 3.6602 0.074219-0.015625 0.14453-0.03125 0.22656-0.050781 0.72266-0.14844 0.82031-0.32812 1.2266-0.89453z"/>
  <path d="m49.227 29.984c0-0.082031 0.011719-0.16016 0.035157-0.23438 0.070312-0.28125 0.078125-0.57422 0.019531-0.85938h-0.003906c-0.007813-0.007813-0.027344-0.042969-0.03125-0.046875h-0.015625v-0.003906c-0.17188 0.62891-0.59375 1.1523-1.1719 1.4531-0.57422 0.30078-1.2461 0.35156-1.8594 0.13281-0.74609-0.20312-1.375-0.69922-1.75-1.375-0.066407-0.14062-0.11719-0.28906-0.14844-0.4375-0.11328 0.027344-0.20312 0.10938-0.24609 0.30078-0.050782 0.30078-0.070313 0.60938-0.058594 0.91406v0.007813c1.2109 1.5742 4.0312 1.9336 5.2305 0.14844z"/>
  <path d="m45.203 28.211c0.98047 0.34375 2.0508 0.33594 3.0273-0.019532 0.003906-0.015625 0.003906-0.03125 0.003906-0.050781v-0.019531c0.003906-0.20703 0.035156-0.41016 0.09375-0.60547-1.0078 0.082031-2.0273-0.023437-3-0.3125 0.007813 0.019531 0.011719 0.042969 0.011719 0.0625 0.015625 0.30859-0.027344 0.61328-0.12109 0.90625-0.003906 0.011719-0.011719 0.023437-0.015625 0.039063z"/>
  <path d="m45.992 29.695c0.46094 0.26953 1.0156 0.32422 1.5234 0.14844 0.50391-0.17969 0.90234-0.57031 1.0938-1.0703-0.035156-0.011719-0.070313-0.023438-0.10156-0.039063-1.1094 0.41016-2.332 0.42969-3.4531 0.046875 0.17578 0.41797 0.51562 0.74609 0.9375 0.91406z"/>
  <path d="m40.156 30.512c-0.003906-0.011719-0.007812-0.027344-0.007812-0.042969-1.9219-0.078125-4.1758 0.8125-4.6602 2.7656-0.60938 1.918 0.28906 3.9922 2.1016 4.8633-0.63281-0.92578-0.89453-2.0508-0.74219-3.1602 0.16016-1.9883 1.4453-3.7109 3.3086-4.4258z"/>
  <path d="m65.551 60.605c-0.011719-0.007813-0.019531-0.011719-0.03125-0.019531-0.40234 1.4727-1.4805 2.6641-2.9023 3.2188-2.6133 1.168-5.4805 1.668-8.3359 1.4492-2.9023-0.19922-9.3477-0.95312-11.285-3.8867-0.09375 1.207-0.078125 2.4336-0.050782 3.6562 2.0312 3.8984 7.1992 4.7812 11.238 4.6016 3.5156-0.15625 9.2578-0.88281 11.199-4.3398 0.15234-1.5312 0.21484-3.0703 0.17578-4.6094-0.003906-0.023437-0.007813-0.046875-0.007813-0.070312z"/>
  <path d="m52.012 55.453c0.9375 0.17578 1.7734 0.69141 2.3438 1.4492 0.79297-0.44531 1.7773-0.36719 2.4883 0.19922 1.4648-0.51172 3.0938-0.21094 4.2812 0.78906 0.74609-0.13672 1.5039 0.15625 1.9648 0.75781 0.38281 0.57812 0.73047 0.47656 1.2969 0.625h0.003906c0.10156 0.027343 0.20312 0.0625 0.30078 0.10547-0.13281-0.86719-0.5625-1.6641-1.2109-2.2578-0.35156-0.25-0.72656-0.46875-1.1211-0.65234-3.1484-1.5-6.8047-1.7617-10.25-1.7969-0.035156 0.26172-0.0625 0.52344-0.097656 0.78125z"/>
  <path d="m54.184 70.234c-4.0078 0.10156-8.7734-0.65625-11.207-4.0156 0.011719 0.44141 0.019532 0.87891 0.023438 1.3164 0.019531 2.8398 0.058594 5.6797 0.066406 8.5195 0.007813 2.6523 0.23438 5.3203 0.17188 7.9648h0.003907c0.44141 0.74609 0.9375 1.4648 1.4844 2.1406 0.054688 0.070313 0.097657 0.14844 0.12109 0.23438 0.070313 0.10156 0.10938 0.22266 0.10938 0.34766 0.003907 1.5117 0.089844 3.0234 0.046875 4.5391l0.003906-0.003906c-0.003906 0.039062-0.007812 0.074218-0.015624 0.10938 2.3516 5.6602 13.215 5.2227 16.988 1.4258 0.125-1.2969 0.16016-2.5977 0.10938-3.8984-0.09375-0.0625-0.19922-0.10156-0.3125-0.10937-0.21484 0-0.42969 0.03125-0.63281 0.089843-0.46484 0.12109-0.97656 0.33203-1.5352 0.52734h-0.003906c-0.44922 0.17188-0.91797 0.28906-1.3945 0.34375-0.070313 0.67188-0.097657 1.25-0.11719 1.6641-0.007812 0.46875-0.019531 0.75391-0.078125 0.75781s-0.14453-0.26172-0.22656-0.72656c-0.082031-0.64453-0.10156-1.2969-0.058593-1.9492l0.011719-0.22266 0.23437-0.011718c0.49609-0.058594 0.98438-0.17969 1.4531-0.36719 0.52344-0.20312 1.0586-0.37109 1.6055-0.50391 0.25781-0.058594 0.52734-0.074219 0.79297-0.046875 0.085937 0.011719 0.17188 0.035156 0.25 0.070313-0.007813-0.4375-0.015625-0.86719-0.023437-1.3047v0.003906c-0.58984 0.37891-1.2344 0.67578-1.9062 0.88281-0.52344 0.15625-0.86328 0.21094-0.89063 0.14062-0.027343-0.070313 0.26172-0.25391 0.74609-0.5 0.62109-0.30078 1.2188-0.63672 1.7969-1.0078 0.10156-0.070312 0.18359-0.14453 0.27344-0.21875 0.015625-0.027343 0.03125-0.0625 0.050781-0.09375 0.87891-1.2227 1.707-2.0938 1.8359-3.6719 0.14844-1.8281 0.25-3.6523 0.35156-5.4766 0.20312-3.5938 0.78516-7.1484 0.98828-10.73-2.4375 2.9297-7.6641 3.6875-11.117 3.7812zm-2.4805 4.9219c-0.070313-0.61719-0.082031-1.2383-0.042969-1.8555 0.015625-0.15625 0.042969-0.30078 0.074219-0.45312 0.039063-0.14844 0.089844-0.29297 0.15625-0.43359 0.14844-0.29297 0.39844-0.51953 0.70312-0.63672 0.48047-0.15625 0.98828-0.21875 1.4922-0.18359 0.69531 0.035156 1.3867 0.11719 2.0742 0.23438 0.25391 0.015625 0.50781 0.066406 0.74609 0.15234-0.25 0.074219-0.50781 0.09375-0.76562 0.058593-0.49219 0-1.1992-0.078124-2.0547-0.066406-0.44531-0.003906-0.89063 0.066406-1.3164 0.21484-0.1875 0.082031-0.34375 0.23047-0.44141 0.41406-0.050781 0.11328-0.085937 0.23047-0.11328 0.34766-0.023438 0.13281-0.042969 0.26562-0.050782 0.39844-0.027343 0.58594-0.003906 1.1758 0.070313 1.7578 0.089844 0.65625 0.12109 1.3242 0.085937 1.9883-0.035156 0.35547-0.14844 0.71875-0.15625 0.94531 0.007813 0.09375 0.027344 0.125 0.12109 0.20703v-0.003906c0.10938 0.082031 0.22656 0.14844 0.35156 0.20312 0.027343 0.007813 0.050781 0.023438 0.078125 0.035157l0.11328 0.027343c0.070313 0.027344 0.14062 0.042969 0.21484 0.054688 0.14062 0.015625 0.25781 0.042969 0.41016 0.058594 0.29297 0.035156 0.58594 0.054687 0.86719 0.078125l0.003907-0.003907c0.52344 0.039063 1.0508 0.03125 1.5742-0.023437 0.40234-0.09375 0.72266-0.39844 0.82812-0.79688 0.11719-0.36328 0.19922-0.73438 0.23438-1.1094 0.042968-0.34375 0.078124-0.63672 0.10937-0.87891 0.066407-0.48438 0.16016-0.74609 0.20313-0.74609 0.027343 0.25 0.03125 0.50391 0.011718 0.75781-0.003906 0.24609 0 0.54687-0.015625 0.89453-0.011719 0.40625-0.074219 0.8125-0.18359 1.207-0.070313 0.24219-0.19141 0.47266-0.35547 0.66797-0.1875 0.23047-0.44531 0.38672-0.73828 0.44531-0.55859 0.085938-1.125 0.11328-1.6914 0.082031-0.29297-0.011718-0.59375-0.027343-0.90234-0.054687-0.14453-0.007813-0.32813-0.042969-0.49219-0.070313h-0.003906c-0.078125-0.007812-0.15625-0.027343-0.23438-0.050781l-0.11719-0.027343-0.13672-0.0625c-0.16797-0.066407-0.32422-0.15625-0.46875-0.26563-0.089843-0.070312-0.16797-0.15625-0.22656-0.25781-0.058594-0.10938-0.089844-0.22656-0.09375-0.35156 0.003906-0.18359 0.027344-0.36719 0.070312-0.54688 0.03125-0.15625 0.058594-0.3125 0.078126-0.46094 0.035156-0.62891 0.007812-1.2617-0.070313-1.8906zm0.027344 6.8398c0.11719-0.4375 0.36719-0.82812 0.71875-1.1211 0.15625-0.11719 0.32812-0.21094 0.51172-0.28125 0.085937-0.03125 0.16406-0.0625 0.24609-0.09375 0.078125-0.019531 0.16016-0.03125 0.23438-0.046875 0.26172-0.046875 0.52734-0.070313 0.78906-0.070313 0.41797 0.023438 0.65234 0.066407 0.65234 0.10156s-0.23437 0.074219-0.64844 0.11328c-0.55469 0.050782-1.0898 0.25-1.543 0.57422-0.52734 0.63672-0.76172 1.4648-0.65234 2.2852 0 0.48828 0.023438 1.0039 0.042969 1.5469v0.003906c-0.011719 0.53516 0.03125 1.0664 0.13672 1.5938 0.097656 0.46875 0.44531 0.84766 0.90625 0.98828 0.47656 0.125 0.96875 0.19141 1.4648 0.19922 0.44531 0.039063 0.89453 0.015626 1.3359-0.070312 0.34766-0.058594 0.64453-0.28125 0.80078-0.59766 0.11328-0.29297 0.17969-0.60547 0.19141-0.91797 0.011719-0.28906 0.019531-0.54688 0.023437-0.75781 0.007813-0.41797 0.027344-0.65234 0.066406-0.65234 0.035157 0 0.089844 0.23047 0.14453 0.64453 0.027344 0.21094 0.054687 0.46484 0.070312 0.76953h-0.003906c0.023438 0.35938-0.023438 0.72266-0.13672 1.0664-0.1875 0.44531-0.57422 0.76953-1.0391 0.87891-0.48047 0.12109-0.97266 0.16797-1.4648 0.14062-0.54688 0.003906-1.0898-0.058594-1.6172-0.19531-0.30859-0.09375-0.58594-0.26562-0.8125-0.49609-0.21875-0.24609-0.37109-0.53906-0.45313-0.85547-0.11719-0.56641-0.16406-1.1484-0.14453-1.7266-0.011719-0.53516-0.023437-1.0625-0.011719-1.5703 0-0.48828 0.0625-0.97656 0.19141-1.4531zm-0.67188 8.707c0.035156-0.19531 0.11328-0.37891 0.23438-0.53906 0.13281-0.16406 0.30469-0.30078 0.49609-0.39062 0.089844-0.050782 0.1875-0.089844 0.28516-0.125 0.12891-0.039063 0.19922-0.054688 0.30469-0.078126 0.20703-0.054687 0.41797-0.09375 0.63281-0.11328 0.92578-0.078125 1.8555-0.066406 2.7773 0.035157 0.34766 0.03125 0.67969 0.066406 1.0156 0.10547l0.22266 0.023438 0.015625 0.21484c0.042969 0.42187 0.054687 0.84766 0.03125 1.2734-0.011719 0.41797-0.12109 0.82812-0.32031 1.1992-0.20703 0.33594-0.53125 0.58594-0.91406 0.70312-0.29688 0.09375-0.60156 0.15234-0.91406 0.16797-0.58594 0.074218-1.1797 0.035156-1.7461-0.12109 0.55859-0.12891 1.1328-0.20703 1.707-0.23438 0.27344-0.039063 0.54297-0.10938 0.80078-0.20703 0.27734-0.097657 0.51172-0.29297 0.65234-0.54688 0.23438-0.625 0.29688-1.3008 0.1875-1.957-0.25781-0.023437-0.51562-0.046875-0.78125-0.078125-0.89062-0.09375-1.7852-0.12109-2.6758-0.078125-0.19141 0.007813-0.38281 0.035157-0.57422 0.078125-0.09375 0.019532-0.17969 0.039063-0.26953 0.054688-0.078124 0.027344-0.15625 0.058594-0.23437 0.09375-0.14063 0.054687-0.26563 0.13672-0.37109 0.24609-0.085938 0.10156-0.14453 0.22266-0.17578 0.35547-0.050781 0.26172-0.066406 0.53125-0.046874 0.79688 0.007812 0.25 0.015624 0.46875 0.023437 0.64453 0.003906 0.36328-0.019531 0.55859-0.054687 0.5625-0.035157 0.003907-0.085938-0.19922-0.15625-0.53516-0.035157-0.17578-0.078126-0.39062-0.11719-0.64062v-0.003906c-0.058594-0.29688-0.070312-0.60547-0.035156-0.90625zm-6.4297-19.859c0.058594-0.097656 0.13672-0.18359 0.22656-0.25391l0.03125-0.027344 0.007812-0.007812v-0.003907h0.003907l0.054687-0.027343 0.070313-0.023438 0.003906-0.003906c0.066406-0.011719 0.13672-0.023438 0.20703-0.027344 0.45703 0.015625 0.91016 0.082031 1.3477 0.20703 0.5 0.11719 0.98828 0.27344 1.4648 0.46875 0.066406 0.03125 0.125 0.050781 0.19531 0.09375l0.10547 0.058594c0.039063 0.023437 0.085938 0.058594 0.125 0.089844 0.007813 0.011719-0.003906 0 0.023438 0.027343l0.027344 0.027344 0.09375 0.11719v-0.003906c0.054687 0.066406 0.097656 0.13672 0.13672 0.21094 0.14453 0.28125 0.24219 0.58594 0.28125 0.89844 0.085938 0.60938 0.10547 1.2227 0.058594 1.832-0.03125 0.61719-0.10156 1.2148-0.16406 1.7852-0.027344 0.28516-0.0625 0.56641-0.089844 0.83594v0.003906c-0.019532 0.29688-0.089844 0.59375-0.20703 0.87109-0.070312 0.15625-0.17969 0.29297-0.3125 0.39844-0.14062 0.097656-0.30469 0.16016-0.47656 0.17188-0.27734 0.011719-0.55078-0.03125-0.80859-0.13281-0.42578-0.14844-0.83203-0.34375-1.2188-0.58594-0.34766-0.19531-0.61328-0.51172-0.75391-0.89062-0.027344-0.078125-0.050781-0.16016-0.070312-0.24219-0.007813-0.078126-0.011719-0.15625-0.019532-0.22656h-0.003906c-0.011719-0.12891-0.007812-0.25781 0.011719-0.39062-0.007813-0.23828 0.046875-0.47266 0.15625-0.6875 0.046875 0.003906 0.027343 0.25391 0.050781 0.6875 0.003906 0.12109 0.015625 0.23828 0.039062 0.35547 0.011719 0.058593 0.023438 0.12891 0.035157 0.19531h0.003906c0.019531 0.066407 0.046875 0.12891 0.078125 0.19531 0.13672 0.28906 0.36719 0.52734 0.66016 0.66797 0.36719 0.20313 0.75781 0.36328 1.1602 0.48828 0.20313 0.070312 0.41406 0.097656 0.625 0.089844 0.17969-0.015626 0.32813-0.13672 0.38281-0.30859 0.085937-0.22656 0.13672-0.46094 0.14844-0.70312 0.019532-0.27344 0.042969-0.5625 0.078126-0.84766 0.058593-0.57422 0.11719-1.1602 0.15625-1.7578 0.039062-0.57422 0.023437-1.1484-0.042969-1.7188-0.011719-0.13672-0.050781-0.25781-0.078125-0.39062-0.035156-0.11328-0.074219-0.22266-0.125-0.32812-0.03125-0.042969-0.023438-0.085938-0.078125-0.14062l-0.11328-0.13672c-0.015626-0.007812-0.027344-0.015625-0.039063-0.027344l-0.074219-0.039062c-0.046875-0.027344-0.10938-0.058594-0.16016-0.078125-0.44531-0.19922-0.90625-0.36328-1.375-0.49609-0.39844-0.12891-0.80859-0.21484-1.2227-0.25781h-0.085938l-0.070312 0.019531-0.015625 0.007812h0.003906c-0.0625 0.039063-0.11328 0.089844-0.15625 0.14844-0.078125 0.12109-0.13281 0.25781-0.15234 0.40234-0.027343 0.26172-0.03125 0.52344-0.019531 0.78906 0.015625 0.45312-0.042969 0.71094-0.078125 0.70312-0.066406-0.22266-0.11328-0.45312-0.13281-0.68359-0.050781-0.27734-0.070312-0.55859-0.066406-0.83984 0.007813-0.19531 0.0625-0.38672 0.15625-0.55859zm0.8125 14.922c0.023438-0.03125 0.25391 0.089844 0.65234 0.3125 0.54297 0.33203 1.125 0.58984 1.7305 0.76562 0.17969 0.046875 0.36719 0.050781 0.54688 0.019531 0.039062-0.003906 0.074218-0.015625 0.10938-0.027343l0.078125-0.042969 0.035156-0.019531 0.011719-0.007813h0.003906c0.054687-0.0625 0.10156-0.13281 0.13281-0.20703 0.15625-0.46484 0.23828-0.94922 0.24609-1.4375 0.050781-1.1641 0-2.332-0.15625-3.4883-0.039062-0.30078-0.089843-0.59766-0.15625-0.89062-0.027343-0.13672-0.066406-0.27344-0.11328-0.40625l-0.035156-0.078126c-0.011719-0.015624-0.003906-0.023437-0.023438-0.050781l-0.027344-0.035156-0.015624-0.007813h-0.003907c-0.015625-0.015624-0.035156-0.03125-0.050781-0.042968-0.23828-0.125-0.48828-0.22656-0.75-0.30078-0.26172-0.078124-0.52734-0.15625-0.78516-0.21094-0.48438-0.11719-0.98047-0.18359-1.4805-0.19141-0.10156-0.003907-0.20703 0.003906-0.30469 0.023437-0.03125 0.011719-0.050782 0-0.097657 0.019532l-0.074219 0.042968h-0.003906l-0.007812 0.011719c-0.078125 0.15625-0.125 0.32812-0.13281 0.50391-0.03125 0.64453-0.023437 1.2891 0.011719 1.9297 0.019531 0.46484-0.007812 0.72656-0.046875 0.72656-0.089844-0.22656-0.14453-0.46094-0.16406-0.70312-0.12109-0.64844-0.18359-1.3125-0.18359-1.9727-0.007813-0.25781 0.058593-0.51172 0.18359-0.73438l0.035157-0.050781 0.007812-0.011719 0.035157-0.027344h0.003906l0.019531-0.011719 0.070313-0.046874 0.003906-0.003907c0.074218-0.039062 0.15234-0.066406 0.23438-0.089843 0.13281-0.03125 0.26562-0.046876 0.40234-0.050782 0.53516-0.011718 1.0703 0.042969 1.5938 0.15625 0.27344 0.050782 0.55469 0.12109 0.83984 0.20312v-0.003906c0.30078 0.082031 0.59375 0.19922 0.87109 0.34766 0.039062 0.023438 0.085938 0.058594 0.12891 0.09375l0.027344 0.023438 0.007812 0.007812h0.003907c0.007812 0.007813 0.015625 0.015625 0.019531 0.023438l0.007812 0.007812 0.035157 0.042969 0.003906 0.003906c0.03125 0.042969 0.058594 0.09375 0.082031 0.14453 0.023438 0.046874 0.035156 0.085937 0.054688 0.125h0.003906c0.058594 0.15625 0.10547 0.3125 0.14062 0.47656 0.074219 0.30859 0.12891 0.62109 0.17188 0.9375 0.16016 1.1914 0.19922 2.3945 0.11328 3.5938-0.023437 0.54688-0.14062 1.082-0.33984 1.5898-0.0625 0.14062-0.16016 0.26953-0.27734 0.36719l-0.03125 0.019531h-0.011719l-0.019531 0.007813-0.035156 0.019531-0.078126 0.039063c-0.058593 0.023437-0.14844 0.042969-0.22266 0.0625l-0.003906 0.003906c-0.24609 0.035156-0.49609 0.015625-0.73438-0.054687-0.63672-0.21875-1.2266-0.54688-1.7539-0.96484-0.37109-0.27734-0.55859-0.45312-0.53906-0.48438zm0.85938 2.2695c0.23438 0.089844 0.58203 0.21094 1.0156 0.35156 0.52344 0.16406 1.0312 0.35938 1.5273 0.58984 0.15234 0.074219 0.30078 0.16016 0.4375 0.25781 0.16406 0.11719 0.30469 0.26562 0.41016 0.4375 0.14453 0.35938 0.20312 0.74609 0.17188 1.1328-0.027343 0.53516-0.09375 1.0703-0.19922 1.5977l-0.039062 0.19531-0.17969 0.015625-0.003906-0.003906c-0.51562 0.03125-1.0312-0.09375-1.4844-0.34766-0.18359-0.09375-0.35938-0.20703-0.52734-0.33203-0.14453-0.10156-0.28125-0.21484-0.41016-0.33594-0.46875-0.44141-0.64453-0.78906-0.60156-0.82031 0.054687-0.039063 0.30469 0.22266 0.80859 0.56641 0.13281 0.097656 0.26953 0.18359 0.41406 0.26562 0.16406 0.097656 0.33594 0.18359 0.50781 0.25781 0.32812 0.14453 0.67969 0.22656 1.0352 0.23828 0.070312-0.43359 0.11328-0.87109 0.13281-1.3125 0.03125-0.29687-0.003906-0.59375-0.097656-0.875-0.16016-0.21484-0.36719-0.38281-0.60547-0.49609-0.50781-0.27734-1.0195-0.47656-1.4375-0.67188l0.003907-0.003906c-0.34375-0.14453-0.66797-0.32031-0.97656-0.52344-0.22656-0.15625-0.30078-0.27344-0.28516-0.30469 0.015625-0.027343 0.15625 0.035157 0.38281 0.11719zm12.879 4.8789c0.17187-0.058593 0.33984-0.12891 0.48828-0.18359 0.15625-0.066407 0.30078-0.13281 0.44141-0.19141 0.26562-0.12109 0.49609-0.23047 0.67969-0.32812 0.36328-0.19531 0.55859-0.32813 0.58594-0.29297 0.027344 0.03125-0.12891 0.21484-0.46875 0.46875-0.21094 0.15625-0.42969 0.29688-0.66016 0.42188-0.12891 0.074218-0.26953 0.14844-0.41797 0.23047-0.16406 0.078126-0.32422 0.15625-0.50391 0.23047h-0.003907c-1.8516 0.73047-3.8164 1.1484-5.8086 1.2344-2.0078 0.19141-4.0312-0.16016-5.8594-1.0156-0.54688-0.28906-1.0234-0.69141-1.3984-1.1836-0.10547-0.12891-0.19141-0.26953-0.25781-0.42188-0.042969-0.10547-0.066406-0.16016-0.046875-0.17187h-0.003907c0.54297 0.58203 1.1758 1.0664 1.8828 1.4336 1.793 0.71094 3.7305 0.98828 5.6523 0.8125 1.9414-0.089843 3.8555-0.44141 5.6992-1.0469zm3.0859-8.25c-0.10156 0.44531-0.3125 0.85547-0.61719 1.1953-0.11328 0.10938-0.23438 0.20703-0.36719 0.28906-0.14453 0.085937-0.29688 0.16016-0.45703 0.21875-0.074219 0.023437-0.14844 0.054687-0.22656 0.078124-0.078125 0.023438-0.16797 0.050782-0.25391 0.078126-0.18359 0.050781-0.37891 0.085937-0.57031 0.10156-0.054688-0.003906-0.10938 0-0.16797-0.007812h-0.003907c-0.0625-0.011719-0.125-0.023438-0.1875-0.042969-0.14062-0.046875-0.25781-0.14062-0.33984-0.26562-0.11719-0.20703-0.17969-0.44141-0.17969-0.67969-0.023437-0.41406 0.003907-0.8125-0.007812-1.2109-0.035157-0.78906-0.16016-1.5898-0.125-2.3359 0.007812-0.19141 0.027343-0.38281 0.066406-0.57422l0.023437-0.14062 0.042969-0.11719c0.023438-0.078125 0.050781-0.15625 0.078125-0.22656h0.003906c0.042969-0.085938 0.09375-0.16797 0.14453-0.25 0.042968-0.074219 0.09375-0.14063 0.15625-0.19922 0.0625-0.054688 0.12109-0.11719 0.18359-0.17188 0.0625-0.054688 0.13281-0.085938 0.19922-0.125l-0.003906-0.003906c0.22656-0.125 0.47266-0.21484 0.73047-0.26563 0.21875-0.039062 0.39844-0.074218 0.54688-0.097656 0.29297-0.046875 0.46875-0.078125 0.48047-0.035156 0.011719 0.042969-0.13281 0.125-0.41797 0.24219-0.39453 0.11719-0.77344 0.27734-1.1328 0.48047-0.19922 0.14453-0.35938 0.33984-0.45703 0.56641-0.023438 0.078126-0.042969 0.15625-0.070312 0.23438l-0.035157 0.12109-0.007812 0.10938c-0.023438 0.15625-0.035157 0.3125-0.03125 0.46875-0.011719 0.6875 0.125 1.4453 0.16016 2.3086 0.015625 0.42188-0.015625 0.83203 0 1.1953h0.003906c-0.007812 0.14453 0.019531 0.28906 0.078125 0.42188 0.03125 0.0625 0.10547 0.097656 0.26172 0.097656 0.15234-0.003906 0.30469-0.023438 0.45703-0.0625 0.078125-0.019532 0.15625-0.039063 0.22656-0.054688 0.070312-0.015625 0.15625-0.046875 0.23438-0.070312 0.13281-0.039063 0.26172-0.09375 0.39062-0.15625 0.10938-0.058594 0.21094-0.12891 0.3125-0.20703 0.28906-0.28125 0.51953-0.61719 0.67969-0.98437 0.12891-0.26953 0.21875-0.41797 0.25391-0.40625 0.035157 0.007812 0.015626 0.1875-0.054687 0.48437zm1.0547-13.887c-0.19922 0.11328-0.40625 0.20703-0.625 0.28125-0.27344 0.097656-0.60937 0.19141-0.98437 0.30078-0.1875 0.0625-0.38281 0.12109-0.57813 0.20312-0.18359 0.066406-0.35156 0.17188-0.49219 0.30469l-0.011719 0.011718c-0.24219 0.37109-0.35938 0.8125-0.33594 1.2578-0.011719 0.51172 0.03125 1.0664 0.074219 1.6445 0.050781 0.44922 0.054687 0.89844 0.011718 1.3477-0.085937 0.45312-0.19531 0.82031-0.23438 1.1758-0.070312 0.28516-0.019531 0.58984 0.14453 0.83203l0.09375 0.085937c0.023438 0.011719 0.046876 0.027344 0.070313 0.039063 0.054687 0.03125 0.11328 0.058593 0.17188 0.078125 0.125 0.035156 0.25391 0.046875 0.38281 0.042968 0.43359-0.046874 0.85547-0.17578 1.2422-0.38281 0.28516-0.14062 0.44141-0.23438 0.46875-0.20703 0.027344 0.027343-0.09375 0.17578-0.35938 0.38281v0.003907c-0.38281 0.30078-0.83594 0.50391-1.3164 0.58594-0.17578 0.023437-0.35156 0.019531-0.51953-0.015625-0.10156-0.023438-0.19531-0.058594-0.28516-0.10547l-0.14453-0.085937-0.10156-0.078125c-0.16797-0.15625-0.28125-0.36328-0.32031-0.58984-0.039063-0.20703-0.046875-0.41797-0.027344-0.62891 0.03125-0.40625 0.14062-0.82422 0.20703-1.1992 0.027344-0.41406 0.019532-0.82812-0.023437-1.2422-0.054687-0.56641-0.074219-1.1328-0.058594-1.7031-0.015625-0.56641 0.16797-1.1211 0.52734-1.5625 0.003906-0.003907 0.003906-0.007813 0.007813-0.007813 0.19141-0.17969 0.42578-0.3125 0.67969-0.39062 0.20703-0.066406 0.41797-0.125 0.62891-0.16797 0.39062-0.078125 0.72656-0.14062 1.0039-0.19922h0.003906c0.28516-0.078124 0.57422-0.14062 0.87109-0.18359 0.011718 0.019531-0.042969 0.082031-0.17188 0.17188z"/>
  <path d="m66.688 61.941c0 0.44531-0.011719 0.90625-0.03125 1.3984 0 0.125-0.015625 0.25-0.019531 0.37891 0.96875 1.0586 0.82031 2.8555 0.64062 4.1641-0.17578 1.7383-0.64453 3.4336-1.3945 5.0156-0.10156 1.0508-0.19141 2.1055-0.27344 3.1602 3.1797-2.4531 5.6836-13.809 1.0781-14.117zm0.73438 11.121c-0.34375 0.57812-0.60547 0.89844-0.66406 0.86719-0.074218-0.035157 0.074219-0.42578 0.32422-1.0391h-0.003906c0.30078-0.78906 0.54688-1.6016 0.73438-2.4219 0.39062-1.9414 0.41406-3.5938 0.58984-3.5938 0.125-0.007812 0.35156 1.6641-0.054688 3.707-0.19141 0.86719-0.50391 1.6992-0.92578 2.4805z"/>
 </g>
</svg>
